#N canvas 0 0 450 300 12;
#X obj 60 19 inlet point;
#X obj 222 20 inlet reset;
#X obj 60 44 t a b, f 21;
#X obj 204 72 i;
#X obj 238 73 + 1;
#X msg 222 45 0;
#X obj 60 100 unpack f f;
#X obj 127 127 tabwrite \$1-y;
#X obj 60 153 tabwrite \$1-x, f 21;
#X connect 0 0 2 0;
#X connect 1 0 5 0;
#X connect 2 0 6 0;
#X connect 2 1 3 0;
#X connect 3 0 4 0;
#X connect 3 0 7 1;
#X connect 3 0 8 1;
#X connect 4 0 3 1;
#X connect 5 0 3 1;
#X connect 6 0 8 0;
#X connect 6 1 7 0;
