#N canvas 288 174 450 300 12;
#X msg 115 93 line 0;
#X obj 73 94 until;
#X msg 73 120 step;
#X obj 73 176 list split 1;
#X obj 73 201 +;
#X obj 111 200 f;
#X msg 111 127 0;
#X obj 53 62 t b f b b;
#X obj 53 226 f, f 10;
#X obj 53 36 + 1;
#X obj 53 8 inlet;
#X obj 53 251 outlet;
#X obj 73 151 text sequence \$1;
#X connect 0 0 12 0;
#X connect 1 0 2 0;
#X connect 2 0 12 0;
#X connect 3 0 4 0;
#X connect 4 0 5 0;
#X connect 5 0 4 1;
#X connect 5 0 8 1;
#X connect 6 0 5 0;
#X connect 7 0 8 0;
#X connect 7 1 1 0;
#X connect 7 2 6 0;
#X connect 7 3 0 0;
#X connect 8 0 11 0;
#X connect 9 0 7 0;
#X connect 10 0 9 0;
#X connect 12 0 3 0;
