#N canvas 939 263 450 300 12;
#X obj 208 245 loadbang;
#X msg 209 256 100;
#X obj 121 9 loadbang;
#X obj 121 34 f \$1;
#X obj 47 22 r \$2;
#X obj 121 59 * \$3;
#X obj 47 56 separator;
#X obj 47 138 colorRGB 1 1 1 \$4;
#X obj 218 48 r \$2-col;
#X obj 218 73 unpack f f f;
#X obj 215 168 r \$2-length;
#X msg 66 206 width \$1;
#X obj 66 180 r \$2-width;
#X obj 47 269 mesh_line 2;
#X obj 121 242 / 2;
#X obj 47 113 translateXYZ;
#X obj 162 223 +;
#X obj 162 195 t b f;
#X obj 162 169 / 500;
#X connect 0 0 1 0;
#X connect 1 0 13 1;
#X connect 2 0 3 0;
#X connect 3 0 5 0;
#X connect 4 0 6 0;
#X connect 5 0 15 2;
#X connect 6 0 15 0;
#X connect 7 0 13 0;
#X connect 8 0 9 0;
#X connect 9 0 7 1;
#X connect 9 1 7 2;
#X connect 9 2 7 3;
#X connect 10 0 16 0;
#X connect 11 0 13 0;
#X connect 12 0 11 0;
#X connect 12 0 18 0;
#X connect 14 0 13 1;
#X connect 15 0 7 0;
#X connect 16 0 14 0;
#X connect 17 0 16 0;
#X connect 17 1 16 1;
#X connect 18 0 17 0;
