#N canvas 271 140 487 406 12;
#X obj 36 73 unpack f f f;
#X obj 36 44 t a a, f 28;
#X obj 117 173 t f f;
#X obj 117 223 *;
#X obj 149 223 *;
#X obj 36 254 +;
#X obj 76 254 +;
#X obj 36 279 pack f f;
#X obj 229 72 unpack f f f;
#X obj 310 202 t f f;
#X obj 310 252 *;
#X obj 342 252 *;
#X obj 229 283 +;
#X obj 269 283 +;
#X obj 229 308 pack f f;
#X obj 36 334 list append, f 28;
#X obj 36 14 inlet;
#X text 78 15 X Y DEG;
#X obj 36 359 outlet;
#X obj 117 148 * 3.14159;
#X obj 310 177 * 3.14159;
#X obj 310 125 + 180;
#X obj 117 198 sin;
#X obj 149 198 cos;
#X obj 310 227 sin;
#X obj 342 227 cos;
#X obj 359 20 inlet radius;
#X obj 117 123 / -180;
#X obj 310 152 / -180;
#X connect 0 0 5 0;
#X connect 0 1 6 0;
#X connect 0 2 27 0;
#X connect 1 0 0 0;
#X connect 1 1 8 0;
#X connect 2 0 22 0;
#X connect 2 1 23 0;
#X connect 3 0 5 1;
#X connect 4 0 6 1;
#X connect 5 0 7 0;
#X connect 6 0 7 1;
#X connect 7 0 15 0;
#X connect 8 0 12 0;
#X connect 8 1 13 0;
#X connect 8 2 21 0;
#X connect 9 0 24 0;
#X connect 9 1 25 0;
#X connect 10 0 12 1;
#X connect 11 0 13 1;
#X connect 12 0 14 0;
#X connect 13 0 14 1;
#X connect 14 0 15 1;
#X connect 15 0 18 0;
#X connect 16 0 1 0;
#X connect 19 0 2 0;
#X connect 20 0 9 0;
#X connect 21 0 28 0;
#X connect 22 0 3 0;
#X connect 23 0 4 0;
#X connect 24 0 10 0;
#X connect 25 0 11 0;
#X connect 26 0 4 1;
#X connect 26 0 3 1;
#X connect 26 0 11 1;
#X connect 26 0 10 1;
#X connect 27 0 19 0;
#X connect 28 0 20 0;
