#N canvas 682 148 392 377 12;
#X obj 20 123 spigot;
#X obj 59 71 route num;
#X obj 59 97 > \$1;
#X obj 20 17 r \$2-showsteps-head;
#X obj 59 46 r \$2-showsteps-ctl;
#X obj 114 132 sel 1;
#X obj 114 157 f \$1;
#X obj 114 182 get_step_time \$3-SEQ;
#X obj 162 133 bng 20 250 50 0 empty empty empty 0 -10 0 12 #fcfcfc #000000 #000000;
#X obj 114 207 / 10;
#X obj 114 232 t f f, f 18;
#X obj 114 260 tabread \$3-TAB_X;
#X obj 237 260 tabread \$3-TAB_Y;
#X obj 20 292 translateXYZ, f 41;
#X obj 20 183 separator;
#X obj 20 320 circle 50;
#X connect 0 0 14 0;
#X connect 1 0 2 0;
#X connect 2 0 0 1;
#X connect 2 0 5 0;
#X connect 3 0 0 0;
#X connect 4 0 1 0;
#X connect 5 0 6 0;
#X connect 6 0 7 0;
#X connect 7 0 9 0;
#X connect 8 0 6 0;
#X connect 9 0 10 0;
#X connect 10 0 11 0;
#X connect 10 1 12 0;
#X connect 11 0 13 1;
#X connect 12 0 13 2;
#X connect 13 0 15 0;
#X connect 14 0 13 0;
