#N canvas 0 27 558 814 12;
#X declare -path patch/edit;
#X declare -path patch/driver;
#X obj 4 2 cnv 20 550 800 empty empty Igloo 20 25 2 40 #404040 #feffc6 0;
#X obj 167 20 bng 50 250 50 0 \$0-reinit-show-snd \$0-reinit-show-rcv RESET 1 25 0 16 #606060 #ffffff #ffffff;
#X obj 219 20 cnv 20 130 50 empty empty ETAT: 10 12 0 18 #bbbbbb #404040 0;
#X obj 222 42 cnv 20 100 25 empty \$0-state-name-canvas PAS\ PRET 10 12 0 18 #fc2828 #404040 0;
#X obj 28 254 cnv 20 500 400 empty empty Mode\ Manuel 10 15 2 24 #e0e0e0 #404040 0;
#X obj 477 19 bng 50 250 50 0 \$0-edit-show-snd \$0-edit-show-rcv EDIT 5 25 0 16 #faff00 #000000 #000000;
#X obj 28 92 cnv 20 500 150 empty empty Mode\ Automatique 10 15 2 24 #e0e0e0 #404040 0;
#X text 40 292 début;
#X obj 46 428 hsl 400 60 -100 100 0 0 \$0-VITESSE-snd \$0-VITESSE-rcv VITESSE 10 30 0 18 #bbbbbb #000000 #000000 0 1;
#X text 285 406 AVANCE;
#X text 161 406 RECULE;
#X text 232 406 STOP;
#X obj 220 488 bng 50 250 50 0 \$0-STOP-snd \$0-STOP-rcv STOP 5 25 0 16 #bbbbbb #000000 #000000;
#X obj 319 488 bng 50 250 50 0 \$0-VITESSE50-snd \$0-VITESSE50-rcv 50% 10 25 0 16 #bbbbbb #000000 #000000;
#X obj 419 488 bng 50 250 50 0 \$0-VITESSE100-snd \$0-VITESSE100-rcv 100% 10 25 0 16 #bbbbbb #000000 #000000;
#X obj 270 488 bng 50 250 50 0 \$0-VITESSE25-snd \$0-VITESSE25-rcv 25% 10 25 0 16 #bbbbbb #000000 #000000;
#X obj 369 488 bng 50 250 50 0 \$0-VITESSE75-snd \$0-VITESSE75-rcv 75% 10 25 0 16 #bbbbbb #000000 #000000;
#X obj 43 488 nbx 5 50 -100 100 0 0 \$0-VITESSEd-snd-- \$0-VITESSEd-rcv empty 0 -10 0 18 #bbbbbb #000000 #000000 0 256;
#X obj 43 488 nbx 5 50 -100 100 0 0 \$0-VITESSEd-snd-- \$0-VITESSEd-rcv empty 0 -10 0 18 #bbbbbb #000000 #000000 0 256;
#X text 41 407 -100%;
#X text 410 408 +100%;
#X obj 46 309 hsl 400 60 0 158.58 0 0 \$0-POSITION-snd \$0-POSITION-rcv POSITION\ PARCOURS 10 30 0 18 #fcfcfc #000000 #000000 0 1;
#X obj 46 370 hsl 400 28 0 1 0 0 empty empty empty 10 7 0 12 #ffffff #000000 #000000 0 1;
#X obj 46 384 hsl 400 14 0 1 0 0 \$0-real_pos-G-snd \$0-real_pos-G-rcv gauche 10 7 0 12 #dfdfdf #000000 #000000 0 1;
#X obj 46 370 hsl 400 14 0 1 0 0 \$0-real_pos-D-snd \$0-real_pos-D-rcv droite 10 7 0 12 #dfdfdf #000000 #000000 0 1;
#X obj 27 665 cnv 20 500 80 empty empty Moniteurs 10 15 2 24 #e0e0e0 #404040 0;
#X obj 42 694 monitor droite;
#X obj 42 717 monitor gauche;
#X msg 46 182 120;
#X obj 368 122 bng 50 250 50 0 \$0-STOP-snd \$0-STOP-rcv STOP 5 25 0 16 #bbbbbb #000000 #000000;
#X obj 46 218 s \$0-PLAY_IN_N_SECONDS;
#X obj 46 123 bng 50 250 50 0 empty \$0-PLAY_IN-rcv PLAY 5 25 0 16 #e0e0e0 #e0e0e0 #e0e0e0;
#X obj 27 758 cnv 20 500 30 empty empty Stuff 10 15 2 24 #e0e0e0 #404040 0;
#X text 415 763 metalu.net 2026;
#N canvas 168 707 345 243 STUFF 1;
#X obj 25 67 visu \$0;
#N canvas 171 556 507 426 CONFIG 0;
#X msg 83 88 10;
#X msg 122 86 1;
#X obj 301 176 s \$0-MAX_SPEED;
#X obj 300 266 s \$0-MAX_ACCEL;
#X obj 300 216 r \$0-MAX_SPEED;
#X obj 301 97 unpack f f;
#X msg 301 72 80 60;
#X text 345 73 diam_mm speed_tr/mn;
#X obj 368 123 / 60;
#X obj 301 122 * 3.14159;
#X floatatom 335 151 5 0 0 1 max_speed_mm/s - - 0;
#X obj 300 241 / 3;
#X text 342 242 max speed in 3 secs;
#X obj 21 7 loadbang;
#X obj 21 40 b;
#X obj 93 7 bng 20 250 50 0 empty empty empty 0 -10 0 12 #fcfcfc #000000 #000000;
#X msg 228 104 136 80;
#X obj 301 147 *;
#X floatatom 215 192 5 0 0 1 mm/tour - - 0;
#X text 127 245 inc/tour;
#X obj 66 291 /;
#X floatatom 66 316 5 0 0 0 - - - 0;
#X msg 228 135 136 60;
#X msg 247 72 140 60;
#X msg 107 153 1970;
#X obj 66 266 list prepend 8384;
#X text 58 155 mm;
#X msg 21 154 2040;
#N canvas 315 61 351 252 values 0;
#X obj 33 67 v \$0-DIST_ROUES;
#X obj 33 37 v \$0-INIT_ANGLE_DEG;
#X obj 35 98 v \$0-TAB_STEP_MS;
#X obj 34 135 v mot_gauche-MOTORS_INC_BY_MM;
#X obj 34 161 v mot_droite-MOTORS_INC_BY_MM;
#X restore 354 14 pd values;
#X obj 24 378 s mot_gauche-MOTORS_INC_BY_MM;
#X obj 237 377 s mot_droite-MOTORS_INC_BY_MM;
#X obj 83 116 s \$0-TAB_STEP_MS;
#X obj 21 183 s \$0-DIST_ROUES;
#X connect 0 0 31 0;
#X connect 1 0 31 0;
#X connect 4 0 11 0;
#X connect 5 0 9 0;
#X connect 5 1 8 0;
#X connect 6 0 5 0;
#X connect 8 0 17 1;
#X connect 9 0 17 0;
#X connect 9 0 18 0;
#X connect 11 0 3 0;
#X connect 13 0 14 0;
#X connect 14 0 0 0;
#X connect 14 0 23 0;
#X connect 14 0 27 0;
#X connect 15 0 14 0;
#X connect 16 0 5 0;
#X connect 17 0 10 0;
#X connect 17 0 2 0;
#X connect 18 0 25 0;
#X connect 20 0 21 0;
#X connect 20 0 29 0;
#X connect 20 0 30 0;
#X connect 23 0 5 0;
#X connect 24 0 32 0;
#X connect 25 0 20 0;
#X connect 27 0 32 0;
#X restore 24 103 pd CONFIG;
#N canvas 793 396 316 300 tables 0;
#X obj 36 31 table \$0-TAB_MOTD;
#X obj 36 55 table \$0-TAB_MOTG;
#X obj 35 105 table \$0-TAB_X;
#X obj 35 128 table \$0-TAB_Y;
#X obj 35 81 table \$0-TAB_ANGLE-DEG;
#X obj 35 152 table \$0-TAB_Z;
#X obj 35 180 table \$0-TAB_MOTD_SPEED;
#X obj 35 204 table \$0-TAB_MOTG_SPEED;
#X restore 24 157 pd tables;
#X obj 90 68 bng 20 250 50 0 \$0-recompute \$0-__recompute-rcv refresh 0 -10 0 12 #faff00 #000000 #000000;
#N canvas 251 96 792 770 edit-stuff 0;
#X obj 21 121 r \$0-edit-down-snd;
#X obj 18 21 r \$0-edit-time-snd;
#X msg 18 46 set \$1;
#X obj 18 70 s \$0-edit-time-rcv;
#X msg 160 42 set \$1;
#X obj 160 17 r \$0-edit-droite-snd;
#X obj 160 66 s \$0-edit-droite-rcv;
#X msg 314 42 set \$1;
#X obj 314 17 r \$0-edit-gauche-snd;
#X obj 314 66 s \$0-edit-gauche-rcv;
#X obj 56 149 r \$0-edit-n-snd;
#X msg 21 149 -1;
#X obj 21 174 +;
#X obj 21 230 s \$0-edit-n-rcv;
#X obj 241 147 r \$0-edit-n-snd;
#X obj 206 172 +;
#X obj 206 228 s \$0-edit-n-rcv;
#X obj 206 119 r \$0-edit-up-snd;
#X msg 206 147 1;
#X obj 22 267 r \$0-edit-n-snd;
#X obj 22 350 text get \$0-SEQ;
#X obj 22 375 unpack f f f, f 44;
#X obj 22 400 / 1000;
#X obj 174 400 * 1000;
#X obj 327 400 * 1000;
#X obj 22 452 s \$0-edit-time-rcv;
#X msg 22 425 set \$1;
#X msg 174 424 set \$1;
#X obj 174 451 s \$0-edit-droite-rcv;
#X msg 327 424 set \$1;
#X obj 327 451 s \$0-edit-gauche-rcv;
#X obj 22 497 r \$0-edit-time-snd;
#X obj 165 497 r \$0-edit-droite-snd;
#X obj 321 497 r \$0-edit-gauche-snd;
#X obj 22 598 f;
#X obj 165 544 t b f;
#X obj 321 544 t b f;
#X obj 22 623 pack f f f, f 48;
#X obj 165 521 / 1000;
#X obj 321 521 / 1000;
#X obj 131 724 text set \$0-SEQ;
#X obj 22 648 t b a, f 16;
#X obj 165 650 r \$0-edit-n-snd;
#X obj 22 723 s \$0-recompute;
#X obj 414 116 r \$0-edit-n-snd;
#X obj 414 264 s \$0-edit-n-ms;
#X obj 425 145 r \$0-COMPUTE_FINISH;
#X obj 22 521 * 100;
#X obj 22 548 i;
#X obj 22 573 * 10;
#X obj 524 468 r \$0-MAX_SPEED;
#X obj 524 493 t f f, f 8;
#X obj 524 518 * -1;
#X obj 524 543 pack f f;
#X msg 524 568 range \$1 \$2;
#X obj 524 631 s \$0-edit-droite-rcv;
#X obj 535 599 s \$0-edit-gauche-rcv;
#X obj 392 659 r \$0-TOTAL_TIME;
#X obj 392 684 / 1000;
#X floatatom 445 687 5 0 0 0 - - - 0;
#X obj 392 714 s \$0-edit-totaltime-rcv;
#X obj 624 180 s \$0-edit-totaln-rcv;
#X obj 607 118 r \$0-seq_length;
#X obj 607 236 s \$0-edit-n-rcv;
#X obj 414 236 get_step_time \$0-SEQ;
#X obj 414 180 f;
#X obj 22 698 speedlimm 20;
#X obj 21 204 clip 1 12;
#X obj 206 202 clip 1 12;
#X obj 22 295 - 1;
#X obj 165 673 - 1;
#X obj 414 208 - 1;
#X obj 607 148 f;
#X msg 607 210 range 1 \$1;
#X obj 266 175 r \$0-seq_length;
#X obj 81 178 r \$0-seq_length;
#X obj 22 323 + 1;
#X obj 165 699 + 1;
#N canvas 186 186 535 511 new/del_point 0;
#X obj 33 23 r \$0-edit-newpoint-snd;
#X obj 50 159 r \$0-edit-delpoint-snd;
#X obj 113 241 r \$0-edit-n-snd;
#X obj 82 316 text delete \$0-SEQ;
#X obj 82 268 f;
#X obj 65 126 text insert \$0-SEQ, f 21;
#X obj 137 52 r \$0-edit-n-snd;
#X msg 65 77 3000 0 0;
#X obj 50 244 t b b;
#X obj 104 357 r \$0-edit-n-snd;
#X obj 72 386 f, f 5;
#X obj 33 481 s \$0-recompute;
#X obj 72 435 s \$0-edit-n-rcv;
#X obj 33 51 t b b;
#X floatatom 113 208 5 0 0 0 - - - 0;
#X obj 50 209 moses 2;
#X obj 300 107 text insert \$0-SEQ;
#X obj 369 50 r \$0-edit-n-snd;
#X msg 300 75 3000 0 0;
#X obj 254 22 r \$0-edit-newpoint-after-snd;
#X obj 311 137 + 1;
#X obj 254 50 t b b b;
#X obj 277 162 s \$0-edit-n-rcv;
#X obj 277 138 f;
#X obj 137 77 - 1;
#X obj 72 411 clip 1 12;
#X obj 113 268 - 1;
#X obj 79 184 r \$0-seq_length;
#X obj 50 185 f;
#X obj 137 101 + 1;
#X obj 369 78 + 1;
#X obj 132 386 r \$0-seq_length;
#X obj 33 347 t b b, f 6;
#X obj 82 292 + 1;
#X connect 0 0 13 0;
#X connect 1 0 28 0;
#X connect 2 0 26 0;
#X connect 4 0 33 0;
#X connect 6 0 24 0;
#X connect 7 0 5 0;
#X connect 8 0 32 0;
#X connect 8 1 4 0;
#X connect 9 0 10 1;
#X connect 10 0 25 0;
#X connect 13 0 32 0;
#X connect 13 1 7 0;
#X connect 15 1 8 0;
#X connect 17 0 20 0;
#X connect 17 0 30 0;
#X connect 18 0 16 0;
#X connect 19 0 21 0;
#X connect 20 0 23 1;
#X connect 21 0 32 0;
#X connect 21 1 23 0;
#X connect 21 2 18 0;
#X connect 23 0 22 0;
#X connect 24 0 29 0;
#X connect 25 0 12 0;
#X connect 26 0 4 1;
#X connect 27 0 28 1;
#X connect 28 0 15 0;
#X connect 29 0 5 1;
#X connect 30 0 16 1;
#X connect 31 0 25 2;
#X connect 32 0 11 0;
#X connect 32 1 10 0;
#X connect 33 0 3 0;
#X restore 633 312 pd new/del_point;
#N canvas 613 230 507 526 init_pos 0;
#X obj 32 18 r \$0-INIT_XY;
#X obj 32 43 unpack f f;
#X msg 32 115 set \$1;
#X obj 32 140 s \$0-edit-X0-rcv;
#X msg 99 90 set \$1;
#X obj 99 115 s \$0-edit-Y0-rcv;
#X msg 219 72 set \$1;
#X obj 219 46 r \$0-INIT_ANGLE_DEG;
#X obj 219 101 s \$0-edit-A0-rcv;
#X obj 280 208 t b f;
#X obj 116 307 r \$0-INIT_XY;
#X obj 116 332 unpack f f;
#X obj 64 361 f;
#X obj 155 182 r \$0-edit-Y0-snd;
#X obj 32 182 r \$0-edit-X0-snd;
#X obj 32 230 t b f;
#X obj 155 230 t b f;
#X obj 64 386 pack f f f, f 36;
#X obj 244 308 r \$0-INIT_ANGLE_DEG;
#X obj 32 318 t b b;
#X listbox 64 411 20 0 0 0 - - - 0;
#X obj 280 183 r \$0-edit-A0-snd;
#X obj 64 437 text set \$0-SEQ 0;
#X obj 32 488 s \$0-recompute;
#X obj 32 464 speedlimm 20;
#X obj 32 79 - 3000;
#X obj 99 67 - 3000;
#X obj 32 206 + 3000;
#X obj 155 206 + 3000;
#X connect 0 0 1 0;
#X connect 1 0 25 0;
#X connect 1 1 26 0;
#X connect 2 0 3 0;
#X connect 4 0 5 0;
#X connect 6 0 8 0;
#X connect 7 0 6 0;
#X connect 9 0 19 0;
#X connect 9 1 17 2;
#X connect 10 0 11 0;
#X connect 11 0 12 1;
#X connect 11 1 17 1;
#X connect 12 0 17 0;
#X connect 13 0 28 0;
#X connect 14 0 27 0;
#X connect 15 0 19 0;
#X connect 15 1 12 1;
#X connect 16 0 19 0;
#X connect 16 1 17 1;
#X connect 17 0 20 0;
#X connect 18 0 17 2;
#X connect 19 0 24 0;
#X connect 19 1 12 0;
#X connect 20 0 22 0;
#X connect 21 0 9 0;
#X connect 24 0 23 0;
#X connect 25 0 2 0;
#X connect 26 0 4 0;
#X connect 27 0 15 0;
#X connect 28 0 16 0;
#X restore 633 339 pd init_pos;
#N canvas 787 381 508 576 link 0;
#X obj 64 44 r \$0-edit-link-snd;
#X obj 24 101 r \$0-edit-droite-snd;
#X obj 24 126 spigot;
#X obj 182 129 spigot;
#X obj 205 227 s \$0-edit-droite-rcv;
#X obj 182 104 r \$0-edit-gauche-snd;
#X obj 47 228 s \$0-edit-gauche-rcv;
#X obj 24 151 spigot 1;
#X obj 182 154 spigot 1;
#X obj 24 175 t b f b;
#X msg 24 200 1;
#X msg 70 199 0;
#X obj 182 178 t b f b;
#X msg 182 203 1;
#X msg 228 202 0;
#X obj 64 69 == 1;
#X obj 66 274 r \$0-edit-link-snd;
#X obj 26 331 r \$0-edit-droite-snd;
#X obj 26 356 spigot;
#X obj 184 359 spigot;
#X obj 207 485 s \$0-edit-droite-rcv;
#X obj 184 334 r \$0-edit-gauche-snd;
#X obj 49 486 s \$0-edit-gauche-rcv;
#X obj 26 381 spigot 1;
#X obj 184 384 spigot 1;
#X obj 26 405 t b f b;
#X msg 26 430 1;
#X msg 72 429 0;
#X obj 184 408 t b f b;
#X msg 184 433 1;
#X msg 230 432 0;
#X obj 66 299 == 2;
#X obj 49 460 * -1;
#X obj 205 459 * -1;
#X obj 365 41 r \$0-edit-n-snd;
#X msg 365 66 0;
#X obj 365 93 s \$0-edit-link-rcv;
#X connect 0 0 15 0;
#X connect 1 0 2 0;
#X connect 2 0 7 0;
#X connect 3 0 8 0;
#X connect 5 0 3 0;
#X connect 7 0 9 0;
#X connect 8 0 12 0;
#X connect 9 0 10 0;
#X connect 9 1 6 0;
#X connect 9 2 11 0;
#X connect 10 0 8 1;
#X connect 11 0 8 1;
#X connect 12 0 13 0;
#X connect 12 1 4 0;
#X connect 12 2 14 0;
#X connect 13 0 7 1;
#X connect 14 0 7 1;
#X connect 15 0 2 1;
#X connect 15 0 3 1;
#X connect 16 0 31 0;
#X connect 17 0 18 0;
#X connect 18 0 23 0;
#X connect 19 0 24 0;
#X connect 21 0 19 0;
#X connect 23 0 25 0;
#X connect 24 0 28 0;
#X connect 25 0 26 0;
#X connect 25 1 32 0;
#X connect 25 2 27 0;
#X connect 26 0 24 1;
#X connect 27 0 24 1;
#X connect 28 0 29 0;
#X connect 28 1 33 0;
#X connect 28 2 30 0;
#X connect 29 0 23 1;
#X connect 30 0 23 1;
#X connect 31 0 18 1;
#X connect 31 0 19 1;
#X connect 32 0 22 0;
#X connect 33 0 20 0;
#X connect 34 0 35 0;
#X connect 35 0 36 0;
#X restore 635 365 pd link;
#X connect 0 0 11 0;
#X connect 1 0 2 0;
#X connect 2 0 3 0;
#X connect 4 0 6 0;
#X connect 5 0 4 0;
#X connect 7 0 9 0;
#X connect 8 0 7 0;
#X connect 10 0 12 1;
#X connect 11 0 12 0;
#X connect 12 0 67 0;
#X connect 14 0 15 1;
#X connect 15 0 68 0;
#X connect 17 0 18 0;
#X connect 18 0 15 0;
#X connect 19 0 69 0;
#X connect 20 0 21 0;
#X connect 21 0 22 0;
#X connect 21 0 34 1;
#X connect 21 1 23 0;
#X connect 21 1 37 1;
#X connect 21 2 24 0;
#X connect 21 2 37 2;
#X connect 22 0 26 0;
#X connect 23 0 27 0;
#X connect 24 0 29 0;
#X connect 26 0 25 0;
#X connect 27 0 28 0;
#X connect 29 0 30 0;
#X connect 31 0 47 0;
#X connect 32 0 38 0;
#X connect 33 0 39 0;
#X connect 34 0 37 0;
#X connect 35 0 34 0;
#X connect 35 1 37 1;
#X connect 36 0 34 0;
#X connect 36 1 37 2;
#X connect 37 0 41 0;
#X connect 38 0 35 0;
#X connect 39 0 36 0;
#X connect 41 0 66 0;
#X connect 41 1 40 0;
#X connect 42 0 70 0;
#X connect 44 0 65 0;
#X connect 46 0 65 0;
#X connect 47 0 48 0;
#X connect 48 0 49 0;
#X connect 49 0 34 0;
#X connect 50 0 51 0;
#X connect 51 0 52 0;
#X connect 51 1 53 1;
#X connect 52 0 53 0;
#X connect 53 0 54 0;
#X connect 54 0 55 0;
#X connect 54 0 56 0;
#X connect 57 0 58 0;
#X connect 58 0 59 0;
#X connect 58 0 60 0;
#X connect 62 0 72 0;
#X connect 64 0 45 0;
#X connect 65 0 71 0;
#X connect 66 0 43 0;
#X connect 67 0 13 0;
#X connect 68 0 16 0;
#X connect 69 0 76 0;
#X connect 70 0 77 0;
#X connect 71 0 64 0;
#X connect 72 0 73 0;
#X connect 72 0 61 0;
#X connect 73 0 63 0;
#X connect 74 0 68 2;
#X connect 75 0 67 2;
#X connect 76 0 20 0;
#X connect 77 0 40 1;
#X restore 24 130 pd edit-stuff;
#N canvas 574 262 899 802 seq-stuff 0;
#X text 46 42 ms droite gauche;
#X floatatom 200 761 9 0 0 0 - - - 0;
#X obj 44 733 r \$0-X;
#X obj 132 735 r \$0-Y;
#X floatatom 44 758 7 0 0 0 - - - 0;
#X floatatom 132 760 7 0 0 0 - - - 0;
#X obj 190 115 compute_tables \$0;
#X obj 190 89 bng 20 250 50 0 empty empty empty 0 -10 0 12 #faff00 #000000 #000000;
#X obj 111 523 t f f f;
#X obj 157 553 tabread \$0-TAB_ANGLE-DEG;
#X obj 157 578 s \$0-ANGLE-DEG;
#X obj 111 665 tabread \$0-TAB_X;
#X obj 111 690 s \$0-X;
#X obj 134 608 tabread \$0-TAB_Y;
#X obj 134 633 s \$0-Y;
#X obj 165 222 r \$0-TOTAL_TIME;
#X msg 112 225 1;
#X obj 112 250 *;
#X obj 112 350 line, f 5;
#X floatatom 26 269 5 0 0 0 - - - 0;
#X floatatom 179 251 5 0 0 0 - - - 0;
#X msg 42 222 0.1;
#X msg 74 222 0.5;
#X obj 360 480 r \$0-COMPUTE_FINISH;
#X obj 200 736 r \$0-ANGLE-DEG;
#X obj 223 86 speedlimm 100;
#X obj 215 49 r \$0-recompute;
#X obj 356 170 r \$0-edit-n-ms;
#X msg 48 320 stop;
#X msg 47 466 1000;
#X floatatom 267 579 5 0 0 0 - - - 0;
#X msg 37 436 2230;
#X msg 25 497 1448;
#X obj 111 445 r \$0-current_time-snd;
#X obj 111 471 * 1000;
#X obj 111 496 / 10;
#X obj 358 61 r \$0-TOTAL_TIME;
#X obj 358 86 / 1000;
#X obj 358 137 s \$0-current_time-rcv;
#X msg 358 111 range 0 \$1;
#X obj 356 221 s \$0-current_time-rcv;
#X obj 356 195 / 1000;
#X obj 112 287 pack f f;
#X msg 112 324 0 \, \$2 \$1;
#X obj 112 401 s \$0-current_time-rcv;
#X obj 112 377 / 1000;
#X obj 111 197 r \$0-play_x1-snd;
#X obj 75 168 r \$0-play_x2-snd;
#X obj 42 142 r \$0-play_x10-snd;
#X obj 23 109 r \$0-play_stop-snd;
#X obj 360 434 s \$0-SEQ;
#X obj 360 371 savepanel;
#X obj 360 318 file patchpath;
#X msg 360 343 symbol \$1/sequences;
#X obj 360 260 r \$0-save-seq-snd;
#X msg 360 406 write \$1;
#X obj 586 442 s \$0-SEQ;
#X obj 554 311 file patchpath;
#X msg 554 336 symbol \$1/sequences;
#X obj 554 258 r \$0-load-seq-snd;
#X msg 586 414 read \$1;
#X obj 554 362 openpanel;
#X obj 554 388 t b s;
#X obj 554 467 s \$0-recompute;
#X obj 360 633 s \$0-SEQ;
#X obj 360 539 file patchpath;
#X msg 360 607 write \$1;
#X obj 360 510 del 500;
#X obj 658 542 file patchpath;
#X msg 658 607 read \$1;
#X obj 626 492 loadbang;
#X obj 697 490 bng 20 250 50 0 empty empty empty 0 -10 0 12 #fcfcfc #000000 #000000;
#X obj 46 62 text define \$0-SEQ;
#X obj 328 715 tabread \$0-TAB_MOTD;
#X obj 470 714 tabread \$0-TAB_MOTG;
#X floatatom 470 739 10 0 0 0 - - - 0;
#X floatatom 328 740 9 0 0 0 - - - 0;
#X obj 328 690 t f f, f 20;
#X obj 189 502 s \$0-current_time-rcv;
#X msg 189 477 set \$1;
#X obj 554 285 del 50;
#X obj 360 289 del 50;
#X msg 360 564 symbol \$1/patch/edit/current_sequence.txt, f 35;
#X msg 658 567 symbol \$1/patch/edit/current_sequence.txt, f 34;
#X obj 626 516 t b b;
#X obj 626 641 s \$0-recompute;
#X obj 215 299 * 10;
#X obj 215 324 change;
#X floatatom 283 357 5 0 0 0 - - - 0;
#X obj 215 274 r \$0-REAL_STEP-snd;
#X obj 727 509 bng 20 250 50 0 empty empty empty 0 -10 0 12 #fcfcfc #000000 #000000;
#X connect 2 0 4 0;
#X connect 3 0 5 0;
#X connect 7 0 6 0;
#X connect 8 0 11 0;
#X connect 8 1 13 0;
#X connect 8 2 9 0;
#X connect 8 2 77 0;
#X connect 9 0 10 0;
#X connect 11 0 12 0;
#X connect 13 0 14 0;
#X connect 15 0 17 1;
#X connect 15 0 20 0;
#X connect 15 0 42 1;
#X connect 16 0 17 0;
#X connect 17 0 19 0;
#X connect 17 0 42 0;
#X connect 18 0 45 0;
#X connect 21 0 17 0;
#X connect 22 0 17 0;
#X connect 23 0 67 0;
#X connect 24 0 1 0;
#X connect 25 0 7 0;
#X connect 26 0 7 0;
#X connect 27 0 41 0;
#X connect 28 0 18 0;
#X connect 29 0 8 0;
#X connect 30 0 10 0;
#X connect 31 0 8 0;
#X connect 32 0 8 0;
#X connect 33 0 34 0;
#X connect 33 0 79 0;
#X connect 34 0 35 0;
#X connect 35 0 8 0;
#X connect 36 0 37 0;
#X connect 37 0 39 0;
#X connect 39 0 38 0;
#X connect 41 0 40 0;
#X connect 42 0 43 0;
#X connect 43 0 18 0;
#X connect 45 0 44 0;
#X connect 46 0 16 0;
#X connect 47 0 22 0;
#X connect 48 0 21 0;
#X connect 49 0 28 0;
#X connect 51 0 55 0;
#X connect 52 0 53 0;
#X connect 53 0 51 0;
#X connect 54 0 81 0;
#X connect 55 0 50 0;
#X connect 57 0 58 0;
#X connect 58 0 61 0;
#X connect 59 0 80 0;
#X connect 60 0 56 0;
#X connect 61 0 62 0;
#X connect 62 0 63 0;
#X connect 62 1 60 0;
#X connect 65 0 82 0;
#X connect 66 0 64 0;
#X connect 67 0 65 0;
#X connect 68 0 83 0;
#X connect 69 0 64 0;
#X connect 70 0 84 0;
#X connect 71 0 84 0;
#X connect 72 1 7 0;
#X connect 73 0 76 0;
#X connect 74 0 75 0;
#X connect 77 0 73 0;
#X connect 77 1 74 0;
#X connect 79 0 78 0;
#X connect 80 0 57 0;
#X connect 81 0 52 0;
#X connect 82 0 66 0;
#X connect 83 0 69 0;
#X connect 84 0 85 0;
#X connect 84 1 68 0;
#X connect 86 0 87 0;
#X connect 87 0 18 0;
#X connect 89 0 86 0;
#X connect 89 0 88 0;
#X connect 90 0 68 0;
#X restore 24 182 pd seq-stuff;
#N canvas 386 87 565 564 \$0-EDIT 1;
#X obj 10 8 cnv 20 540 550 empty empty Igloo\ -\ édition\ trajectoire 10 15 2 24 #e0e0e0 #404040 0;
#X obj 21 173 bng 50 250 50 0 \$0-edit-down-snd \$0-edit-down-rcv < 17 25 0 30 #c6feff #000000 #000000;
#X obj 73 173 nbx 3 50 1 33 0 0 \$0-edit-n-snd \$0-edit-n-rcv empty 0 -10 0 18 #c6feff #000000 #000000 0 256;
#X obj 240 173 bng 50 250 50 0 \$0-edit-up-snd \$0-edit-up-rcv > 17 25 0 30 #c6feff #000000 #000000;
#X obj 23 232 hsl 200 50 0.5 60 1 0 \$0-edit-time-snd \$0-edit-time-rcv durée 20 25 0 16 #c7c6ff #000000 #000000 0 1;
#X obj 228 232 nbx 5 50 0 120 0 0 \$0-edit-time-snd \$0-edit-time-rcv s 110 25 0 18 #c7c6ff #000000 #000000 0 256;
#X obj 23 286 hsl 200 50 -439.823 439.823 0 0 \$0-edit-droite-snd \$0-edit-droite-rcv vitesse\ droite 20 25 0 16 #e3c6ff #000000 #000000 0 1;
#X obj 228 286 nbx 5 50 -439.823 439.823 0 0 \$0-edit-droite-snd \$0-edit-droite-rcv mm/sec 110 25 0 18 #e3c6ff #000000 #000000 0 256;
#X obj 23 340 hsl 200 50 -439.823 439.823 0 0 \$0-edit-gauche-snd \$0-edit-gauche-rcv vitesse\ gauche 20 25 0 16 #e3c6ff #000000 #000000 0 1;
#X obj 228 340 nbx 5 50 -439.823 439.823 0 0 \$0-edit-gauche-snd \$0-edit-gauche-rcv mm/sec 110 25 0 18 #e3c6ff #000000 #000000 0 256;
#X obj 23 415 hsl 200 50 0 158.59 0 0 \$0-current_time-snd \$0-current_time-rcv temps\ actuel 20 25 0 16 #fcfcfc #000000 #000000 0 1;
#X obj 230 415 nbx 5 50 0 158.59 0 0 \$0-current_time-snd \$0-current_time-rcv s 110 25 0 18 #fcfcfc #000000 #000000 0 256;
#X obj 20 477 bng 50 250 50 0 \$0-play_x1-snd \$0-play_x1-rcv PLAY 5 25 0 16 #ffffff #000000 #000000;
#X obj 75 477 bng 50 250 50 0 \$0-play_x2-snd \$0-play_x2-rcv X2 5 25 0 16 #ffffff #000000 #000000;
#X obj 129 477 bng 50 250 50 0 \$0-play_x10-snd \$0-play_x10-rcv X10 5 25 0 16 #ffffff #000000 #000000;
#X obj 183 477 bng 50 250 50 0 \$0-play_stop-snd \$0-play_stop-rcv STOP 5 25 0 16 #000000 #ffffff #ffffff;
#X obj 252 478 bng 50 250 50 0 \$0-load-seq-snd \$0-load-seq-rcv LOAD 5 25 0 16 #00ff04 #000000 #000000;
#X obj 310 478 bng 50 250 50 0 \$0-save-seq-snd \$0-save-seq-rcv SAVE 5 25 0 16 #ff0400 #000000 #000000;
#X obj 160 173 nbx 3 50 0 12 0 0 \$0-edit-totaln-snd \$0-edit-totaln-rcv / -10 25 0 18 #bbbbbb #000000 #000000 0 256;
#X obj 160 173 nbx 3 50 0 12 0 0 \$0-edit-totaln-snd \$0-edit-totaln-rcv / -10 25 0 18 #dfdfdf #000000 #000000 0 256;
#X obj 392 414 nbx 5 50 0 120 0 0 \$0-edit-totaltime-snd- \$0-edit-totaltime-rcv- empty 110 25 0 18 #dfdfdf #000000 #000000 0 256;
#X obj 392 414 nbx 5 50 0 120 0 0 \$0-edit-totaltime-snd \$0-edit-totaltime-rcv temps\ total(s) 0 -15 0 18 #ff8300 #000000 #000000 0 256;
#X obj 311 148 cnv 20 180 80 empty empty nouveau\ point 5 12 0 14 #7c7c7c #ffffff 0;
#X obj 316 172 bng 50 250 50 0 \$0-edit-newpoint-snd \$0-edit-newpoint-rcv avant 2 25 0 14 #feffc6 #000000 #000000;
#X obj 371 172 bng 50 250 50 0 \$0-edit-newpoint-after-snd \$0-edit-newpoint-after-rcv apres 5 25 0 14 #feffc6 #000000 #000000;
#X obj 20 34 cnv 20 170 130 empty empty Position\ de\ départ 10 12 0 14 #bbbbbb #000000 0;
#X obj 23 59 nbx 4 30 -6000 6000 0 0 \$0-edit-X0-snd \$0-edit-X0-rcv X0(mm) 85 15 0 18 #c6ffc7 #000000 #000000 0 256;
#X obj 23 93 nbx 4 30 -6000 6000 0 0 \$0-edit-Y0-snd \$0-edit-Y0-rcv Y0(mm) 85 15 0 18 #c6ffc7 #000000 #000000 0 256;
#X obj 23 131 nbx 4 30 -6000 6000 0 0 \$0-edit-A0-snd \$0-edit-A0-rcv A0(deg) 85 15 0 18 #c6ffc7 #000000 #000000 0 256;
#X obj 437 172 bng 50 250 50 0 \$0-edit-delpoint-snd \$0-edit-delpoint-rcv suppr 5 25 0 14 #ff0400 #000000 #000000;
#X obj 414 294 vradio 30 1 0 3 \$0-edit-link-snd \$0-edit-link-rcv droite/gauche 0 -10 0 12 #fcfcfc #000000 #000000 0;
#X text 444 300 indépendants;
#X text 446 329 égaux;
#X text 445 359 inverses;
#X text 332 39 shift + drag = fine !!;
#X restore 171 102 pd \$0-EDIT;
#X obj 207 159 r \$0-edit-show-snd;
#X msg 207 184 vis 1;
#X obj 207 209 s pd-\$0-EDIT;
#X obj 25 3 declare -path patch/edit;
#X obj 25 26 declare -path patch/driver;
#X obj 24 214 driver \$0;
#X connect 7 0 8 0;
#X connect 8 0 9 0;
#X restore 164 763 pd STUFF;
#X msg 146 185 60;
#X msg 101 184 90;
#X obj 227 122 bng 50 250 50 0 \$0-BACK-snd \$0-BACK-rcv BACK 5 25 0 16 #9f9f9f #000000 #000000;
#X obj 422 19 tgl 50 0 \$0-open-window-snd \$0-open-window-rcv VIEW 5 25 0 16 #faff00 #000000 #000000 0 1;
#X msg 190 184 20;
#X obj 452 310 nbx 6 18 0 158.58 0 0 \$0-POSITION-snd \$0-POSITION-rcv empty 0 -10 0 12 #fcfcfc #000000 #000000 0 256;
#X obj 35 549 cnv 20 480 95 empty \$0-MANUAL_STOP_AT-can STOP\ AT\ (STOPPED!) 10 12 0 14 #fc2828 #404040 0;
#X msg 425 613 -1;
#X obj 236 566 bng 40 250 50 0 empty empty empty 0 -10 0 12 #faff00 #000000 #000000;
#X obj 425 567 bng 40 250 50 0 empty empty empty 0 -10 0 12 #00ff04 #000000 #000000;
#X obj 53 617 nbx 5 20 -1e+37 1e+37 0 0 \$0-MANUAL_STOP_AT empty STOP_AT 70 10 0 12 #fcfcfc #000000 #000000 0 256;
#X msg 236 611 85;
#X obj 304 567 bng 40 250 50 0 empty empty empty 0 -10 0 12 #faff00 #000000 #000000;
#X msg 307 613 99;
#X obj 369 567 bng 40 250 50 0 empty empty empty 0 -10 0 12 #faff00 #000000 #000000;
#X msg 372 613 120;
#X text 234 548 diago;
#X text 302 546 fond;
#X text 365 547 centre;
#X text 423 547 fin;
#X msg 288 272 85;
#X msg 359 274 99;
#X msg 424 274 120;
#X text 287 253 diago;
#X text 355 251 fond;
#X text 418 252 centre;
#X connect 28 0 30 0;
#X connect 31 0 28 0;
#X connect 35 0 30 0;
#X connect 36 0 30 0;
#X connect 39 0 30 0;
#X connect 42 0 45 0;
#X connect 43 0 46 0;
#X connect 43 0 13 0;
#X connect 44 0 42 0;
#X connect 46 0 45 0;
#X connect 47 0 48 0;
#X connect 48 0 45 0;
#X connect 49 0 50 0;
#X connect 50 0 45 0;
#X connect 55 0 40 0;
#X connect 56 0 40 0;
#X connect 57 0 40 0;
