#N canvas 429 43 1058 769 12;
#X obj 46 62 text define -k \$0-SEQ;
#A set 500 0 0 \; 5030 -0.136935 -0.0464824 \; 12940 -0.164573 -0.0917085 \; 7940 0.194724 -0.25 \; 16740 -0.0138191 -0.179648 \; 13810 -0.192211 -0.0389447 \; 12850 0.169598 -0.25 \; 7950 -0.23995 -0.00376884 \; 7220 0.00376884 -0.25 \; 11670 -0.214824 0.172111 \; 26450 0.0816583 -0.25 \; 13180 -0.234925 0.106784 \; 1400 -0.0439698 -0.179648 \; 2110 0 0 \;;
#X obj 434 90 v \$0-DIST_ROUES;
#X obj 352 20 loadbang;
#X msg 434 57 2400;
#X obj 393 121 v \$0-INIT_ANGLE_DEG;
#X text 46 42 ms droite gauche;
#X floatatom 188 720 9 0 0 0 - - - 0;
#X obj 32 692 r \$0-X;
#X obj 120 694 r \$0-Y;
#X floatatom 32 717 7 0 0 0 - - - 0;
#X floatatom 120 719 7 0 0 0 - - - 0;
#X obj 46 179 visu \$0;
#X msg 393 93 90;
#X obj 352 180 s \$0-INIT_XY;
#X obj 190 115 compute_tables \$0;
#X obj 608 104 table \$0-TAB_MOTD;
#X obj 608 128 table \$0-TAB_MOTG;
#X obj 607 178 table \$0-TAB_X;
#X obj 607 201 table \$0-TAB_Y;
#X obj 607 154 table \$0-TAB_ANGLE-DEG;
#X obj 190 89 bng 20 250 50 0 empty empty empty 0 -10 0 12 #faff00 #000000 #000000;
#X obj 115 377 hsl 170 20 0 1 0 0 empty empty empty -2 -10 0 12 #fcfcfc #000000 #000000 0 1;
#X obj 112 480 t f f f;
#X obj 158 510 tabread \$0-TAB_ANGLE-DEG;
#X obj 158 535 s \$0-ANGLE-DEG;
#X obj 112 622 tabread \$0-TAB_X;
#X obj 112 647 s \$0-X;
#X obj 135 565 tabread \$0-TAB_Y;
#X obj 135 590 s \$0-Y;
#X obj 162 246 r \$0-TOTAL_TIME;
#X msg 112 249 1;
#X obj 112 274 *;
#X obj 112 350 line;
#X msg 112 324 0 \, 1 \$1;
#X floatatom 167 299 5 0 0 0 - - - 0;
#X floatatom 162 271 5 0 0 0 - - - 0;
#X msg 42 246 0.1;
#X msg 74 246 0.5;
#X obj 607 225 table \$0-TAB_Z;
#X obj 223 320 r \$0-COMPUTE_FINISH;
#X obj 188 695 r \$0-ANGLE-DEG;
#X msg 352 155 3750 3500;
#X listbox 529 540 20 0 0 0 - - - 24;
#X obj 529 464 text get \$0-SEQ;
#X obj 529 489 list prepend set;
#X obj 529 514 list trim;
#X floatatom 529 395 5 0 0 0 - - - 0;
#X obj 529 429 t f f;
#X obj 561 611 text set \$0-SEQ;
#X obj 530 368 hradio 20 1 0 8 empty empty empty 0 -10 0 12 #fcfcfc #000000 #000000 0;
#X obj 529 585 t b a;
#X msg 489 27 10;
#X obj 489 55 v \$0-TAB_STEP_MS;
#X obj 112 448 * 1600;
#X msg 528 25 1;
#X msg 683 21 10;
#X msg 722 19 1;
#X msg 639 22 100;
#X floatatom 671 50 5 0 0 0 - - - 0;
#X obj 671 74 t b f;
#X floatatom 24 498 5 0 0 0 - - - 0;
#X obj 167 448 r \$0-TAB_LENGTH;
#X obj 490 669 speedlimm 100;
#X obj 448 615 speedlimm 100;
#X text 857 36 nominal:;
#X text 858 61 60 tr/mn;
#N canvas 198 14 738 970 edit 1;
#X obj 48 38 bng 50 250 50 0 \$0-edit-down-snd \$0-edit-down-rcv down 5 25 0 14 #fcfcfc #000000 #000000;
#X obj 100 38 nbx 5 50 0 12 0 0 \$0-edit-n-snd \$0-edit-n-rcv empty 0 -10 0 18 #fcfcfc #000000 #000000 0 256;
#X obj 40 394 r \$0-edit-down-snd;
#X obj 208 38 bng 50 250 50 0 \$0-edit-up-snd \$0-edit-up-rcv up 5 25 0 14 #fcfcfc #000000 #000000;
#X obj 50 97 hsl 200 50 0.5 60 1 0 \$0-edit-time-snd \$0-edit-time-rcv time 20 25 0 16 #fcfcfc #000000 #000000 0 1;
#X obj 255 97 nbx 5 50 0 120 0 0 \$0-edit-time-snd \$0-edit-time-rcv s 110 25 0 18 #fcfcfc #000000 #000000 0 256;
#X obj 37 294 r \$0-edit-time-snd;
#X msg 37 319 set \$1;
#X obj 37 343 s \$0-edit-time-rcv;
#X obj 50 151 hsl 200 50 -250 250 0 0 \$0-edit-droite-snd \$0-edit-droite-rcv droite 20 25 0 16 #fcfcfc #000000 #000000 0 1;
#X obj 255 151 nbx 5 50 -80 80 0 0 \$0-edit-droite-snd \$0-edit-droite-rcv mm/sec 110 25 0 18 #fcfcfc #000000 #000000 0 256;
#X msg 179 315 set \$1;
#X obj 179 290 r \$0-edit-droite-snd;
#X obj 179 339 s \$0-edit-droite-rcv;
#X obj 50 205 hsl 200 50 -250 250 0 0 \$0-edit-gauche-snd \$0-edit-gauche-rcv gauche 20 25 0 16 #fcfcfc #000000 #000000 0 1;
#X obj 255 205 nbx 5 50 -80 80 0 0 \$0-edit-gauche-snd \$0-edit-gauche-rcv mm/sec 110 25 0 18 #fcfcfc #000000 #000000 0 256;
#X msg 333 315 set \$1;
#X obj 333 290 r \$0-edit-gauche-snd;
#X obj 333 339 s \$0-edit-gauche-rcv;
#X obj 75 444 r \$0-edit-n-snd;
#X obj 100 469 text size \$0-SEQ;
#X obj 40 419 t b b;
#X msg 40 444 -1;
#X obj 40 469 +;
#X obj 40 519 clip 0 12;
#X obj 40 545 s \$0-edit-n-rcv;
#X obj 260 442 r \$0-edit-n-snd;
#X obj 285 467 text size \$0-SEQ;
#X obj 225 417 t b b;
#X obj 225 467 +;
#X obj 225 517 clip 0 12;
#X obj 225 543 s \$0-edit-n-rcv;
#X obj 225 392 r \$0-edit-up-snd;
#X msg 225 442 1;
#X obj 41 578 r \$0-edit-n-snd;
#X obj 41 603 text get \$0-SEQ;
#X obj 41 628 unpack f f f, f 44;
#X obj 41 653 / 1000;
#X obj 193 653 * 1000;
#X obj 346 653 * 1000;
#X obj 41 705 s \$0-edit-time-rcv;
#X msg 41 678 set \$1;
#X msg 193 677 set \$1;
#X obj 193 704 s \$0-edit-droite-rcv;
#X msg 346 677 set \$1;
#X obj 346 704 s \$0-edit-gauche-rcv;
#X obj 100 494 - 1;
#X obj 285 492 - 1;
#X obj 41 750 r \$0-edit-time-snd;
#X obj 184 750 r \$0-edit-droite-snd;
#X obj 340 750 r \$0-edit-gauche-snd;
#X obj 41 851 f;
#X obj 184 797 t b f;
#X obj 340 797 t b f;
#X obj 41 876 pack f f f, f 48;
#X obj 184 774 / 1000;
#X obj 340 774 / 1000;
#X obj 150 929 text set \$0-SEQ;
#X obj 41 901 t b a, f 16;
#X obj 41 931 speedlimm 100;
#X obj 184 903 r \$0-edit-n-snd;
#X obj 41 956 s \$0-recompute;
#X obj 504 369 r \$0-edit-n-snd;
#X msg 566 468 line 0;
#X obj 524 526 text sequence \$0-SEQ;
#X obj 524 469 until;
#X msg 524 495 step;
#X obj 524 551 list split 1;
#X obj 524 576 +;
#X obj 562 575 f;
#X msg 562 502 0;
#X obj 504 437 t b f b b;
#X obj 504 601 f, f 10;
#X obj 504 628 s \$0-edit-n-ms;
#X floatatom 561 669 5 0 0 0 - - - 0;
#X obj 504 411 + 1;
#X obj 545 287 r \$0-COMPUTE_FINISH;
#X obj 509 54 r \$0-TOTAL_TIME;
#X obj 509 79 / 1000;
#X floatatom 509 104 5 0 0 0 - - - 0;
#X obj 41 774 * 100;
#X obj 41 801 i;
#X obj 41 826 * 10;
#X connect 2 0 21 0;
#X connect 6 0 7 0;
#X connect 7 0 8 0;
#X connect 11 0 13 0;
#X connect 12 0 11 0;
#X connect 16 0 18 0;
#X connect 17 0 16 0;
#X connect 19 0 23 1;
#X connect 20 0 46 0;
#X connect 21 0 22 0;
#X connect 21 1 20 0;
#X connect 22 0 23 0;
#X connect 23 0 24 0;
#X connect 24 0 25 0;
#X connect 26 0 29 1;
#X connect 27 0 47 0;
#X connect 28 0 33 0;
#X connect 28 1 27 0;
#X connect 29 0 30 0;
#X connect 30 0 31 0;
#X connect 32 0 28 0;
#X connect 33 0 29 0;
#X connect 34 0 35 0;
#X connect 35 0 36 0;
#X connect 36 0 37 0;
#X connect 36 0 51 1;
#X connect 36 1 38 0;
#X connect 36 1 54 1;
#X connect 36 2 39 0;
#X connect 36 2 54 2;
#X connect 37 0 41 0;
#X connect 38 0 42 0;
#X connect 39 0 44 0;
#X connect 41 0 40 0;
#X connect 42 0 43 0;
#X connect 44 0 45 0;
#X connect 46 0 24 2;
#X connect 47 0 30 2;
#X connect 48 0 80 0;
#X connect 49 0 55 0;
#X connect 50 0 56 0;
#X connect 51 0 54 0;
#X connect 52 0 51 0;
#X connect 52 1 54 1;
#X connect 53 0 51 0;
#X connect 53 1 54 2;
#X connect 54 0 58 0;
#X connect 55 0 52 0;
#X connect 56 0 53 0;
#X connect 58 0 59 0;
#X connect 58 1 57 0;
#X connect 59 0 61 0;
#X connect 60 0 57 1;
#X connect 62 0 75 0;
#X connect 63 0 64 0;
#X connect 64 0 67 0;
#X connect 65 0 66 0;
#X connect 66 0 64 0;
#X connect 67 0 68 0;
#X connect 68 0 69 0;
#X connect 69 0 68 1;
#X connect 69 0 72 1;
#X connect 70 0 69 0;
#X connect 71 0 72 0;
#X connect 71 1 65 0;
#X connect 71 2 70 0;
#X connect 71 3 63 0;
#X connect 72 0 73 0;
#X connect 72 0 74 0;
#X connect 75 0 71 0;
#X connect 76 0 75 0;
#X connect 77 0 78 0;
#X connect 78 0 79 0;
#X connect 80 0 81 0;
#X connect 81 0 82 0;
#X connect 82 0 51 0;
#X restore 724 460 pd edit;
#X obj 46 148 bng 20 250 50 0 empty empty open\ window 0 -10 0 12 #00ff04 #000000 #000000;
#X obj 215 49 r \$0-recompute;
#X obj 335 427 r \$0-edit-n-ms;
#X obj 303 452 / 10;
#X floatatom 320 479 5 0 0 0 - - - 0;
#X text 858 81 80 mm diametre;
#X text 858 100 soit 251 mm/s;
#X text 858 122 soit 0.251 mm/ms;
#X connect 0 1 20 0;
#X connect 2 0 3 0;
#X connect 2 0 12 0;
#X connect 2 0 41 0;
#X connect 2 0 51 0;
#X connect 3 0 1 0;
#X connect 7 0 9 0;
#X connect 8 0 10 0;
#X connect 12 0 4 0;
#X connect 20 0 14 0;
#X connect 21 0 53 0;
#X connect 22 0 25 0;
#X connect 22 1 27 0;
#X connect 22 2 23 0;
#X connect 23 0 24 0;
#X connect 25 0 26 0;
#X connect 27 0 28 0;
#X connect 29 0 31 1;
#X connect 29 0 35 0;
#X connect 30 0 31 0;
#X connect 31 0 33 0;
#X connect 31 0 34 0;
#X connect 32 0 21 0;
#X connect 33 0 32 0;
#X connect 36 0 31 0;
#X connect 37 0 31 0;
#X connect 40 0 6 0;
#X connect 41 0 13 0;
#X connect 42 0 50 0;
#X connect 43 0 44 0;
#X connect 44 0 45 0;
#X connect 45 0 42 0;
#X connect 46 0 47 0;
#X connect 47 0 43 0;
#X connect 47 1 48 1;
#X connect 49 0 46 0;
#X connect 50 0 63 0;
#X connect 50 1 48 0;
#X connect 51 0 52 0;
#X connect 53 0 22 0;
#X connect 53 0 60 0;
#X connect 54 0 52 0;
#X connect 55 0 58 0;
#X connect 56 0 58 0;
#X connect 57 0 58 0;
#X connect 58 0 59 0;
#X connect 59 0 20 0;
#X connect 59 1 52 0;
#X connect 61 0 53 1;
#X connect 63 0 20 0;
#X connect 67 0 11 0;
#X connect 68 0 20 0;
#X connect 69 0 70 0;
#X connect 70 0 22 0;
#X connect 70 0 71 0;
