#N canvas 1038 584 450 300 12;
#X obj 47 186 mesh_line 2;
#X obj 139 160 loadbang;
#X msg 139 185 100;
#X obj 121 9 loadbang;
#X obj 121 34 f \$1;
#X obj 47 89 translate 0.2 0 1 0;
#X obj 47 22 r \$2;
#X obj 121 59 * \$3;
#X obj 47 56 separator;
#X obj 47 138 colorRGB 1 1 1 \$4;
#X obj 218 48 r \$2-col;
#X obj 218 73 unpack f f f;
#X connect 1 0 2 0;
#X connect 2 0 0 1;
#X connect 3 0 4 0;
#X connect 4 0 7 0;
#X connect 5 0 9 0;
#X connect 6 0 8 0;
#X connect 7 0 5 1;
#X connect 8 0 5 0;
#X connect 9 0 0 0;
#X connect 10 0 11 0;
#X connect 11 0 9 1;
#X connect 11 1 9 2;
#X connect 11 2 9 3;
