#N canvas 514 324 259 225 12;
#X obj 50 22 inlet count;
#X obj 50 47 t f f b, f 9;
#X obj 50 93 until;
#X obj 50 118 f;
#X obj 84 118 + 1;
#X msg 97 92 0;
#X obj 50 143 /;
#X obj 50 168 outlet;
#X connect 0 0 1 0;
#X connect 1 0 2 0;
#X connect 1 1 6 1;
#X connect 1 2 5 0;
#X connect 2 0 3 0;
#X connect 3 0 4 0;
#X connect 3 0 6 0;
#X connect 4 0 3 1;
#X connect 5 0 3 1;
#X connect 6 0 7 0;
