#N canvas 766 80 634 400 12;
#X declare -path Gem -lib Gem;
#X obj 46 17 declare -path Gem -lib Gem;
#X obj 51 136 gemhead;
#X obj 286 197 gemwin;
#X msg 309 161 0 \, destroy;
#N canvas 633 351 547 554 grid 0;
#X obj 38 7 inlet;
#X obj 159 109 s \$0-gridhead;
#X obj 127 189 s \$0-gridhead2;
#X obj 127 163 rotate -90 0 0 1;
#X obj 127 135 separator;
#X obj 159 81 separator;
#X obj 38 35 t a a a;
#X obj 71 287 separator;
#X obj 39 261 t a a;
#X obj 71 313 s \$0-tourhead;
#X obj 219 293 s \$0-tourhead-col;
#X msg 219 266 0.1 0.6 0.1;
#X obj 258 80 clone grid_abs 6 \$0-gridhead 1 1;
#X obj 259 113 clone grid_abs 30 \$0-gridhead 0.2 0.2;
#X obj 39 343 separator;
#X obj 219 241 loadbang;
#X obj 353 292 s \$0-tourhead2-col;
#X obj 39 369 rotate -90 0 0 1;
#X obj 39 396 s \$0-tourhead2;
#X obj 260 165 clone grid_abs 8 \$0-gridhead2 1 1;
#X obj 261 198 clone grid_abs 40 \$0-gridhead2 0.2 0.2;
#X obj 191 331 clone grid_abs 3 \$0-tourhead 6 1;
#X obj 191 379 clone grid_abs 3 \$0-tourhead2 6 1;
#X connect 0 0 6 0;
#X connect 3 0 2 0;
#X connect 4 0 3 0;
#X connect 5 0 1 0;
#X connect 6 0 8 0;
#X connect 6 1 4 0;
#X connect 6 2 5 0;
#X connect 7 0 9 0;
#X connect 8 0 14 0;
#X connect 8 1 7 0;
#X connect 11 0 10 0;
#X connect 11 0 16 0;
#X connect 14 0 17 0;
#X connect 15 0 11 0;
#X connect 17 0 18 0;
#X restore 410 281 pd grid;
#X obj 51 167 alpha;
#N canvas 743 346 496 495 current_pos 0;
#X obj 75 121 translateXYZ;
#X floatatom 104 79 5 0 0 0 - - - 0;
#X floatatom 152 79 5 0 0 0 - - - 0;
#X obj 205 53 r \$1-X;
#X obj 291 50 r \$1-Y;
#X obj 291 75 / 1000;
#X obj 192 84 / 1000;
#X obj 75 164 rotate 0 0 0 1;
#X obj 227 126 r \$1-ANGLE-DEG;
#X obj 107 299 pix_image igloo.png;
#X obj 107 324 pix_texture;
#X obj 75 199 t a a;
#X obj 107 349 rectangle 1.2 0.6;
#X obj 75 386 colorRGB 0.5 0.5 1 1;
#X obj 107 224 separator;
#X obj 107 274 colorRGB 1 0.5 1 1;
#X floatatom 207 203 5 0 0 0 - - - 0;
#X obj 227 151 - 90;
#X obj 107 249 translateXYZ 0 -0.55 0;
#X obj 66 441 circle 0.1;
#X obj 75 43 separator;
#X obj 75 12 inlet;
#X connect 0 0 7 0;
#X connect 1 0 0 1;
#X connect 2 0 0 2;
#X connect 3 0 6 0;
#X connect 4 0 5 0;
#X connect 5 0 0 2;
#X connect 6 0 0 1;
#X connect 7 0 11 0;
#X connect 8 0 17 0;
#X connect 9 0 10 0;
#X connect 10 0 12 0;
#X connect 11 0 13 0;
#X connect 11 1 14 0;
#X connect 13 0 19 0;
#X connect 14 0 18 0;
#X connect 15 0 9 0;
#X connect 16 0 18 2;
#X connect 17 0 7 1;
#X connect 18 0 15 0;
#X connect 20 0 0 0;
#X connect 21 0 20 0;
#X restore 110 280 pd current_pos;
#N canvas 395 343 689 344 path 0;
#X obj 51 37 inlet;
#X obj 51 62 separator;
#X obj 51 270 gemvertexbuffer;
#X obj 51 124 scaleXYZ 0.001 0.001 0.001;
#X obj 277 92 symbol \$1-TAB_X;
#X obj 393 92 symbol \$1-TAB_Y;
#X obj 277 117 pack s s s, f 33;
#X obj 509 94 symbol \$1-TAB_Z;
#X obj 277 64 t b b b, f 33;
#X msg 277 142 position \$1 \$2 \$3;
#X obj 277 37 bng 20 250 50 0 empty empty empty 0 -10 0 12 #fcfcfc #000000 #000000;
#X msg 277 209 draw linestrip \, width 3;
#X obj 51 93 colorRGB 0.7 0.4 0 1;
#X obj 277 182 loadbang;
#X obj 323 36 r \$1-COMPUTE_FINISH;
#X msg 284 250 draw quad;
#X connect 0 0 1 0;
#X connect 1 0 12 0;
#X connect 3 0 2 0;
#X connect 4 0 6 0;
#X connect 5 0 6 1;
#X connect 6 0 9 0;
#X connect 7 0 6 2;
#X connect 8 0 4 0;
#X connect 8 1 5 0;
#X connect 8 2 7 0;
#X connect 9 0 2 0;
#X connect 10 0 8 0;
#X connect 11 0 2 0;
#X connect 12 0 3 0;
#X connect 13 0 11 0;
#X connect 14 0 8 0;
#X connect 15 0 2 0;
#X restore 52 278 pd path;
#N canvas 743 346 752 507 startend_pos 0;
#X obj 75 228 translateXYZ;
#X obj 157 201 / 1000;
#X obj 102 202 / 1000;
#X obj 75 254 rotate 0 0 0 1, f 27;
#X obj 75 393 pix_image igloo.png;
#X obj 75 418 pix_texture;
#X obj 75 443 rectangle 1.2 0.6;
#X floatatom 175 313 5 0 0 0 - - - 0;
#X obj 212 201 - 90;
#X obj 75 343 translateXYZ 0 -0.55 0;
#X obj 75 91 separator;
#X obj 75 12 inlet;
#X obj 75 42 t a a, f 41;
#X obj 396 9 r \$1-COMPUTE_FINISH;
#X obj 102 125 tabread \$1-TAB_X;
#X obj 157 149 tabread \$1-TAB_Y;
#X obj 212 175 tabread \$1-TAB_ANGLE-DEG;
#X obj 402 234 translateXYZ;
#X obj 484 207 / 1000;
#X obj 429 208 / 1000;
#X obj 402 260 rotate 0 0 0 1, f 27;
#X obj 539 207 - 90;
#X obj 402 97 separator;
#X obj 429 131 tabread \$1-TAB_X;
#X obj 484 155 tabread \$1-TAB_Y;
#X obj 539 181 tabread \$1-TAB_ANGLE-DEG;
#X msg 212 91 0;
#X obj 524 93 f;
#X floatatom 578 118 5 0 0 0 - - - 0;
#X obj 75 368 colorRGB 0.5 0.5 1 0.35;
#X obj 542 68 r \$1-TAB_LENGTH;
#X connect 0 0 3 0;
#X connect 1 0 0 2;
#X connect 2 0 0 1;
#X connect 3 0 9 0;
#X connect 4 0 5 0;
#X connect 5 0 6 0;
#X connect 7 0 9 2;
#X connect 8 0 3 1;
#X connect 9 0 29 0;
#X connect 10 0 0 0;
#X connect 11 0 12 0;
#X connect 12 0 10 0;
#X connect 12 1 22 0;
#X connect 13 0 26 0;
#X connect 13 0 27 0;
#X connect 14 0 2 0;
#X connect 15 0 1 0;
#X connect 16 0 8 0;
#X connect 17 0 20 0;
#X connect 18 0 17 2;
#X connect 19 0 17 1;
#X connect 20 0 9 0;
#X connect 21 0 20 1;
#X connect 22 0 17 0;
#X connect 23 0 19 0;
#X connect 24 0 18 0;
#X connect 25 0 21 0;
#X connect 26 0 14 0;
#X connect 26 0 15 0;
#X connect 26 0 16 0;
#X connect 27 0 23 0;
#X connect 27 0 24 0;
#X connect 27 0 25 0;
#X connect 29 0 4 0;
#X connect 30 0 27 1;
#X restore 223 281 pd startend_pos;
#X obj 51 197 translateXYZ -3.75 -3.8 0;
#N canvas 667 102 1140 673 trace 0;
#X obj 51 23 inlet;
#X obj 396 9 r \$1-COMPUTE_FINISH;
#X obj 51 62 separator;
#X obj 51 270 gemvertexbuffer;
#X obj 51 124 scaleXYZ 0.001 0.001 0.001;
#X obj 262 192 loadbang;
#X msg 262 224 draw quad;
#X obj 849 304 table \$0-trace-x;
#X obj 848 332 table \$0-trace-y;
#X obj 848 362 table \$0-trace-z;
#X obj 262 123 symbol \$0-trace;
#X obj 396 34 t b b;
#X obj 859 162 s \$0-trace-x;
#X obj 858 190 s \$0-trace-y;
#X obj 857 222 s \$0-trace-z;
#X obj 840 8 r \$1-TAB_LENGTH;
#X obj 840 69 - 1;
#X obj 840 96 * 4;
#X msg 262 152 position \$1-x \$1-y \$1-z;
#X obj 515 98 f;
#X msg 427 80 1000;
#X obj 538 369 list append;
#X obj 515 428 list append;
#X obj 515 453 t a a, f 15;
#X msg 515 483 \$1 \$3 \$5;
#X msg 617 480 \$2 \$4 \$6;
#X obj 704 199 v \$1-DIST_ROUES;
#X obj 704 225 / 2;
#X obj 515 534 list append, f 15;
#X obj 515 559 t a a a a, f 27;
#X msg 701 586 \$1 \$2;
#X msg 639 586 \$3 \$4;
#X msg 577 586 \$7 \$8;
#X msg 515 587 \$5 \$6;
#N canvas 455 371 422 203 add_point 0;
#X obj 60 19 inlet point;
#X obj 222 20 inlet reset;
#X obj 60 44 t a b, f 21;
#X obj 204 72 i;
#X obj 238 73 + 1;
#X msg 222 45 0;
#X obj 60 153 tabwrite \$0-trace-x, f 21;
#X obj 60 100 unpack f f;
#X obj 127 127 tabwrite \$0-trace-y;
#X floatatom 305 147 5 0 0 0 - - - 0;
#X connect 0 0 2 0;
#X connect 1 0 5 0;
#X connect 2 0 7 0;
#X connect 2 1 3 0;
#X connect 3 0 4 0;
#X connect 3 0 6 1;
#X connect 3 0 8 1;
#X connect 3 0 9 0;
#X connect 4 0 3 1;
#X connect 5 0 3 1;
#X connect 7 0 6 0;
#X connect 7 1 8 0;
#X restore 515 638 pd add_point;
#X f 38;
#N canvas 743 346 450 300 foreach 0;
#X obj 39 22 inlet;
#X obj 39 47 t f b, f 8;
#X obj 39 72 until;
#X obj 39 97 i;
#X obj 88 97 + 1;
#X msg 92 71 0;
#X obj 39 122 outlet;
#X connect 0 0 1 0;
#X connect 1 0 2 0;
#X connect 1 1 5 0;
#X connect 2 0 3 0;
#X connect 3 0 4 0;
#X connect 3 0 6 0;
#X connect 4 0 3 1;
#X connect 5 0 3 1;
#X restore 515 153 pd foreach;
#X obj 358 7 bng 20 250 50 0 empty empty empty 0 -10 0 12 #fcfcfc #000000 #000000;
#X msg 961 161 const 0;
#X obj 275 79 bng 20 250 50 0 empty empty empty 0 -10 0 12 #fcfcfc #000000 #000000;
#X floatatom 618 183 5 0 0 0 - - - 0;
#X obj 768 55 bng 20 250 50 0 empty empty empty 0 -10 0 12 #fcfcfc #000000 #000000;
#X obj 515 126 t f b, f 38;
#X obj 515 508 pos_roues;
#X obj 617 506 pos_roues;
#X floatatom 791 119 5 0 0 0 - - - 0;
#X msg 903 89 4;
#X obj 796 593 bng 20 250 50 0 empty empty empty 0 -10 0 12 #fcfcfc #000000 #000000;
#X msg 464 109 2230;
#X msg 198 49 1;
#X msg 457 160 1448;
#X msg 162 44 0.3;
#X obj 840 39 / 20;
#X obj 515 180 * 20;
#X msg 622 27 50;
#X floatatom 622 52 5 0 0 0 - - - 0;
#X obj 876 39 t b f;
#X msg 256 261 draw fill;
#X obj 515 287 t a a a;
#X obj 515 208 t f f;
#X obj 515 259 pack f f;
#X obj 547 231 + 20;
#X obj 561 312 array_get2 \$1-TAB_ANGLE-DEG;
#X obj 538 344 array_get2 \$1-TAB_Y;
#X obj 515 403 array_get2 \$1-TAB_X;
#X msg 658 23 100;
#X msg 586 24 20;
#X msg 127 45 0.2;
#X msg 444 254 311;
#X msg 965 188 bounds 0 6000 \$1 0;
#X msg 840 121 resize \$1 \, bounds 0 6000 \$1 0;
#X msg 261 380 draw points;
#X obj 696 158 bng 20 250 50 0 empty empty empty 0 -10 0 12 #fcfcfc #000000 #000000;
#X msg 234 331 draw linestrip \, width 1;
#X obj 51 93 colorRGB 0.4 0.4 0.4 0.4;
#X obj 706 10 loadbang;
#X msg 706 35 4;
#X connect 0 0 2 0;
#X connect 1 0 11 0;
#X connect 2 0 73 0;
#X connect 4 0 3 0;
#X connect 5 0 6 0;
#X connect 6 0 3 0;
#X connect 10 0 18 0;
#X connect 11 0 10 0;
#X connect 11 1 19 0;
#X connect 15 0 51 0;
#X connect 16 0 17 0;
#X connect 16 0 19 1;
#X connect 17 0 69 0;
#X connect 17 0 44 0;
#X connect 18 0 3 0;
#X connect 19 0 39 0;
#X connect 19 0 41 0;
#X connect 20 0 58 0;
#X connect 21 0 22 1;
#X connect 22 0 23 0;
#X connect 23 0 24 0;
#X connect 23 1 25 0;
#X connect 24 0 42 0;
#X connect 25 0 43 0;
#X connect 26 0 27 0;
#X connect 27 0 42 1;
#X connect 27 0 43 1;
#X connect 28 0 29 0;
#X connect 29 0 33 0;
#X connect 29 1 32 0;
#X connect 29 2 31 0;
#X connect 29 3 30 0;
#X connect 30 0 34 0;
#X connect 31 0 34 0;
#X connect 32 0 34 0;
#X connect 33 0 34 0;
#X connect 35 0 52 0;
#X connect 36 0 11 0;
#X connect 37 0 12 0;
#X connect 37 0 14 0;
#X connect 37 0 13 0;
#X connect 38 0 10 0;
#X connect 40 0 16 0;
#X connect 41 0 35 0;
#X connect 41 1 34 1;
#X connect 41 1 26 0;
#X connect 42 0 28 0;
#X connect 43 0 28 1;
#X connect 45 0 69 0;
#X connect 46 0 34 1;
#X connect 47 0 58 0;
#X connect 48 0 73 4;
#X connect 49 0 58 0;
#X connect 50 0 73 4;
#X connect 51 0 16 0;
#X connect 52 0 58 0;
#X connect 53 0 54 0;
#X connect 54 0 52 1;
#X connect 54 0 55 0;
#X connect 54 0 60 1;
#X connect 55 0 51 0;
#X connect 55 1 51 1;
#X connect 56 0 3 0;
#X connect 57 0 63 0;
#X connect 57 1 62 0;
#X connect 57 2 61 0;
#X connect 58 0 59 0;
#X connect 58 1 60 0;
#X connect 59 0 57 0;
#X connect 60 0 59 1;
#X connect 61 0 21 1;
#X connect 62 0 21 0;
#X connect 63 0 22 0;
#X connect 64 0 54 0;
#X connect 65 0 54 0;
#X connect 66 0 73 4;
#X connect 67 0 58 0;
#X connect 69 0 12 0;
#X connect 69 0 13 0;
#X connect 69 0 14 0;
#X connect 70 0 3 0;
#X connect 71 0 26 0;
#X connect 72 0 3 0;
#X connect 73 0 4 0;
#X connect 74 0 75 0;
#X connect 75 0 54 0;
#X restore 343 282 pd trace;
#X obj 180 115 b;
#X obj 180 140 del 100;
#X obj 180 165 s \$1-recompute;
#N canvas 264 344 499 474 display_time 1;
#X obj 51 27 inlet;
#X obj 51 52 separator;
#X obj 51 100 translateXYZ;
#X obj 132 206 separator;
#X obj 51 208 separator;
#X obj 51 417 text2d;
#X obj 159 342 loadbang;
#X floatatom 133 420 5 0 0 0 - - - 0;
#X obj 78 78 nbx 5 18 -1e+37 1e+37 0 1 empty empty empty 0 -10 0 12 #fcfcfc #000000 #000000 1.2 256;
#X obj 147 78 nbx 5 18 -1e+37 1e+37 0 1 empty empty empty 0 -10 0 12 #fcfcfc #000000 #000000 6.27001 256;
#X obj 310 142 nbx 5 18 -1e+37 1e+37 0 1 empty empty empty 0 -10 0 12 #fcfcfc #000000 #000000 1.18 256;
#X obj 379 142 nbx 5 18 -1e+37 1e+37 0 1 empty empty empty 0 -10 0 12 #fcfcfc #000000 #000000 0.249988 256;
#X obj 132 281 rectangle, f 19;
#X obj 274 19 r \$1-current_time-snd;
#X obj 51 155 colorRGB 1 0.6 0.3 0.5;
#X msg 274 96 text position : \$1 sec;
#X msg 118 370 font NotoMono-Regular.ttf;
#X obj 274 44 makefilename %5.1f;
#X msg 141 256 draw line;
#X obj 305 206 separator;
#X obj 305 281 rectangle, f 19;
#X obj 51 181 t a a a, f 24;
#X obj 51 128 t a a, f 32;
#X obj 305 233 colorRGB 0 0 0 1;
#X obj 141 230 loadbang;
#X msg 132 396 18;
#X connect 0 0 1 0;
#X connect 1 0 2 0;
#X connect 2 0 22 0;
#X connect 3 0 12 0;
#X connect 4 0 5 0;
#X connect 6 0 25 0;
#X connect 6 0 16 0;
#X connect 7 0 5 1;
#X connect 8 0 2 1;
#X connect 9 0 2 2;
#X connect 10 0 12 1;
#X connect 10 0 20 1;
#X connect 11 0 12 2;
#X connect 11 0 20 2;
#X connect 13 0 17 0;
#X connect 14 0 21 0;
#X connect 15 0 5 0;
#X connect 16 0 5 0;
#X connect 17 0 15 0;
#X connect 18 0 12 0;
#X connect 19 0 23 0;
#X connect 21 0 4 0;
#X connect 21 1 3 0;
#X connect 22 0 14 0;
#X connect 22 1 19 0;
#X connect 23 0 20 0;
#X connect 24 0 18 0;
#X connect 25 0 7 0;
#X restore 26 304 pd display_time;
#X obj 51 232 t a a a a a a, f 40;
#X obj 286 32 r \$1-open-window-snd;
#X obj 286 57 sel 1 0;
#X obj 286 86 b;
#X msg 286 125 dimen 800 800 \, create \, 1;
#X connect 1 0 5 0;
#X connect 3 0 2 0;
#X connect 5 0 9 0;
#X connect 9 0 15 0;
#X connect 11 0 12 0;
#X connect 12 0 13 0;
#X connect 15 0 14 0;
#X connect 15 1 7 0;
#X connect 15 2 6 0;
#X connect 15 3 8 0;
#X connect 15 4 10 0;
#X connect 15 5 4 0;
#X connect 16 0 17 0;
#X connect 17 0 18 0;
#X connect 17 1 3 0;
#X connect 18 0 19 0;
#X connect 18 0 11 0;
#X connect 19 0 2 0;
