#N canvas 766 80 511 512 12;
#X declare -path Gem -lib Gem;
#X obj 34 22 declare -path Gem -lib Gem;
#X obj 48 73 gemhead;
#X obj 281 149 gemwin;
#X msg 304 113 0 \, destroy;
#N canvas 633 351 547 554 grid 0;
#X obj 38 7 inlet;
#X obj 159 109 s \$0-gridhead;
#X obj 127 189 s \$0-gridhead2;
#X obj 127 163 rotate -90 0 0 1;
#X obj 127 135 separator;
#X obj 159 81 separator;
#X obj 38 35 t a a a;
#X obj 71 287 separator;
#X obj 39 261 t a a;
#X obj 71 313 s \$0-tourhead;
#X obj 219 293 s \$0-tourhead-col;
#X obj 191 331 clone grid_abs 2 \$0-tourhead 6 1;
#X msg 219 266 0.1 0.6 0.1;
#X obj 258 80 clone grid_abs 6 \$0-gridhead 1 1;
#X obj 259 113 clone grid_abs 30 \$0-gridhead 0.2 0.2;
#X obj 39 343 separator;
#X obj 219 241 loadbang;
#X obj 353 292 s \$0-tourhead2-col;
#X obj 39 369 rotate -90 0 0 1;
#X obj 191 379 clone grid_abs 2 \$0-tourhead2 7.5 1;
#X obj 39 396 s \$0-tourhead2;
#X obj 260 165 clone grid_abs 8 \$0-gridhead2 1 1;
#X obj 261 198 clone grid_abs 40 \$0-gridhead2 0.2 0.2;
#X connect 0 0 6 0;
#X connect 3 0 2 0;
#X connect 4 0 3 0;
#X connect 5 0 1 0;
#X connect 6 0 8 0;
#X connect 6 1 4 0;
#X connect 6 2 5 0;
#X connect 7 0 9 0;
#X connect 8 0 15 0;
#X connect 8 1 7 0;
#X connect 12 0 10 0;
#X connect 12 0 17 0;
#X connect 15 0 18 0;
#X connect 16 0 12 0;
#X connect 18 0 20 0;
#X restore 191 233 pd grid;
#X obj 48 104 alpha;
#N canvas 743 346 496 495 current_pos 0;
#X obj 75 121 translateXYZ;
#X floatatom 104 79 5 0 0 0 - - - 0;
#X floatatom 152 79 5 0 0 0 - - - 0;
#X obj 205 53 r \$1-X;
#X obj 291 50 r \$1-Y;
#X obj 291 75 / 1000;
#X obj 192 84 / 1000;
#X obj 75 164 rotate 0 0 0 1;
#X obj 227 126 r \$1-ANGLE-DEG;
#X obj 107 299 pix_image igloo.png;
#X obj 107 324 pix_texture;
#X obj 75 199 t a a;
#X obj 107 349 rectangle 1.2 0.6;
#X obj 75 386 colorRGB 0.5 0.5 1 1;
#X obj 107 224 separator;
#X obj 107 274 colorRGB 1 0.5 1 1;
#X floatatom 207 203 5 0 0 0 - - - 0;
#X obj 227 151 - 90;
#X obj 107 249 translateXYZ 0 -0.55 0;
#X obj 66 441 circle 0.1;
#X obj 75 43 separator;
#X obj 75 12 inlet;
#X connect 0 0 7 0;
#X connect 1 0 0 1;
#X connect 2 0 0 2;
#X connect 3 0 6 0;
#X connect 4 0 5 0;
#X connect 5 0 0 2;
#X connect 6 0 0 1;
#X connect 7 0 11 0;
#X connect 8 0 17 0;
#X connect 9 0 10 0;
#X connect 10 0 12 0;
#X connect 11 0 13 0;
#X connect 11 1 14 0;
#X connect 13 0 19 0;
#X connect 14 0 18 0;
#X connect 15 0 9 0;
#X connect 16 0 18 2;
#X connect 17 0 7 1;
#X connect 18 0 15 0;
#X connect 20 0 0 0;
#X connect 21 0 20 0;
#X restore 71 235 pd current_pos;
#N canvas 395 343 689 344 path 0;
#X obj 51 37 inlet;
#X obj 51 62 separator;
#X obj 51 270 gemvertexbuffer;
#X obj 51 124 scaleXYZ 0.001 0.001 0.001;
#X obj 277 92 symbol \$1-TAB_X;
#X obj 393 92 symbol \$1-TAB_Y;
#X obj 277 117 pack s s s, f 33;
#X obj 509 94 symbol \$1-TAB_Z;
#X obj 277 64 t b b b, f 33;
#X msg 277 142 position \$1 \$2 \$3;
#X obj 277 37 bng 20 250 50 0 empty empty empty 0 -10 0 12 #fcfcfc #000000 #000000;
#X msg 277 209 draw linestrip \, width 3;
#X obj 51 93 colorRGB 0.7 0.4 0 1;
#X obj 277 182 loadbang;
#X obj 323 36 r \$1-COMPUTE_FINISH;
#X connect 0 0 1 0;
#X connect 1 0 12 0;
#X connect 3 0 2 0;
#X connect 4 0 6 0;
#X connect 5 0 6 1;
#X connect 6 0 9 0;
#X connect 7 0 6 2;
#X connect 8 0 4 0;
#X connect 8 1 5 0;
#X connect 8 2 7 0;
#X connect 9 0 2 0;
#X connect 10 0 8 0;
#X connect 11 0 2 0;
#X connect 12 0 3 0;
#X connect 13 0 11 0;
#X connect 14 0 8 0;
#X restore 21 288 pd path;
#X obj 48 169 t a a a a;
#N canvas 743 346 752 507 startend_pos 0;
#X obj 75 228 translateXYZ;
#X obj 157 201 / 1000;
#X obj 102 202 / 1000;
#X obj 75 254 rotate 0 0 0 1, f 27;
#X obj 75 393 pix_image igloo.png;
#X obj 75 418 pix_texture;
#X obj 75 443 rectangle 1.2 0.6;
#X floatatom 175 313 5 0 0 0 - - - 0;
#X obj 212 201 - 90;
#X obj 75 343 translateXYZ 0 -0.55 0;
#X obj 75 91 separator;
#X obj 75 12 inlet;
#X obj 75 42 t a a, f 41;
#X obj 396 9 r \$1-COMPUTE_FINISH;
#X obj 102 125 tabread \$1-TAB_X;
#X obj 157 149 tabread \$1-TAB_Y;
#X obj 212 175 tabread \$1-TAB_ANGLE-DEG;
#X obj 402 234 translateXYZ;
#X obj 484 207 / 1000;
#X obj 429 208 / 1000;
#X obj 402 260 rotate 0 0 0 1, f 27;
#X obj 539 207 - 90;
#X obj 402 97 separator;
#X obj 429 131 tabread \$1-TAB_X;
#X obj 484 155 tabread \$1-TAB_Y;
#X obj 539 181 tabread \$1-TAB_ANGLE-DEG;
#X msg 212 91 0;
#X obj 524 93 f;
#X floatatom 578 118 5 0 0 0 - - - 0;
#X obj 75 368 colorRGB 0.5 0.5 1 0.35;
#X obj 542 68 r \$1-TAB_LENGTH;
#X connect 0 0 3 0;
#X connect 1 0 0 2;
#X connect 2 0 0 1;
#X connect 3 0 9 0;
#X connect 4 0 5 0;
#X connect 5 0 6 0;
#X connect 7 0 9 2;
#X connect 8 0 3 1;
#X connect 9 0 29 0;
#X connect 10 0 0 0;
#X connect 11 0 12 0;
#X connect 12 0 10 0;
#X connect 12 1 22 0;
#X connect 13 0 26 0;
#X connect 13 0 27 0;
#X connect 14 0 2 0;
#X connect 15 0 1 0;
#X connect 16 0 8 0;
#X connect 17 0 20 0;
#X connect 18 0 17 2;
#X connect 19 0 17 1;
#X connect 20 0 9 0;
#X connect 21 0 20 1;
#X connect 22 0 17 0;
#X connect 23 0 19 0;
#X connect 24 0 18 0;
#X connect 25 0 21 0;
#X connect 26 0 14 0;
#X connect 26 0 15 0;
#X connect 26 0 16 0;
#X connect 27 0 23 0;
#X connect 27 0 24 0;
#X connect 27 0 25 0;
#X connect 29 0 4 0;
#X connect 30 0 27 1;
#X restore 163 277 pd startend_pos;
#X msg 281 77 dimen 1200 1000 \, create \, 1;
#X obj 48 134 translateXYZ -3.75 -3.8 0;
#X obj 281 38 inlet;
#X connect 1 0 5 0;
#X connect 3 0 2 0;
#X connect 5 0 11 0;
#X connect 8 0 7 0;
#X connect 8 1 6 0;
#X connect 8 2 9 0;
#X connect 8 3 4 0;
#X connect 10 0 2 0;
#X connect 11 0 8 0;
#X connect 12 0 10 0;
