#N canvas 639 30 1347 954 12;
#X msg 15 171 step;
#X obj 67 224 list split 1, f 41;
#X obj 209 280 unpack f f, f 16;
#X obj 92 685 t f f, f 13;
#X obj 92 715 -;
#X floatatom 128 714 5 0 0 0 - - - 0;
#X obj 571 314 / 180;
#X obj 571 339 * 3.14159;
#X obj 92 740 t f b;
#X obj 92 791 /, f 5;
#X obj 92 817 t f b;
#X obj 92 868 +, f 5;
#X obj 124 842 v \$0-ANGLE;
#X obj 92 894 s \$0-ANGLE;
#X obj 571 365 s \$0-ANGLE;
#X obj 35 21 bng 20 250 50 0 empty empty empty 0 -10 0 12 #fcfcfc #000000 #000000;
#X msg 361 259 0;
#X obj 253 719 +;
#X obj 253 769 t f f, f 13;
#X obj 253 744 / 2;
#X obj 253 818 *;
#X obj 341 820 *;
#X obj 273 795 cos;
#X obj 359 796 sin;
#X obj 359 734 r \$0-ANGLE;
#X obj 420 317 unpack f f;
#X obj 420 342 s \$0-X;
#X obj 487 343 s \$0-Y;
#X obj 432 376 v \$0-X;
#X obj 499 377 v \$0-Y;
#X obj 285 819 r \$0-X;
#X obj 373 821 r \$0-Y;
#X obj 253 843 +, f 5;
#X obj 341 845 +, f 5;
#X obj 253 866 s \$0-X;
#X obj 341 870 s \$0-Y;
#X obj 269 895 pack f f;
#X obj 269 921 s \$0-XY;
#X obj 602 262 bng 20 250 50 0 empty empty empty 0 -10 0 12 #fcfcfc #000000 #000000;
#X obj 420 292 list;
#X obj 571 289 v \$1-INIT_ANGLE_DEG;
#X obj 445 266 r \$1-INIT_XY;
#X obj 67 161 text sequence \$1-SEQ;
#X obj 124 765 v \$1-DIST_ROUES;
#X msg 830 141 0;
#X obj 830 166 s \$0-i;
#X obj 15 390 s \$0-i;
#X obj 44 365 r \$0-i;
#X obj 15 364 +;
#X msg 15 338 1;
#X obj 761 254 text sequence \$1-SEQ;
#X obj 761 279 list split 1;
#X obj 761 304 +;
#X obj 738 202 t b b b;
#X obj 761 329 f;
#X msg 795 303 0;
#X obj 738 353 f;
#X obj 738 415 change;
#X obj 1039 500 s \$1-TAB_MOTD;
#X obj 1039 525 s \$1-TAB_MOTG;
#X obj 1008 716 s \$1-TAB_ANGLE-DEG;
#X obj 1042 602 s \$1-TAB_X;
#X obj 1042 625 s \$1-TAB_Y;
#X obj 573 405 v \$0-MOTD;
#X obj 654 406 v \$0-MOTG;
#X obj 372 422 s \$0-MOTD;
#X obj 447 426 s \$0-MOTG;
#X obj 67 278 inst_line;
#X obj 253 673 s \$0-MOTD;
#X obj 357 671 s \$0-MOTG;
#X obj 284 647 r \$0-MOTD;
#X obj 386 648 r \$0-MOTG;
#X obj 253 647 +;
#X obj 357 648 +;
#X obj 571 656 tabwrite \$1-TAB_MOTD;
#X obj 570 710 tabwrite \$1-TAB_MOTG;
#X obj 570 768 tabwrite \$1-TAB_ANGLE-DEG;
#X obj 570 821 tabwrite \$1-TAB_X;
#X obj 569 874 tabwrite \$1-TAB_Y;
#X obj 724 636 r \$0-i;
#X obj 571 630 r \$0-MOTD;
#X obj 570 684 r \$0-MOTG;
#X obj 629 456 r \$0-ANGLE;
#X obj 629 482 / 3.14159;
#X obj 629 589 s \$0-ANGLE-DEG;
#X obj 570 740 r \$0-ANGLE-DEG;
#X obj 570 798 r \$0-X;
#X obj 569 850 r \$0-Y;
#X floatatom 745 669 5 0 0 0 - - - 0;
#X obj 629 508 / 2;
#X obj 629 535 wrap;
#X obj 629 562 * 360;
#X msg 862 376 set -1;
#X obj 784 129 bng 20 250 50 0 empty empty empty 0 -10 0 12 #fcfcfc #000000 #000000;
#X obj 761 166 t b b;
#X msg 1008 686 resize \$1 \, bounds 0 360 \$1 0;
#X msg 1029 566 resize \$1 \, bounds 0 8000 \$1 0;
#X msg 1026 464 resize \$1 \, bounds 0 12000 \$1 -12000;
#X obj 107 22 inlet;
#X obj 738 442 s \$1-TOTAL_TIME;
#X obj 1029 655 s \$1-TAB_Z;
#X obj 35 51 t b b;
#X obj 80 53 s \$1-COMPUTE_FINISH;
#X obj 881 155 v \$1-TAB_STEP_MS;
#X obj 67 84 t b b b b, f 134;
#X obj 1007 350 / 10;
#X obj 67 251 / 10;
#X obj 92 658 * 10;
#X obj 166 654 * 10;
#X floatatom 1117 382 9 0 0 0 - - - 0;
#X obj 1007 380 i;
#X obj 1045 435 s \$1-TAB_LENGTH;
#X obj 1007 409 + 0;
#X obj 407 476 / 1000;
#X obj 67 304 t b b;
#X obj 92 385 t b b, f 20;
#X obj 92 410 f;
#X obj 92 435 t f f, f 17;
#X obj 92 460 * -1;
#X obj 92 485 +;
#X obj 92 510 clip -1.25 1.25;
#X floatatom 459 523 11 0 0 0 - - - 0;
#X obj 407 451 r \$1-MAX_ACCEL;
#X obj 143 484 * -1;
#X obj 143 458 f;
#X obj 92 535 +, f 17;
#X obj 229 435 t f f, f 17;
#X obj 229 460 * -1;
#X obj 229 485 +;
#X obj 229 510 clip -1.25 1.25;
#X obj 280 484 * -1;
#X obj 280 458 f;
#X obj 229 535 +, f 17;
#X obj 229 410 f;
#X obj 407 526 / 1000;
#X obj 407 501 * 10;
#X obj 108 598 tabwrite \$1-TAB_MOTD_SPEED;
#X obj 376 567 r \$0-i;
#X obj 304 599 tabwrite \$1-TAB_MOTG_SPEED;
#X obj 108 573 * 1000;
#X obj 304 572 * 1000;
#X obj 1000 771 pack f f f;
#X msg 1000 798 resize \$1 \, bounds 0 \$3 \$1 \$2;
#X obj 1000 853 s \$1-TAB_MOTG_SPEED;
#X obj 1019 826 s \$1-TAB_MOTD_SPEED;
#X obj 1067 743 r \$1-MAX_SPEED;
#X obj 1033 745 * -1;
#X obj 1133 166 text size \$1-SEQ;
#X obj 1133 215 s \$1-seq_length;
#X obj 226 160 bng 20 250 50 0 empty empty empty 0 -10 0 12 #fcfcfc #000000 #000000;
#X obj 67 187 t b a;
#X msg 204 186 3000 0 0;
#X floatatom 808 342 5 0 0 0 - - - 0;
#X obj 738 384 + 3000;
#X obj 1042 241 s \$1-INIT_ANGLE_DEG;
#X obj 1002 268 s \$1-INIT_XY;
#X obj 1002 214 list split 2;
#X obj 1002 189 text get \$1-SEQ;
#X msg 1002 164 0;
#X msg 761 229 line 1 \, auto;
#X obj 1133 191 - 1;
#X obj 1007 320 r \$1-TOTAL_TIME;
#X obj 881 185 s \$1-TAB_STEP_MS;
#X obj 1047 350 r \$1-TAB_STEP_MS;
#X obj 107 252 r \$1-TAB_STEP_MS;
#X obj 117 623 r \$1-TAB_STEP_MS;
#X msg 67 111 line 1 \, step;
#X connect 0 0 42 0;
#X connect 1 0 106 0;
#X connect 1 1 2 0;
#X connect 2 0 119 1;
#X connect 2 1 128 1;
#X connect 3 0 4 0;
#X connect 3 1 17 0;
#X connect 4 0 5 0;
#X connect 4 0 8 0;
#X connect 6 0 7 0;
#X connect 7 0 14 0;
#X connect 8 0 9 0;
#X connect 8 1 43 0;
#X connect 9 0 10 0;
#X connect 10 0 11 0;
#X connect 10 1 12 0;
#X connect 11 0 13 0;
#X connect 12 0 11 1;
#X connect 15 0 101 0;
#X connect 16 0 4 1;
#X connect 16 0 65 0;
#X connect 16 0 66 0;
#X connect 16 0 133 1;
#X connect 16 0 116 1;
#X connect 17 0 19 0;
#X connect 18 0 20 0;
#X connect 18 1 21 0;
#X connect 19 0 18 0;
#X connect 20 0 32 0;
#X connect 21 0 33 0;
#X connect 22 0 20 1;
#X connect 23 0 21 1;
#X connect 24 0 22 0;
#X connect 24 0 23 0;
#X connect 25 0 26 0;
#X connect 25 1 27 0;
#X connect 30 0 32 1;
#X connect 31 0 33 1;
#X connect 32 0 34 0;
#X connect 32 0 36 0;
#X connect 33 0 35 0;
#X connect 33 0 36 1;
#X connect 36 0 37 0;
#X connect 38 0 40 0;
#X connect 39 0 25 0;
#X connect 40 0 6 0;
#X connect 41 0 39 1;
#X connect 42 0 150 0;
#X connect 42 1 149 0;
#X connect 42 1 151 0;
#X connect 43 0 9 1;
#X connect 44 0 45 0;
#X connect 47 0 48 1;
#X connect 48 0 46 0;
#X connect 49 0 48 0;
#X connect 50 0 51 0;
#X connect 51 0 52 0;
#X connect 52 0 54 0;
#X connect 53 0 56 0;
#X connect 53 1 159 0;
#X connect 53 2 55 0;
#X connect 53 2 92 0;
#X connect 54 0 52 1;
#X connect 54 0 56 1;
#X connect 54 0 152 0;
#X connect 55 0 54 0;
#X connect 56 0 153 0;
#X connect 57 0 99 0;
#X connect 67 0 114 0;
#X connect 70 0 72 1;
#X connect 71 0 73 1;
#X connect 72 0 68 0;
#X connect 73 0 69 0;
#X connect 79 0 74 1;
#X connect 79 0 78 1;
#X connect 79 0 77 1;
#X connect 79 0 76 1;
#X connect 79 0 75 1;
#X connect 79 0 88 0;
#X connect 80 0 74 0;
#X connect 81 0 75 0;
#X connect 82 0 83 0;
#X connect 83 0 89 0;
#X connect 85 0 76 0;
#X connect 86 0 77 0;
#X connect 87 0 78 0;
#X connect 89 0 90 0;
#X connect 90 0 91 0;
#X connect 91 0 84 0;
#X connect 92 0 57 0;
#X connect 93 0 94 0;
#X connect 94 0 53 0;
#X connect 94 1 92 0;
#X connect 95 0 60 0;
#X connect 96 0 61 0;
#X connect 96 0 62 0;
#X connect 96 0 100 0;
#X connect 97 0 58 0;
#X connect 97 0 59 0;
#X connect 98 0 101 0;
#X connect 101 0 102 0;
#X connect 101 1 104 0;
#X connect 103 0 162 0;
#X connect 104 0 166 0;
#X connect 104 1 16 0;
#X connect 104 1 39 0;
#X connect 104 1 40 0;
#X connect 104 2 53 0;
#X connect 104 3 103 0;
#X connect 104 3 44 0;
#X connect 104 3 147 0;
#X connect 104 3 158 0;
#X connect 105 0 110 0;
#X connect 106 0 67 0;
#X connect 107 0 3 0;
#X connect 107 0 72 0;
#X connect 108 0 4 1;
#X connect 108 0 17 1;
#X connect 108 0 73 0;
#X connect 110 0 112 0;
#X connect 112 0 97 0;
#X connect 112 0 96 0;
#X connect 112 0 95 0;
#X connect 112 0 111 0;
#X connect 112 0 109 0;
#X connect 112 0 141 0;
#X connect 113 0 135 0;
#X connect 114 0 49 0;
#X connect 114 1 115 0;
#X connect 115 0 116 0;
#X connect 115 1 133 0;
#X connect 116 0 117 0;
#X connect 117 0 118 0;
#X connect 117 1 125 1;
#X connect 118 0 119 0;
#X connect 119 0 120 0;
#X connect 120 0 125 0;
#X connect 122 0 113 0;
#X connect 123 0 120 1;
#X connect 124 0 123 0;
#X connect 124 0 120 2;
#X connect 125 0 116 1;
#X connect 125 0 107 0;
#X connect 125 0 139 0;
#X connect 126 0 127 0;
#X connect 126 1 132 1;
#X connect 127 0 128 0;
#X connect 128 0 129 0;
#X connect 129 0 132 0;
#X connect 130 0 129 1;
#X connect 131 0 130 0;
#X connect 131 0 129 2;
#X connect 132 0 133 1;
#X connect 132 0 108 0;
#X connect 132 0 140 0;
#X connect 133 0 126 0;
#X connect 134 0 121 0;
#X connect 134 0 131 0;
#X connect 134 0 124 0;
#X connect 135 0 134 0;
#X connect 137 0 136 1;
#X connect 137 0 138 1;
#X connect 139 0 136 0;
#X connect 140 0 138 0;
#X connect 141 0 142 0;
#X connect 142 0 144 0;
#X connect 142 0 143 0;
#X connect 145 0 141 2;
#X connect 145 0 146 0;
#X connect 146 0 141 1;
#X connect 147 0 160 0;
#X connect 150 0 0 0;
#X connect 150 1 1 0;
#X connect 151 0 1 0;
#X connect 153 0 57 0;
#X connect 156 0 155 0;
#X connect 156 1 154 0;
#X connect 157 0 156 0;
#X connect 158 0 157 0;
#X connect 159 0 50 0;
#X connect 160 0 148 0;
#X connect 161 0 105 0;
#X connect 163 0 105 1;
#X connect 164 0 106 1;
#X connect 165 0 107 1;
#X connect 165 0 108 1;
#X connect 166 0 42 0;
