#N canvas 682 148 542 557 12;
#X obj 20 123 spigot;
#X obj 59 71 route num;
#X obj 59 97 > \$1;
#X obj 20 17 r \$2-showsteps-head;
#X obj 59 46 r \$2-showsteps-ctl;
#X obj 114 132 sel 1;
#X obj 114 157 f \$1;
#X obj 114 182 get_step_time \$3-SEQ;
#X obj 162 133 bng 20 250 50 0 empty empty empty 0 -10 0 12 #fcfcfc #000000 #000000;
#X obj 114 207 / 10;
#X obj 114 232 t f f, f 18;
#X obj 114 260 tabread \$3-TAB_X;
#X obj 237 260 tabread \$3-TAB_Y;
#X obj 20 292 translateXYZ, f 41;
#X obj 20 183 separator;
#X obj 20 349 circle 50;
#X obj 198 398 loadbang;
#X floatatom 216 473 5 0 0 0 - - - 0;
#X msg 216 448 18;
#X obj 157 500 text2d;
#X obj 359 348 unpack f f;
#X obj 426 374 / 800;
#X obj 426 399 * 18;
#X obj 20 321 t a a, f 15;
#X obj 359 323 r \$2-win_dim;
#X floatatom 450 351 5 0 0 0 - - - 0;
#X obj 122 348 separator;
#X floatatom 212 335 5 0 0 0 - - - 0;
#X obj 424 167 loadbang;
#X obj 424 192 f \$1;
#X obj 424 217 + 1;
#X msg 424 242 text \$1;
#X obj 395 166 bng 20 250 50 0 empty empty empty 0 -10 0 12 #fcfcfc #000000 #000000;
#X msg 321 463 justify left base;
#X msg 157 426 font Quicksand-Bold-2.ttf \, justify left center;
#X obj 122 373 translateXYZ 110 0 0;
#X connect 0 0 14 0;
#X connect 1 0 2 0;
#X connect 2 0 0 1;
#X connect 2 0 5 0;
#X connect 3 0 0 0;
#X connect 4 0 1 0;
#X connect 5 0 6 0;
#X connect 6 0 7 0;
#X connect 7 0 9 0;
#X connect 8 0 6 0;
#X connect 9 0 10 0;
#X connect 10 0 11 0;
#X connect 10 1 12 0;
#X connect 11 0 13 1;
#X connect 12 0 13 2;
#X connect 13 0 23 0;
#X connect 14 0 13 0;
#X connect 16 0 18 0;
#X connect 16 0 34 0;
#X connect 17 0 19 1;
#X connect 18 0 17 0;
#X connect 20 1 21 0;
#X connect 20 1 25 0;
#X connect 21 0 22 0;
#X connect 22 0 17 0;
#X connect 23 0 15 0;
#X connect 23 1 26 0;
#X connect 24 0 20 0;
#X connect 26 0 35 0;
#X connect 27 0 35 1;
#X connect 28 0 29 0;
#X connect 29 0 30 0;
#X connect 30 0 31 0;
#X connect 31 0 19 0;
#X connect 32 0 29 0;
#X connect 34 0 19 0;
#X connect 35 0 19 0;
