#N canvas 743 346 450 300 12;
#X obj 53 25 inlet;
#X obj 53 121 spigot 1;
#X obj 53 146 t b b, f 6;
#X obj 188 133 del \$1;
#X msg 189 97 0;
#X msg 188 158 1;
#X obj 75 59 del \$1;
#X obj 75 84 del 1;
#X obj 53 171 outlet;
#X connect 0 0 1 0;
#X connect 0 0 6 0;
#X connect 1 0 2 0;
#X connect 2 0 8 0;
#X connect 2 1 3 0;
#X connect 2 1 4 0;
#X connect 3 0 5 0;
#X connect 4 0 1 1;
#X connect 5 0 1 1;
#X connect 6 0 7 0;
#X connect 7 0 1 0;
