#N canvas 99 330 634 400 12;
#X declare -path Gem -lib Gem;
#X obj 46 17 declare -path Gem -lib Gem;
#X obj 51 136 gemhead;
#X obj 286 197 gemwin;
#X msg 309 161 0 \, destroy;
#N canvas 797 255 547 554 grid 0;
#X obj 38 7 inlet;
#X obj 96 158 s \$0-gridhead;
#X obj 61 260 s \$0-gridhead2;
#X obj 61 233 rotate -90 0 0 1;
#X obj 61 183 separator;
#X obj 96 110 separator;
#X obj 38 83 t a a a;
#X obj 71 335 separator;
#X obj 39 309 t a a;
#X obj 71 381 s \$0-tourhead;
#X obj 207 434 s \$0-tourhead-col;
#X obj 275 21 clone grid_abs 6 \$0-gridhead 1 1;
#X obj 276 47 clone grid_abs 30 \$0-gridhead 0.2 0.2;
#X obj 39 411 separator;
#X obj 207 382 loadbang;
#X obj 341 433 s \$0-tourhead2-col;
#X obj 39 457 rotate -90 0 0 1;
#X obj 39 484 s \$0-tourhead2;
#X obj 366 152 s \$0-gridhead-length;
#X obj 364 175 s \$0-gridhead2-length;
#X obj 300 142 loadbang;
#X msg 300 167 6;
#X obj 276 102 clone grid_abs 30 \$0-gridhead2 0.2 0.2;
#X obj 275 78 clone grid_abs 6 \$0-gridhead2 1 1;
#X obj 287 216 s \$0-tourhead-length;
#X obj 437 214 s \$0-tourhead2-length;
#X obj 242 350 s \$0-tourhead-width;
#X obj 386 350 s \$0-tourhead2-width;
#X obj 460 297 loadbang;
#X msg 460 322 3;
#X obj 38 33 separator;
#X floatatom 137 28 5 0 0 0 - - - 0;
#X obj 96 134 translateXYZ 3 0 0;
#X obj 61 207 translateXYZ 0 3 0;
#X obj 71 358 translateXYZ 3 0 0;
#X obj 39 434 translateXYZ 0 3 0;
#X obj 210 276 clone grid_abs 3 \$0-tourhead 3 1;
#X obj 210 301 clone grid_abs 3 \$0-tourhead2 3 1;
#X msg 207 407 0.1 0.4 0.1;
#X connect 0 0 30 0;
#X connect 3 0 2 0;
#X connect 4 0 33 0;
#X connect 5 0 32 0;
#X connect 6 0 8 0;
#X connect 6 1 4 0;
#X connect 6 2 5 0;
#X connect 7 0 34 0;
#X connect 8 0 13 0;
#X connect 8 1 7 0;
#X connect 13 0 35 0;
#X connect 14 0 38 0;
#X connect 16 0 17 0;
#X connect 20 0 21 0;
#X connect 21 0 18 0;
#X connect 21 0 19 0;
#X connect 21 0 24 0;
#X connect 21 0 25 0;
#X connect 28 0 29 0;
#X connect 29 0 27 0;
#X connect 29 0 26 0;
#X connect 30 0 6 0;
#X connect 31 0 32 1;
#X connect 32 0 1 0;
#X connect 33 0 3 0;
#X connect 34 0 9 0;
#X connect 35 0 16 0;
#X connect 38 0 10 0;
#X connect 38 0 15 0;
#X restore 480 274 pd grid;
#X obj 51 167 alpha;
#N canvas 463 89 622 765 current_pos 0;
#X obj 27 121 translateXYZ;
#X floatatom 56 79 5 0 0 0 - - - 0;
#X floatatom 104 79 5 0 0 0 - - - 0;
#X obj 157 53 r \$1-X;
#X obj 243 50 r \$1-Y;
#X obj 243 75 / 1000;
#X obj 144 84 / 1000;
#X obj 27 164 rotate 0 0 0 1;
#X obj 179 126 r \$1-ANGLE-DEG;
#X obj 389 370 pix_image igloo.png;
#X obj 389 395 pix_texture;
#X obj 27 199 t a a;
#X obj 59 224 separator;
#X floatatom 489 295 5 0 0 0 - - - 0;
#X obj 179 151 - 90;
#X obj 389 320 translateXYZ 0 -0.55 0;
#X obj 27 632 circle 0.1;
#X obj 27 43 separator;
#X obj 27 12 inlet;
#X obj 27 606 colorRGB 0.75 0.5 0 1;
#X obj 59 252 t a a, f 29;
#X obj 389 294 separator;
#X obj 59 278 separator;
#X obj 59 368 t a a, f 16;
#X obj 217 397 separator;
#X obj 83 496 loadbang;
#X floatatom 153 575 5 0 0 0 - - - 0;
#X msg 325 523 font Quicksand-Bold-2.ttf \, text D;
#X floatatom 293 397 5 0 0 0 - - - 0;
#X floatatom 157 273 5 0 0 0 - - - 0;
#X obj 59 303 translateXYZ 0 -0.09 0;
#X obj 217 422 translateXYZ 1.05 0 0;
#X obj 59 398 separator;
#X obj 59 423 translateXYZ -1.05 0 0;
#X msg 83 523 font Quicksand-Bold-2.ttf \, text G;
#X obj 59 574 text3d;
#X obj 217 575 text3d;
#X obj 59 458 scaleXYZ 0.2 0.2 0.2;
#X obj 217 455 scaleXYZ 0.2 0.2 0.2;
#X msg 152 551 20;
#X obj 59 335 colorRGB 0 0.2 0.8 1;
#X obj 389 420 rectangle 1.2 0.6;
#X obj 389 345 colorRGB 1 0.3 0.7 0.66;
#X connect 0 0 7 0;
#X connect 1 0 0 1;
#X connect 2 0 0 2;
#X connect 3 0 6 0;
#X connect 4 0 5 0;
#X connect 5 0 0 2;
#X connect 6 0 0 1;
#X connect 7 0 11 0;
#X connect 8 0 14 0;
#X connect 9 0 10 0;
#X connect 10 0 41 0;
#X connect 11 0 19 0;
#X connect 11 1 12 0;
#X connect 12 0 20 0;
#X connect 13 0 15 2;
#X connect 14 0 7 1;
#X connect 15 0 42 0;
#X connect 17 0 0 0;
#X connect 18 0 17 0;
#X connect 19 0 16 0;
#X connect 20 0 22 0;
#X connect 20 1 21 0;
#X connect 21 0 15 0;
#X connect 22 0 30 0;
#X connect 23 0 32 0;
#X connect 23 1 24 0;
#X connect 24 0 31 0;
#X connect 25 0 39 0;
#X connect 25 0 27 0;
#X connect 25 0 34 0;
#X connect 26 0 35 1;
#X connect 26 0 36 1;
#X connect 27 0 36 0;
#X connect 28 0 31 1;
#X connect 29 0 30 2;
#X connect 30 0 40 0;
#X connect 31 0 38 0;
#X connect 32 0 33 0;
#X connect 33 0 37 0;
#X connect 34 0 35 0;
#X connect 37 0 35 0;
#X connect 38 0 36 0;
#X connect 39 0 26 0;
#X connect 40 0 23 0;
#X connect 42 0 9 0;
#X restore 250 273 pd current_pos;
#N canvas 586 331 689 344 path 0;
#X obj 51 37 inlet;
#X obj 51 62 separator;
#X obj 51 270 gemvertexbuffer;
#X obj 51 124 scaleXYZ 0.001 0.001 0.001;
#X obj 277 92 symbol \$1-TAB_X;
#X obj 393 92 symbol \$1-TAB_Y;
#X obj 277 117 pack s s s, f 33;
#X obj 509 94 symbol \$1-TAB_Z;
#X obj 277 64 t b b b, f 33;
#X msg 277 142 position \$1 \$2 \$3;
#X obj 277 37 bng 20 250 50 0 empty empty empty 0 -10 0 12 #fcfcfc #000000 #000000;
#X msg 277 209 draw linestrip \, width 3;
#X obj 277 182 loadbang;
#X obj 323 36 r \$1-COMPUTE_FINISH;
#X msg 284 250 draw quad;
#X obj 51 93 colorRGB 0.5 0.2 0 1;
#X connect 0 0 1 0;
#X connect 1 0 15 0;
#X connect 3 0 2 0;
#X connect 4 0 6 0;
#X connect 5 0 6 1;
#X connect 6 0 9 0;
#X connect 7 0 6 2;
#X connect 8 0 4 0;
#X connect 8 1 5 0;
#X connect 8 2 7 0;
#X connect 9 0 2 0;
#X connect 10 0 8 0;
#X connect 11 0 2 0;
#X connect 12 0 11 0;
#X connect 13 0 8 0;
#X connect 14 0 2 0;
#X connect 15 0 3 0;
#X restore 193 273 pd path;
#N canvas 743 346 752 507 startend_pos 0;
#X obj 75 228 translateXYZ;
#X obj 157 201 / 1000;
#X obj 102 202 / 1000;
#X obj 75 254 rotate 0 0 0 1, f 27;
#X obj 75 393 pix_image igloo.png;
#X obj 75 418 pix_texture;
#X floatatom 175 313 5 0 0 0 - - - 0;
#X obj 212 201 - 90;
#X obj 75 343 translateXYZ 0 -0.55 0;
#X obj 75 91 separator;
#X obj 75 12 inlet;
#X obj 75 42 t a a, f 41;
#X obj 396 9 r \$1-COMPUTE_FINISH;
#X obj 102 125 tabread \$1-TAB_X;
#X obj 157 149 tabread \$1-TAB_Y;
#X obj 212 175 tabread \$1-TAB_ANGLE-DEG;
#X obj 402 234 translateXYZ;
#X obj 484 207 / 1000;
#X obj 429 208 / 1000;
#X obj 402 260 rotate 0 0 0 1, f 27;
#X obj 539 207 - 90;
#X obj 402 97 separator;
#X obj 429 131 tabread \$1-TAB_X;
#X obj 484 155 tabread \$1-TAB_Y;
#X obj 539 181 tabread \$1-TAB_ANGLE-DEG;
#X msg 212 91 0;
#X obj 524 93 f;
#X floatatom 578 118 5 0 0 0 - - - 0;
#X obj 542 68 r \$1-TAB_LENGTH;
#X obj 75 368 colorRGB 0.5 0.5 1 0.75;
#X obj 75 317 separator;
#X obj 75 443 rectangle 1.2 0.6;
#X connect 0 0 3 0;
#X connect 1 0 0 2;
#X connect 2 0 0 1;
#X connect 3 0 30 0;
#X connect 4 0 5 0;
#X connect 5 0 31 0;
#X connect 6 0 8 2;
#X connect 7 0 3 1;
#X connect 8 0 29 0;
#X connect 9 0 0 0;
#X connect 10 0 11 0;
#X connect 11 0 9 0;
#X connect 11 1 21 0;
#X connect 12 0 25 0;
#X connect 12 0 26 0;
#X connect 13 0 2 0;
#X connect 14 0 1 0;
#X connect 15 0 7 0;
#X connect 16 0 19 0;
#X connect 17 0 16 2;
#X connect 18 0 16 1;
#X connect 19 0 30 0;
#X connect 20 0 19 1;
#X connect 21 0 16 0;
#X connect 22 0 18 0;
#X connect 23 0 17 0;
#X connect 24 0 20 0;
#X connect 25 0 13 0;
#X connect 25 0 14 0;
#X connect 25 0 15 0;
#X connect 26 0 22 0;
#X connect 26 0 23 0;
#X connect 26 0 24 0;
#X connect 28 0 26 1;
#X connect 29 0 4 0;
#X connect 30 0 8 0;
#X restore 363 274 pd startend_pos;
#N canvas 48 82 1084 727 trace 0;
#X obj 51 23 inlet;
#X obj 396 9 r \$1-COMPUTE_FINISH;
#X obj 51 48 separator;
#X obj 83 253 gemvertexbuffer;
#X obj 51 74 scaleXYZ 0.001 0.001 0.001;
#X obj 300 184 loadbang;
#X msg 300 216 draw quad;
#X obj 831 465 table \$0-trace-x;
#X obj 830 488 table \$0-trace-y;
#X obj 830 512 table \$0-trace-z;
#X obj 119 188 symbol \$0-trace;
#X obj 396 34 t b b;
#X obj 873 192 s \$0-trace-x;
#X obj 872 220 s \$0-trace-y;
#X obj 871 252 s \$0-trace-z;
#X obj 794 13 r \$1-TAB_LENGTH;
#X obj 854 122 * 4;
#X msg 119 217 position \$1-x \$1-y \$1-z;
#X obj 515 98 f;
#X msg 427 80 1000;
#X obj 538 399 list append;
#X obj 515 458 list append;
#X obj 515 483 t a a, f 15;
#X msg 515 513 \$1 \$3 \$5;
#X msg 617 510 \$2 \$4 \$6;
#X obj 694 182 v \$1-DIST_ROUES;
#X obj 704 225 / 2;
#X obj 515 564 list append, f 15;
#X obj 515 589 t a a a a, f 27;
#X msg 701 616 \$1 \$2;
#X msg 639 616 \$3 \$4;
#X msg 577 616 \$7 \$8;
#X msg 515 617 \$5 \$6;
#N canvas 743 346 450 300 foreach 0;
#X obj 39 22 inlet;
#X obj 39 47 t f b, f 8;
#X obj 39 72 until;
#X obj 39 97 i;
#X obj 88 97 + 1;
#X msg 92 71 0;
#X obj 39 122 outlet;
#X connect 0 0 1 0;
#X connect 1 0 2 0;
#X connect 1 1 5 0;
#X connect 2 0 3 0;
#X connect 3 0 4 0;
#X connect 3 0 6 0;
#X connect 4 0 3 1;
#X connect 5 0 3 1;
#X restore 515 153 pd foreach;
#X obj 358 7 bng 20 250 50 0 empty empty empty 0 -10 0 12 #fcfcfc #000000 #000000;
#X msg 975 191 const 0;
#X obj 120 163 bng 20 250 50 0 empty empty empty 0 -10 0 12 #fcfcfc #000000 #000000;
#X floatatom 618 183 5 0 0 0 - - - 0;
#X obj 768 55 bng 20 250 50 0 empty empty empty 0 -10 0 12 #fcfcfc #000000 #000000;
#X obj 515 126 t f b, f 38;
#X obj 515 538 pos_roues;
#X obj 617 536 pos_roues;
#X floatatom 791 119 5 0 0 0 - - - 0;
#X msg 903 111 4;
#X msg 464 109 2230;
#X msg 457 160 1448;
#X obj 794 39 / 20;
#X obj 515 180 * 20;
#X msg 622 27 50;
#X floatatom 622 52 5 0 0 0 - - - 0;
#X obj 830 39 t b f;
#X msg 299 245 draw fill;
#X obj 515 317 t a a a;
#X obj 515 208 t f f;
#X obj 515 289 pack f f;
#X obj 547 231 + 20;
#X obj 561 342 array_get2 \$1-TAB_ANGLE-DEG;
#X obj 538 374 array_get2 \$1-TAB_Y;
#X obj 515 433 array_get2 \$1-TAB_X;
#X msg 658 23 100;
#X msg 586 24 20;
#X msg 444 254 311;
#X msg 854 151 resize \$1 \, bounds 0 6000 \$1 0;
#X msg 300 298 draw points;
#X obj 696 158 bng 20 250 50 0 empty empty empty 0 -10 0 12 #fcfcfc #000000 #000000;
#X msg 300 273 draw linestrip \, width 1;
#X obj 706 10 loadbang;
#X obj 83 133 colorRGB 0.2 0.2 0.2 1;
#X obj 161 102 hsl 170 20 0.01 1 1 1 empty empty empty -2 -10 0 12 #fcfcfc #000000 #000000 8500 1;
#X obj 830 541 table \$0-roueD-x;
#X obj 830 563 table \$0-roueD-y;
#X obj 955 541 table \$0-roueG-x;
#X obj 955 563 table \$0-roueG-y;
#X obj 865 317 s \$0-roueD-x;
#X obj 865 339 s \$0-roueD-y;
#X obj 865 384 s \$0-roueG-x;
#X obj 865 406 s \$0-roueG-y;
#X obj 515 660 add_point \$0-trace;
#X obj 792 658 add_point \$0-roueD;
#X obj 657 659 add_point \$0-roueG;
#X obj 780 586 b;
#X msg 840 287 resize \$1 \, bounds 0 6000 \$1 0;
#X obj 51 98 t a a;
#X obj 73 474 gemvertexbuffer;
#X obj 290 405 loadbang;
#X obj 110 384 bng 20 250 50 0 empty empty empty 0 -10 0 12 #fcfcfc #000000 #000000;
#X obj 51 357 colorRGB 0.2 0.2 0.2 1;
#X obj 129 326 hsl 170 20 0.01 1 1 1 empty empty empty -2 -10 0 12 #fcfcfc #000000 #000000 13600 1;
#X obj 109 409 symbol \$0-roueG;
#X msg 290 437 draw linestrip \, width 2;
#X obj 51 593 gemvertexbuffer;
#X msg 87 557 position \$1-x \$1-y \$1-z;
#X obj 88 503 bng 20 250 50 0 empty empty empty 0 -10 0 12 #fcfcfc #000000 #000000;
#X obj 87 528 symbol \$0-roueD;
#X obj 830 585 table \$0-roueD-z;
#X obj 955 586 table \$0-roueG-z;
#X obj 864 429 s \$0-roueG-z;
#X obj 865 361 s \$0-roueD-z;
#X msg 109 438 position \$1-x \$1-y \$1-z;
#X obj 840 91 - 0;
#X msg 584 68 1;
#X obj 686 84 + 0;
#X msg 706 35 20;
#X msg 740 226 2400;
#X obj 794 65 moses 1;
#X listbox 335 346 20 0 0 0 - - - 0;
#X obj 547 258 min;
#X obj 586 231 - 1;
#X connect 0 0 2 0;
#X connect 1 0 11 0;
#X connect 2 0 4 0;
#X connect 4 0 82 0;
#X connect 5 0 6 0;
#X connect 6 0 3 0;
#X connect 10 0 17 0;
#X connect 11 0 10 0;
#X connect 11 0 88 0;
#X connect 11 0 93 0;
#X connect 11 1 18 0;
#X connect 15 0 46 0;
#X connect 15 0 107 0;
#X connect 16 0 62 0;
#X connect 16 0 42 0;
#X connect 17 0 3 0;
#X connect 18 0 37 0;
#X connect 18 0 39 0;
#X connect 19 0 53 0;
#X connect 20 0 21 1;
#X connect 21 0 22 0;
#X connect 22 0 23 0;
#X connect 22 1 24 0;
#X connect 23 0 40 0;
#X connect 24 0 41 0;
#X connect 26 0 40 1;
#X connect 26 0 41 1;
#X connect 27 0 28 0;
#X connect 28 0 32 0;
#X connect 28 1 31 0;
#X connect 28 2 30 0;
#X connect 28 3 29 0;
#X connect 29 0 77 0;
#X connect 29 0 78 0;
#X connect 30 0 77 0;
#X connect 30 0 79 0;
#X connect 31 0 77 0;
#X connect 32 0 77 0;
#X connect 33 0 47 0;
#X connect 34 0 11 0;
#X connect 35 0 12 0;
#X connect 35 0 14 0;
#X connect 35 0 13 0;
#X connect 36 0 10 0;
#X connect 38 0 46 0;
#X connect 39 0 33 0;
#X connect 39 1 25 0;
#X connect 39 1 80 0;
#X connect 39 1 103 0;
#X connect 40 0 27 0;
#X connect 41 0 27 1;
#X connect 43 0 62 0;
#X connect 44 0 53 0;
#X connect 45 0 53 0;
#X connect 46 0 104 0;
#X connect 47 0 53 0;
#X connect 48 0 49 0;
#X connect 49 0 47 1;
#X connect 49 0 50 0;
#X connect 49 0 55 1;
#X connect 50 0 46 0;
#X connect 50 1 46 1;
#X connect 51 0 3 0;
#X connect 52 0 58 0;
#X connect 52 1 57 0;
#X connect 52 2 56 0;
#X connect 53 0 54 0;
#X connect 53 1 55 0;
#X connect 54 0 52 0;
#X connect 54 0 105 0;
#X connect 55 0 106 0;
#X connect 56 0 20 1;
#X connect 57 0 20 0;
#X connect 58 0 21 0;
#X connect 59 0 49 0;
#X connect 60 0 49 0;
#X connect 61 0 53 0;
#X connect 62 0 12 0;
#X connect 62 0 13 0;
#X connect 62 0 14 0;
#X connect 63 0 3 0;
#X connect 64 0 25 0;
#X connect 65 0 3 0;
#X connect 66 0 102 0;
#X connect 67 0 3 0;
#X connect 68 0 67 1;
#X connect 68 0 67 2;
#X connect 68 0 67 3;
#X connect 80 0 77 1;
#X connect 80 0 79 1;
#X connect 80 0 78 1;
#X connect 81 0 73 0;
#X connect 81 0 76 0;
#X connect 81 0 75 0;
#X connect 81 0 74 0;
#X connect 81 0 97 0;
#X connect 81 0 96 0;
#X connect 82 0 86 0;
#X connect 82 1 67 0;
#X connect 84 0 89 0;
#X connect 85 0 88 0;
#X connect 86 0 83 0;
#X connect 86 0 90 0;
#X connect 87 0 86 1;
#X connect 87 0 86 2;
#X connect 87 0 86 3;
#X connect 88 0 98 0;
#X connect 89 0 83 0;
#X connect 89 0 90 0;
#X connect 91 0 90 0;
#X connect 92 0 93 0;
#X connect 93 0 91 0;
#X connect 98 0 83 0;
#X connect 99 0 16 0;
#X connect 99 0 81 0;
#X connect 99 0 101 0;
#X connect 100 0 49 0;
#X connect 101 0 18 1;
#X connect 102 0 49 0;
#X connect 103 0 26 0;
#X connect 104 1 99 0;
#X connect 106 0 54 1;
#X connect 107 0 106 1;
#X restore 538 274 pd trace;
#X obj 180 115 b;
#X obj 180 140 del 100;
#X obj 180 165 s \$1-recompute;
#N canvas 913 397 576 474 display_time 0;
#X obj 51 27 inlet;
#X obj 51 52 separator;
#X obj 51 100 translateXYZ;
#X obj 132 206 separator;
#X obj 51 208 separator;
#X obj 159 342 loadbang;
#X floatatom 133 420 5 0 0 0 - - - 0;
#X obj 78 78 nbx 5 18 -1e+37 1e+37 0 1 empty empty empty 0 -10 0 12 #fcfcfc #000000 #000000 1.4 256;
#X obj 147 78 nbx 5 18 -1e+37 1e+37 0 1 empty empty empty 0 -10 0 12 #fcfcfc #000000 #000000 6.89002 256;
#X obj 310 142 nbx 5 18 -1e+37 1e+37 0 1 empty empty empty 0 -10 0 12 #fcfcfc #000000 #000000 1.4 256;
#X obj 379 142 nbx 5 18 -1e+37 1e+37 0 1 empty empty empty 0 -10 0 12 #fcfcfc #000000 #000000 0.189988 256;
#X obj 132 281 rectangle, f 19;
#X obj 274 19 r \$1-current_time-snd;
#X msg 118 370 font NotoMono-Regular.ttf;
#X obj 274 44 makefilename %5.1f;
#X msg 141 256 draw line;
#X obj 305 206 separator;
#X obj 305 281 rectangle, f 19;
#X obj 51 181 t a a a, f 24;
#X obj 51 128 t a a, f 32;
#X obj 305 233 colorRGB 0 0 0 1;
#X obj 141 230 loadbang;
#X msg 132 396 18;
#X obj 51 155 colorRGB 1 0.6 0.3 0.7;
#X obj 51 417 text2d;
#X obj 359 323 r \$0-win_dim;
#X obj 359 348 unpack f f;
#X obj 426 374 / 800;
#X obj 426 399 * 18;
#X obj 440 44 / 1000;
#X obj 440 68 makefilename %5.1f;
#X obj 274 70 pack s s;
#X obj 440 19 r \$1-TOTAL_TIME;
#X msg 274 96 text temps : \$1 / \$2 s;
#X connect 0 0 1 0;
#X connect 1 0 2 0;
#X connect 2 0 19 0;
#X connect 3 0 11 0;
#X connect 4 0 24 0;
#X connect 5 0 22 0;
#X connect 5 0 13 0;
#X connect 6 0 24 1;
#X connect 7 0 2 1;
#X connect 8 0 2 2;
#X connect 9 0 11 1;
#X connect 9 0 17 1;
#X connect 10 0 11 2;
#X connect 10 0 17 2;
#X connect 12 0 14 0;
#X connect 13 0 24 0;
#X connect 14 0 31 0;
#X connect 15 0 11 0;
#X connect 16 0 20 0;
#X connect 18 0 4 0;
#X connect 18 1 3 0;
#X connect 19 0 23 0;
#X connect 20 0 17 0;
#X connect 21 0 15 0;
#X connect 22 0 6 0;
#X connect 23 0 18 0;
#X connect 25 0 26 0;
#X connect 26 1 27 0;
#X connect 27 0 28 0;
#X connect 28 0 6 0;
#X connect 29 0 30 0;
#X connect 30 0 31 1;
#X connect 31 0 33 0;
#X connect 32 0 29 0;
#X connect 33 0 24 0;
#X restore 15 280 pd display_time;
#X obj 286 32 r \$1-open-window-snd;
#X obj 286 57 sel 1 0;
#X obj 286 86 b;
#X msg 286 125 dimen 800 800 \, create \, 1;
#N canvas 146 726 489 217 steps 0;
#X obj 19 25 inlet;
#X obj 19 50 separator;
#X obj 19 110 scaleXYZ 0.001 0.001 0.001;
#X obj 19 81 colorRGB 0.7 0.4 0 1;
#X obj 285 20 r \$1-COMPUTE_FINISH;
#X obj 19 143 s \$0-showsteps-head;
#X obj 20 181 clone show_step 100 \$0 \$1;
#X obj 316 44 r \$1-seq_length;
#X floatatom 328 71 5 0 0 0 - - - 0;
#X obj 285 45 b;
#X obj 285 70 f;
#X obj 285 125 s \$0-showsteps-ctl;
#X msg 285 96 num \$1;
#X obj 253 40 bng 20 250 50 0 empty empty empty 0 -10 0 12 #fcfcfc #000000 #000000;
#X connect 0 0 1 0;
#X connect 1 0 3 0;
#X connect 2 0 5 0;
#X connect 3 0 2 0;
#X connect 4 0 9 0;
#X connect 7 0 10 1;
#X connect 9 0 10 0;
#X connect 10 0 8 0;
#X connect 10 0 12 0;
#X connect 12 0 11 0;
#X connect 13 0 10 0;
#X restore 128 278 pd steps;
#X obj 51 232 t a a a a a a a, f 58;
#X obj 51 197 translateXYZ -3 -3.8 0;
#X obj 407 175 route dimen;
#X obj 407 200 s \$0-win_dim;
#N canvas 111 329 863 531 display_pos 0;
#X obj 51 27 inlet;
#X obj 51 52 separator;
#X obj 51 100 translateXYZ;
#X obj 571 328 separator;
#X obj 214 218 separator;
#X obj 251 304 loadbang;
#X floatatom 316 430 5 0 0 0 - - - 0;
#X obj 78 78 nbx 5 18 -1e+37 1e+37 0 1 empty empty empty 0 -10 0 12 #fcfcfc #000000 #000000 1.4 256;
#X obj 147 78 nbx 5 18 -1e+37 1e+37 0 1 empty empty empty 0 -10 0 12 #fcfcfc #000000 #000000 6.35 256;
#X obj 656 379 nbx 5 18 -1e+37 1e+37 0 1 empty empty empty 0 -10 0 12 #fcfcfc #000000 #000000 1.4 256;
#X obj 725 379 nbx 5 18 -1e+37 1e+37 0 1 empty empty empty 0 -10 0 12 #fcfcfc #000000 #000000 0.279988 256;
#X obj 571 403 rectangle, f 19;
#X msg 580 378 draw line;
#X obj 51 128 t a a, f 32;
#X obj 580 352 loadbang;
#X msg 316 406 18;
#X obj 51 155 colorRGB 1 0.6 0.3 0.7;
#X obj 214 439 text2d;
#X obj 452 328 r \$0-win_dim;
#X obj 452 353 unpack f f;
#X obj 519 379 / 800;
#X obj 519 404 * 18;
#X obj 499 56 r \$1-X;
#X obj 604 69 r \$1-Y;
#X obj 653 118 / 1000;
#X obj 396 113 / 1000;
#X floatatom 445 41 5 0 0 0 - - - 0;
#X obj 396 140 - 3;
#X obj 653 145 - 3;
#X obj 396 169 makefilename %+2.2fm;
#X obj 653 171 makefilename %+2.2fm;
#X obj 447 206 pack s s;
#X obj 51 181 t a a a, f 47;
#X obj 214 265 translateXYZ;
#X obj 241 243 nbx 5 18 -1e+37 1e+37 0 1 empty empty empty 0 -10 0 12 #fcfcfc #000000 #000000 -1.28 256;
#X obj 310 244 nbx 5 18 -1e+37 1e+37 0 1 empty empty empty 0 -10 0 12 #fcfcfc #000000 #000000 0.12 256;
#X obj 80 333 r \$1-ANGLE-DEG;
#X obj 51 224 separator;
#X obj 51 271 translateXYZ;
#X obj 78 249 nbx 5 18 -1e+37 1e+37 0 1 empty empty empty 0 -10 0 12 #fcfcfc #000000 #000000 -1.06 256;
#X obj 147 250 nbx 5 18 -1e+37 1e+37 0 1 empty empty empty 0 -10 0 12 #fcfcfc #000000 #000000 -0.11 256;
#X obj 51 465 text2d;
#X obj 499 81 - 3000;
#X obj 604 94 - 3000;
#X obj 479 138 makefilename %+05.0f;
#X obj 555 168 makefilename %+05.0f;
#X msg 447 232 text position(mm) \$1 \$2;
#X msg 425 473 justify left center;
#X msg 80 415 text angle(deg) \$1;
#X msg 251 332 font NotoMono-Regular.ttf \, justify left center, f 27;
#X obj 80 374 makefilename %+04.0f;
#X connect 0 0 1 0;
#X connect 1 0 2 0;
#X connect 2 0 13 0;
#X connect 3 0 11 0;
#X connect 4 0 33 0;
#X connect 5 0 15 0;
#X connect 5 0 49 0;
#X connect 6 0 17 1;
#X connect 6 0 41 1;
#X connect 7 0 2 1;
#X connect 8 0 2 2;
#X connect 9 0 11 1;
#X connect 10 0 11 2;
#X connect 12 0 11 0;
#X connect 13 0 16 0;
#X connect 14 0 12 0;
#X connect 15 0 6 0;
#X connect 16 0 32 0;
#X connect 18 0 19 0;
#X connect 19 1 20 0;
#X connect 20 0 21 0;
#X connect 21 0 6 0;
#X connect 22 0 42 0;
#X connect 23 0 43 0;
#X connect 24 0 28 0;
#X connect 25 0 27 0;
#X connect 26 0 29 0;
#X connect 27 0 29 0;
#X connect 28 0 30 0;
#X connect 29 0 31 0;
#X connect 30 0 31 1;
#X connect 31 0 46 0;
#X connect 32 0 37 0;
#X connect 32 1 4 0;
#X connect 32 2 3 0;
#X connect 33 0 17 0;
#X connect 34 0 33 1;
#X connect 35 0 33 2;
#X connect 36 0 50 0;
#X connect 37 0 38 0;
#X connect 38 0 41 0;
#X connect 39 0 38 1;
#X connect 40 0 38 2;
#X connect 42 0 29 0;
#X connect 42 0 44 0;
#X connect 43 0 45 0;
#X connect 44 0 31 0;
#X connect 45 0 31 1;
#X connect 46 0 17 0;
#X connect 47 0 17 0;
#X connect 48 0 41 0;
#X connect 49 0 17 0;
#X connect 49 0 41 0;
#X connect 50 0 48 0;
#X restore 36 315 pd display_pos;
#X connect 1 0 5 0;
#X connect 2 0 21 0;
#X connect 3 0 2 0;
#X connect 5 0 20 0;
#X connect 10 0 11 0;
#X connect 11 0 12 0;
#X connect 14 0 15 0;
#X connect 15 0 16 0;
#X connect 15 1 3 0;
#X connect 16 0 17 0;
#X connect 16 0 10 0;
#X connect 17 0 2 0;
#X connect 19 0 13 0;
#X connect 19 0 23 0;
#X connect 19 1 18 0;
#X connect 19 2 7 0;
#X connect 19 3 6 0;
#X connect 19 4 8 0;
#X connect 19 5 4 0;
#X connect 19 6 9 0;
#X connect 20 0 19 0;
#X connect 21 0 22 0;
