#N canvas 0 0 450 300 12;
#X obj 28 74 sel 0 1, f 18;
#X msg 28 154 0;
#X msg 38 104 stop;
#X msg 99 104 stop;
#X obj 28 179 change -1;
#X msg 89 154 1;
#X obj 28 19 inlet;
#X obj 28 207 outlet;
#X obj 28 129 del \$1;
#X obj 89 129 del \$2;
#X text 119 16 debounce OFF_TIME_MS ON_TIME_MS;
#X obj 28 49 change -1;
#X connect 0 0 3 0;
#X connect 0 0 8 0;
#X connect 0 1 2 0;
#X connect 0 1 9 0;
#X connect 1 0 4 0;
#X connect 2 0 8 0;
#X connect 3 0 9 0;
#X connect 4 0 7 0;
#X connect 5 0 4 0;
#X connect 6 0 11 0;
#X connect 8 0 1 0;
#X connect 9 0 5 0;
#X connect 11 0 0 0;
