#N canvas 936 15 920 959 12;
#X obj 32 83 motor_control mot_droite;
#X obj 32 14 wifruit mot_droite fAFB464EFAAB1C15F;
#X obj 356 14 wifruit mot_gauche f7187834E39D13680;
#X obj 356 83 motor_control mot_gauche;
#X obj 48 173 r mot_droite-step;
#X obj 48 198 list split 1;
#X floatatom 48 223 5 0 0 0 - - - 0;
#X obj 180 198 list split 1;
#X floatatom 180 223 5 0 0 0 - - - 0;
#X obj 180 173 r mot_gauche-step;
#X obj 101 235 -;
#X obj 133 234 t b f;
#X obj 101 260 t b f;
#X obj 101 310 f;
#X floatatom 101 335 5 0 0 0 - - - 0;
#X obj 101 285 del 2;
#X obj 513 162 bng 20 250 50 0 empty empty empty 0 -10 0 12 #fcfcfc #000000 #000000;
#X msg 513 190 start 2;
#X obj 446 309 s mot_droite-ctl;
#X obj 565 309 s mot_gauche-ctl;
#X obj 446 276 t a;
#X msg 577 188 stop;
#X obj 694 44 loadbang;
#X obj 694 97 metro 1000;
#X obj 694 122 i;
#X obj 725 122 + 1;
#X floatatom 755 122 5 0 0 0 - - - 0;
#X obj 694 71 tgl 20 0 empty empty empty 0 -10 0 12 #fcfcfc #000000 #000000 0 1;
#X msg 775 96 0;
#X obj 694 147 s TIME;
#X msg 809 94 10000;
#X msg 622 192 state 0;
#X msg 624 224 state 1;
#X msg 723 234 raw 1;
#X text 766 236 get pwm;
#X msg 622 275 raw 100 i 0;
#X text 705 276 clear pwm;
#X obj 376 406 metro 10;
#X obj 376 377 tgl 20 0 empty empty empty 0 -10 0 12 #fcfcfc #000000 #000000 0 1;
#X obj 376 431 f;
#X obj 376 456 / 100;
#X obj 376 522 +;
#X obj 606 428 spigot;
#X obj 661 429 tgl 20 0 empty empty empty 0 -10 0 12 #fcfcfc #000000 #000000 0 1;
#X obj 606 453 *;
#X msg 606 480 raw 41 l \$1;
#X obj 406 431 r \$1-VITESSE-snd;
#X obj 409 521 r \$1-POSITION-snd;
#X obj 376 584 s \$1-POSITION-rcv;
#X obj 606 391 r \$1-POSITION-snd;
#X obj 376 489 /;
#X obj 111 500 r \$1-STOP-snd;
#X msg 111 525 0;
#X obj 111 550 s \$1-VITESSE-rcv;
#X obj 376 553 clip 0 1;
#X floatatom 526 490 5 0 0 0 - - - 0;
#X obj 408 489 r \$1-TAB_LENGTH;
#X obj 694 425 r \$1-TAB_LENGTH;
#X floatatom 648 546 5 0 0 0 - - - 0;
#X obj 648 521 r \$1-TOTAL_TIME;
#X obj 47 593 r \$1-COMPUTE_FINISH;
#X floatatom 592 528 5 0 0 0 - - - 0;
#X obj 30 498 loadbang;
#X obj 694 450 - 1;
#X floatatom 447 638 16 0 0 0 - - - 0;
#X obj 376 348 loadbang;
#X msg 650 766 raw 20 \$1;
#X msg 682 723 0;
#X msg 650 722 3;
#X obj 181 309 s \$1-REAL_STEP-snd;
#X msg 92 422 50;
#X obj 92 394 r \$1-VITESSE50-snd;
#X obj 163 449 r \$1-VITESSE100-snd;
#X msg 163 474 100;
#X obj 61 365 r \$1-VITESSE25-snd;
#X msg 61 393 25;
#X obj 129 421 r \$1-VITESSE75-snd;
#X msg 129 446 75;
#X obj 227 524 r \$1-VITESSE-snd;
#X msg 227 577 set \$1;
#X obj 227 605 s \$1-VITESSEd-rcv;
#X obj 227 551 i;
#N canvas 743 346 533 443 check-tables 0;
#X obj 50 34 r \$1-COMPUTE_FINISH;
#X obj 50 123 symbol \$1-TAB_MOTD;
#X msg 50 148 sendtable \$1;
#X obj 50 173 s mot_droite-ctl;
#X msg 191 149 sendtable \$1;
#X obj 191 124 symbol \$1-TAB_MOTG;
#X obj 191 174 s mot_gauche-ctl;
#X obj 50 95 bng 20 250 50 0 empty empty empty 0 -10 0 12 #fcfcfc #000000 #000000;
#X obj 17 92 bng 20 250 50 0 empty empty empty 0 -10 0 12 #fcfcfc #000000 #000000;
#X floatatom 1 242 5 0 0 0 - - - 0;
#X obj 49 218 r mot_droite-table_sent;
#X floatatom 281 251 5 0 0 0 - - - 0;
#X obj 227 216 r mot_gauche-table_sent;
#X obj 356 96 r \$1-TAB_LENGTH;
#X obj 356 121 * 4;
#X obj 49 243 sel -1;
#X floatatom 356 146 5 0 0 0 - - - 0;
#X msg 49 268 1;
#X obj 49 313 &&;
#X obj 79 313 t b f;
#X obj 227 240 sel -1;
#X msg 227 265 1;
#X obj 50 65 t b b, f 9;
#X obj 110 272 t f f;
#X msg 110 247 0;
#X obj 49 338 tgl 20 0 empty empty empty 0 -10 0 12 #fcfcfc #000000 #000000 0 1;
#X obj 25 38 bng 20 250 50 0 empty empty empty 0 -10 0 12 #fcfcfc #000000 #000000;
#X obj 49 363 outlet;
#X obj 221 32 inlet update;
#X connect 0 0 22 0;
#X connect 1 0 2 0;
#X connect 2 0 3 0;
#X connect 4 0 6 0;
#X connect 5 0 4 0;
#X connect 7 0 1 0;
#X connect 7 0 5 0;
#X connect 8 0 1 0;
#X connect 10 0 9 0;
#X connect 10 0 15 0;
#X connect 12 0 11 0;
#X connect 12 0 20 0;
#X connect 13 0 14 0;
#X connect 14 0 16 0;
#X connect 14 0 15 1;
#X connect 14 0 20 1;
#X connect 15 0 17 0;
#X connect 17 0 18 0;
#X connect 18 0 25 0;
#X connect 19 0 18 0;
#X connect 19 1 18 1;
#X connect 20 0 21 0;
#X connect 21 0 19 0;
#X connect 22 0 7 0;
#X connect 22 1 24 0;
#X connect 23 0 18 0;
#X connect 23 1 18 1;
#X connect 24 0 23 0;
#X connect 25 0 27 0;
#X connect 26 0 22 0;
#X connect 28 0 22 0;
#X restore 56 672 pd check-tables;
#X obj 56 698 tgl 20 0 empty empty empty 0 -10 0 12 #fcfcfc #000000 #000000 0 1;
#X obj 175 697 tgl 20 0 empty empty empty 0 -10 0 12 #fcfcfc #000000 #000000 0 1;
#N canvas 419 426 575 471 check_step 0;
#X obj 56 34 r mot_droite-step;
#X obj 56 59 list split 1;
#X obj 188 59 list split 1;
#X obj 188 34 r mot_gauche-step;
#X obj 56 84 -;
#X obj 188 83 -;
#X obj 360 115 *;
#X obj 360 36 r \$1-POSITION-snd;
#X obj 378 65 r \$1-TAB_LENGTH;
#X obj 378 90 - 1;
#X obj 217 83 t b f;
#X obj 86 85 t b f;
#X obj 56 109 abs;
#X obj 188 108 abs;
#X obj 56 159 tgl 20 0 empty empty empty 0 -10 0 12 #fcfcfc #000000 #000000 0 1;
#X obj 188 158 tgl 20 0 empty empty empty 0 -10 0 12 #fcfcfc #000000 #000000 0 1;
#X obj 56 184 &&;
#X obj 87 184 t b f;
#X obj 109 398 outlet;
#X floatatom 360 140 8 0 0 0 - - - 0;
#X obj 56 134 < 20;
#X obj 188 133 < 20;
#X obj 56 259 r mot_droite-step;
#X obj 56 284 list split 1;
#X floatatom 56 309 5 0 0 0 - - - 0;
#X obj 188 284 list split 1;
#X floatatom 188 309 5 0 0 0 - - - 0;
#X obj 188 259 r mot_gauche-step;
#X obj 109 321 -;
#X obj 141 320 t b f;
#X obj 56 209 tgl 20 0 empty empty empty 0 -10 0 12 #fcfcfc #000000 #000000 0 1;
#X obj 109 346 abs;
#X obj 109 371 < 10;
#X connect 0 0 1 0;
#X connect 1 0 4 0;
#X connect 2 0 5 0;
#X connect 3 0 2 0;
#X connect 4 0 12 0;
#X connect 5 0 13 0;
#X connect 6 0 10 0;
#X connect 6 0 11 0;
#X connect 6 0 19 0;
#X connect 7 0 6 0;
#X connect 8 0 9 0;
#X connect 9 0 6 1;
#X connect 10 0 5 0;
#X connect 10 1 5 1;
#X connect 11 0 4 0;
#X connect 11 1 4 1;
#X connect 12 0 20 0;
#X connect 13 0 21 0;
#X connect 14 0 16 0;
#X connect 15 0 17 0;
#X connect 16 0 30 0;
#X connect 17 0 16 0;
#X connect 17 1 16 1;
#X connect 20 0 14 0;
#X connect 21 0 15 0;
#X connect 22 0 23 0;
#X connect 23 0 24 0;
#X connect 23 0 28 0;
#X connect 25 0 26 0;
#X connect 25 0 29 0;
#X connect 27 0 25 0;
#X connect 28 0 31 0;
#X connect 29 0 28 0;
#X connect 29 1 28 1;
#X connect 31 0 32 0;
#X connect 32 0 18 0;
#X restore 175 672 pd check_step;
#X obj 650 671 t b b, f 6;
#X obj 650 696 del 1000;
#X obj 650 642 bng 20 250 50 0 empty empty reinit 23 10 0 12 #ff8300 #000000 #000000;
#N canvas 419 426 575 279 check_state 0;
#X obj 56 159 tgl 20 0 empty empty empty 0 -10 0 12 #fcfcfc #000000 #000000 0 1;
#X obj 223 152 tgl 20 0 empty empty empty 0 -10 0 12 #fcfcfc #000000 #000000 0 1;
#X obj 56 184 &&;
#X obj 87 184 t b f;
#X obj 56 209 outlet;
#X obj 56 34 r mot_droite-state;
#X obj 223 33 r mot_gauche-state;
#X obj 56 59 sel tableramp;
#X msg 56 84 1;
#X msg 144 84 0;
#X obj 56 109 f;
#X obj 223 57 sel tableramp;
#X msg 223 82 1;
#X msg 311 82 0;
#X obj 223 107 f;
#X connect 0 0 2 0;
#X connect 1 0 3 0;
#X connect 2 0 4 0;
#X connect 3 0 2 0;
#X connect 3 1 2 1;
#X connect 5 0 7 0;
#X connect 6 0 11 0;
#X connect 7 0 8 0;
#X connect 7 1 9 0;
#X connect 8 0 10 0;
#X connect 9 0 10 0;
#X connect 10 0 0 0;
#X connect 11 0 12 0;
#X connect 11 1 13 0;
#X connect 12 0 14 0;
#X connect 13 0 14 0;
#X connect 14 0 1 0;
#X restore 280 670 pd check_state;
#X obj 280 695 tgl 20 0 empty empty empty 0 -10 0 12 #fcfcfc #000000 #000000 0 1;
#X obj 388 695 tgl 20 0 empty empty empty 0 -10 0 12 #fcfcfc #000000 #000000 0 1;
#N canvas 419 426 488 279 check_present 0;
#X obj 27 160 tgl 20 0 empty empty empty 0 -10 0 12 #fcfcfc #000000 #000000 0 1;
#X obj 246 149 tgl 20 0 empty empty empty 0 -10 0 12 #fcfcfc #000000 #000000 0 1;
#X obj 27 185 &&;
#X obj 58 185 t b f;
#X obj 27 210 outlet;
#X obj 27 59 route present;
#X obj 246 58 route present;
#X obj 246 34 fruit/receive mot_gauche;
#X obj 27 34 fruit/receive mot_droite;
#X connect 0 0 2 0;
#X connect 1 0 3 0;
#X connect 2 0 4 0;
#X connect 3 0 2 0;
#X connect 3 1 2 1;
#X connect 5 0 0 0;
#X connect 6 0 1 0;
#X connect 7 0 6 0;
#X connect 8 0 5 0;
#X restore 388 670 pd check_present;
#X obj 56 724 &&;
#X obj 85 724 t b f;
#X obj 175 724 &&;
#X obj 204 724 t b f;
#X obj 280 722 &&;
#X obj 309 722 t b f;
#X obj 56 749 tgl 20 0 empty empty empty 0 -10 0 12 #fcfcfc #000000 #000000 0 1;
#X obj 620 803 s \$1-COMPUTE_FINISH;
#X obj 56 774 change;
#X obj 56 799 sel 0 1, f 18;
#X obj 56 854 del 100;
#X msg 56 879 0;
#X msg 66 829 stop;
#X msg 127 829 stop;
#X obj 117 854 del 500;
#X obj 56 904 change -1;
#X msg 117 879 1;
#X obj 56 929 s \$1-MOTORS_READY;
#X obj 732 390 r \$1-MOTORS_READY;
#X msg 769 780 0;
#X msg 767 711 0;
#X obj 247 845 r \$1-MOTORS_READY;
#X obj 247 876 print MOTORS_READY;
#X obj 509 694 tgl 20 0 empty empty empty 0 -10 0 12 #fcfcfc #000000 #000000 0 1;
#N canvas 419 426 575 279 check_hash 0;
#X obj 56 73 tgl 20 0 empty empty empty 0 -10 0 12 #fcfcfc #000000 #000000 0 1;
#X obj 220 71 tgl 20 0 empty empty empty 0 -10 0 12 #fcfcfc #000000 #000000 0 1;
#X obj 56 98 &&;
#X obj 87 98 t b f;
#X obj 56 123 outlet;
#X obj 56 34 r mot_droite-hashOK;
#X obj 220 33 r mot_gauche-hashOK;
#X connect 0 0 2 0;
#X connect 1 0 3 0;
#X connect 2 0 4 0;
#X connect 3 0 2 0;
#X connect 3 1 2 1;
#X connect 5 0 0 0;
#X connect 6 0 1 0;
#X restore 509 669 pd check_hash;
#X obj 389 721 &&;
#X obj 418 721 t b f;
#X obj 769 804 s \$1-VITESSE-rcv;
#X obj 767 735 s \$1-POSITION-rcv;
#X msg 241 238 0;
#N canvas 743 346 289 129 \$0-CONFIRM_REINIT 0;
#X obj 2 1 cnv 20 280 120 empty empty empty 20 12 0 12 #e0e0e0 #404040 0;
#X obj 34 52 bng 50 250 50 0 \$0-reinit-ok-snd \$0-reinit-ok-rcv OK 17 25 0 16 #00ff04 #000000 #000000;
#X obj 210 52 bng 50 250 50 0 \$0-reinit-cancel-snd \$0-reinit-cancel-rcv CANCEL 5 25 0 12 #faff00 #000000 #000000;
#X text 20 11 Cliquer sur OK pour confirmer que le mobile est à sa place de départ:, f 35;
#X restore 723 580 pd \$0-CONFIRM_REINIT;
#N canvas 735 578 410 180 reinit-confirm-logic 0;
#X msg 17 84 vis 1;
#X obj 17 112 s pd-\$0-CONFIRM_REINIT;
#X obj 17 19 r \$1-reinit-show-snd;
#X msg 66 84 vis 0;
#X obj 235 109 outlet;
#X obj 198 21 r \$0-reinit-cancel-snd;
#X obj 235 50 r \$0-reinit-ok-snd;
#X connect 0 0 1 0;
#X connect 2 0 0 0;
#X connect 3 0 1 0;
#X connect 5 0 3 0;
#X connect 6 0 3 0;
#X connect 6 0 4 0;
#X restore 650 617 pd reinit-confirm-logic;
#N canvas 0 0 450 203 display_state_name 0;
#X obj 48 139 s \$1-state-name-canvas;
#X msg 48 99 label PRET \, color 16 22;
#X msg 223 100 label PAS\ PRET \, color 13 22;
#X obj 48 28 r \$1-MOTORS_READY;
#X obj 48 53 sel 1 0;
#X connect 1 0 0 0;
#X connect 2 0 0 0;
#X connect 3 0 4 0;
#X connect 4 0 1 0;
#X connect 4 1 2 0;
#X restore 246 796 pd display_state_name;
#X obj 175 869 loadbang;
#X msg 175 894 0;
#X connect 4 0 5 0;
#X connect 5 0 6 0;
#X connect 5 0 10 0;
#X connect 7 0 8 0;
#X connect 7 0 11 0;
#X connect 7 0 69 0;
#X connect 9 0 7 0;
#X connect 10 0 12 0;
#X connect 11 0 10 0;
#X connect 11 1 10 1;
#X connect 12 0 15 0;
#X connect 12 1 13 1;
#X connect 13 0 14 0;
#X connect 15 0 13 0;
#X connect 16 0 17 0;
#X connect 17 0 20 0;
#X connect 20 0 18 0;
#X connect 20 0 19 0;
#X connect 21 0 20 0;
#X connect 22 0 27 0;
#X connect 23 0 24 0;
#X connect 24 0 25 0;
#X connect 24 0 26 0;
#X connect 24 0 29 0;
#X connect 25 0 24 1;
#X connect 27 0 23 0;
#X connect 28 0 24 1;
#X connect 30 0 24 1;
#X connect 31 0 20 0;
#X connect 32 0 20 0;
#X connect 33 0 20 0;
#X connect 35 0 20 0;
#X connect 37 0 39 0;
#X connect 38 0 37 0;
#X connect 39 0 40 0;
#X connect 40 0 50 0;
#X connect 41 0 54 0;
#X connect 42 0 44 0;
#X connect 43 0 42 1;
#X connect 44 0 45 0;
#X connect 44 0 61 0;
#X connect 45 0 20 0;
#X connect 46 0 39 1;
#X connect 47 0 41 1;
#X connect 49 0 42 0;
#X connect 50 0 41 0;
#X connect 51 0 52 0;
#X connect 52 0 53 0;
#X connect 54 0 48 0;
#X connect 54 0 64 0;
#X connect 56 0 50 1;
#X connect 56 0 55 0;
#X connect 57 0 63 0;
#X connect 59 0 58 0;
#X connect 62 0 52 0;
#X connect 63 0 44 1;
#X connect 65 0 38 0;
#X connect 66 0 20 0;
#X connect 67 0 66 0;
#X connect 68 0 66 0;
#X connect 70 0 53 0;
#X connect 71 0 70 0;
#X connect 72 0 73 0;
#X connect 73 0 53 0;
#X connect 74 0 75 0;
#X connect 75 0 53 0;
#X connect 76 0 77 0;
#X connect 77 0 53 0;
#X connect 78 0 81 0;
#X connect 79 0 80 0;
#X connect 81 0 79 0;
#X connect 82 0 83 0;
#X connect 83 0 93 0;
#X connect 84 0 95 0;
#X connect 85 0 84 0;
#X connect 86 0 87 0;
#X connect 86 1 67 0;
#X connect 86 1 112 0;
#X connect 86 1 113 0;
#X connect 87 0 68 0;
#X connect 87 0 82 0;
#X connect 88 0 86 0;
#X connect 89 0 90 0;
#X connect 90 0 97 0;
#X connect 91 0 118 0;
#X connect 92 0 91 0;
#X connect 93 0 99 0;
#X connect 94 0 93 0;
#X connect 94 1 93 1;
#X connect 95 0 94 0;
#X connect 96 0 95 0;
#X connect 96 1 95 1;
#X connect 97 0 96 0;
#X connect 98 0 97 0;
#X connect 98 1 97 1;
#X connect 99 0 101 0;
#X connect 101 0 102 0;
#X connect 102 0 103 0;
#X connect 102 0 106 0;
#X connect 102 1 105 0;
#X connect 102 1 107 0;
#X connect 103 0 104 0;
#X connect 104 0 108 0;
#X connect 105 0 103 0;
#X connect 106 0 107 0;
#X connect 107 0 109 0;
#X connect 108 0 110 0;
#X connect 109 0 108 0;
#X connect 111 0 43 0;
#X connect 112 0 120 0;
#X connect 113 0 121 0;
#X connect 114 0 115 0;
#X connect 116 0 119 0;
#X connect 117 0 116 0;
#X connect 118 0 98 0;
#X connect 119 0 118 0;
#X connect 119 1 118 1;
#X connect 122 0 69 0;
#X connect 124 0 88 0;
#X connect 126 0 127 0;
#X connect 127 0 110 0;
