#N canvas 675 145 872 823 12;
#X obj 32 83 motor_control mot_droite;
#X obj 32 14 wifruit mot_droite fAFB464EFAAB1C15F;
#X obj 356 14 wifruit mot_gauche f7187834E39D13680;
#X obj 356 83 motor_control mot_gauche;
#X obj 48 173 r mot_droite-step;
#X obj 48 198 list split 1;
#X floatatom 48 223 5 0 0 0 - - - 0;
#X obj 180 198 list split 1;
#X floatatom 180 223 5 0 0 0 - - - 0;
#X obj 180 173 r mot_gauche-step;
#X obj 98 272 -;
#X obj 129 271 t b f;
#X obj 98 297 t b f;
#X obj 98 347 f;
#X floatatom 98 372 5 0 0 0 - - - 0;
#X obj 98 322 del 2;
#X obj 513 162 bng 20 250 50 0 empty empty empty 0 -10 0 12 #fcfcfc #000000 #000000;
#X msg 513 190 start 2;
#X obj 446 309 s mot_droite-ctl;
#X obj 565 309 s mot_gauche-ctl;
#X obj 446 276 t a;
#X msg 577 188 stop;
#X obj 694 44 loadbang;
#X obj 694 97 metro 1000;
#X obj 694 122 i;
#X obj 725 122 + 1;
#X floatatom 755 122 5 0 0 0 - - - 0;
#X obj 694 71 tgl 20 0 empty empty empty 0 -10 0 12 #fcfcfc #000000 #000000 0 1;
#X msg 775 96 0;
#X obj 694 147 s TIME;
#X msg 809 94 10000;
#X msg 622 192 state 0;
#X msg 624 224 state 1;
#X msg 723 234 raw 1;
#X text 766 236 get pwm;
#X msg 622 275 raw 100 i 0;
#X text 705 276 clear pwm;
#X obj 347 401 metro 10;
#X obj 347 359 tgl 20 0 empty empty empty 0 -10 0 12 #fcfcfc #000000 #000000 0 1;
#X obj 347 426 f;
#X obj 347 451 / 100;
#X obj 347 517 +;
#X obj 606 428 spigot;
#X obj 661 429 tgl 20 0 empty empty empty 0 -10 0 12 #fcfcfc #000000 #000000 0 1;
#X obj 606 453 *;
#X msg 606 480 raw 41 l \$1;
#X obj 377 426 r \$1-VITESSE-snd;
#X obj 380 516 r \$1-POSITION-snd;
#X obj 347 579 s \$1-POSITION-rcv;
#X obj 606 391 r \$1-POSITION-snd;
#X obj 347 484 /;
#X obj 193 467 r \$1-STOP-snd;
#X msg 193 492 0;
#X obj 193 517 s \$1-VITESSE-rcv;
#X obj 347 548 clip 0 1;
#X floatatom 497 485 5 0 0 0 - - - 0;
#X obj 379 484 r \$1-TAB_LENGTH;
#X obj 694 425 r \$1-TAB_LENGTH;
#X floatatom 648 546 5 0 0 0 - - - 0;
#X obj 648 521 r \$1-TOTAL_TIME;
#X obj 53 545 r \$1-COMPUTE_FINISH;
#X obj 53 600 symbol \$1-TAB_MOTD;
#X msg 53 625 sendtable \$1;
#X obj 53 650 s mot_droite-ctl;
#X msg 194 626 sendtable \$1;
#X obj 194 601 symbol \$1-TAB_MOTG;
#X obj 194 651 s mot_gauche-ctl;
#X obj 53 572 bng 20 250 50 0 empty empty empty 0 -10 0 12 #fcfcfc #000000 #000000;
#X obj 20 569 bng 20 250 50 0 empty empty empty 0 -10 0 12 #fcfcfc #000000 #000000;
#X floatatom 51 746 5 0 0 0 - - - 0;
#X obj 51 721 r mot_droite-table_sent;
#X floatatom 229 744 5 0 0 0 - - - 0;
#X obj 229 719 r mot_gauche-table_sent;
#X obj 51 770 bng 20 250 50 0 empty empty empty 0 -10 0 12 #fcfcfc #000000 #000000;
#X obj 229 768 bng 20 250 50 0 empty empty empty 0 -10 0 12 #fcfcfc #000000 #000000;
#X floatatom 559 555 5 0 0 0 - - - 0;
#X obj 112 465 loadbang;
#X obj 694 450 - 1;
#X floatatom 418 633 16 0 0 0 - - - 0;
#X connect 4 0 5 0;
#X connect 5 0 6 0;
#X connect 5 0 10 0;
#X connect 7 0 8 0;
#X connect 7 0 11 0;
#X connect 9 0 7 0;
#X connect 10 0 12 0;
#X connect 11 0 10 0;
#X connect 11 1 10 1;
#X connect 12 0 15 0;
#X connect 12 1 13 1;
#X connect 13 0 14 0;
#X connect 15 0 13 0;
#X connect 16 0 17 0;
#X connect 17 0 20 0;
#X connect 20 0 18 0;
#X connect 20 0 19 0;
#X connect 21 0 20 0;
#X connect 22 0 27 0;
#X connect 23 0 24 0;
#X connect 24 0 25 0;
#X connect 24 0 26 0;
#X connect 24 0 29 0;
#X connect 25 0 24 1;
#X connect 27 0 23 0;
#X connect 28 0 24 1;
#X connect 30 0 24 1;
#X connect 31 0 20 0;
#X connect 32 0 20 0;
#X connect 33 0 20 0;
#X connect 35 0 20 0;
#X connect 37 0 39 0;
#X connect 38 0 37 0;
#X connect 39 0 40 0;
#X connect 40 0 50 0;
#X connect 41 0 54 0;
#X connect 42 0 44 0;
#X connect 43 0 42 1;
#X connect 44 0 45 0;
#X connect 44 0 75 0;
#X connect 45 0 20 0;
#X connect 46 0 39 1;
#X connect 47 0 41 1;
#X connect 49 0 42 0;
#X connect 50 0 41 0;
#X connect 51 0 52 0;
#X connect 52 0 53 0;
#X connect 54 0 48 0;
#X connect 54 0 78 0;
#X connect 56 0 50 1;
#X connect 56 0 55 0;
#X connect 57 0 77 0;
#X connect 59 0 58 0;
#X connect 60 0 67 0;
#X connect 61 0 62 0;
#X connect 62 0 63 0;
#X connect 64 0 66 0;
#X connect 65 0 64 0;
#X connect 67 0 61 0;
#X connect 67 0 65 0;
#X connect 68 0 61 0;
#X connect 69 0 73 0;
#X connect 70 0 69 0;
#X connect 71 0 74 0;
#X connect 72 0 71 0;
#X connect 76 0 52 0;
#X connect 77 0 44 1;
