#N canvas 936 15 920 855 12;
#X obj 32 80 motor_control mot_droite;
#X obj 32 14 wifruit mot_droite fAFB464EFAAB1C15F;
#X obj 356 14 wifruit mot_gauche f7187834E39D13680;
#X obj 356 80 motor_control mot_gauche;
#X obj 694 44 loadbang;
#X obj 694 97 metro 1000;
#X obj 694 122 i;
#X obj 725 122 + 1;
#X floatatom 755 122 5 0 0 0 - - - 0;
#X obj 694 71 tgl 20 0 empty empty empty 0 -10 0 12 #fcfcfc #000000 #000000 0 1;
#X msg 775 96 0;
#X obj 694 147 s TIME;
#X msg 809 94 10000;
#X obj 372 290 metro 10;
#X obj 372 261 tgl 20 0 empty empty empty 0 -10 0 12 #fcfcfc #000000 #000000 0 1;
#X obj 372 315 f;
#X obj 372 340 / 100;
#X obj 372 406 +;
#X obj 640 259 spigot;
#X obj 695 260 tgl 20 0 empty empty empty 0 -10 0 12 #fcfcfc #000000 #000000 0 1;
#X obj 640 284 *;
#X msg 640 311 raw 41 l \$1;
#X obj 402 315 r \$1-VITESSE-snd;
#X obj 405 405 r \$1-POSITION-snd;
#X obj 372 468 s \$1-POSITION-rcv;
#X obj 640 222 r \$1-POSITION-snd;
#X obj 372 373 /;
#X obj 107 384 r \$1-STOP-snd;
#X msg 107 409 0;
#X obj 107 434 s \$1-VITESSE-rcv;
#X obj 372 437 clip 0 1;
#X floatatom 522 374 5 0 0 0 - - - 0;
#X obj 404 373 r \$1-TAB_LENGTH;
#X obj 728 256 r \$1-TAB_LENGTH;
#X floatatom 644 430 5 0 0 0 - - - 0;
#X obj 644 405 r \$1-TOTAL_TIME;
#X obj 43 477 r \$1-COMPUTE_FINISH;
#X floatatom 588 412 5 0 0 0 - - - 0;
#X obj 26 382 loadbang;
#X obj 728 281 - 1;
#X floatatom 443 522 16 0 0 0 - - - 0;
#X obj 372 232 loadbang;
#X msg 646 650 raw 20 \$1;
#X msg 678 607 0;
#X msg 646 606 3;
#X msg 88 306 50;
#X obj 88 278 r \$1-VITESSE50-snd;
#X obj 159 333 r \$1-VITESSE100-snd;
#X msg 159 358 100;
#X obj 57 249 r \$1-VITESSE25-snd;
#X msg 57 277 25;
#X obj 125 305 r \$1-VITESSE75-snd;
#X msg 125 330 75;
#X obj 223 408 r \$1-VITESSE-snd;
#X msg 223 461 set \$1;
#X obj 223 489 s \$1-VITESSEd-rcv;
#X obj 223 435 i;
#N canvas 743 346 533 443 check-tables 0;
#X obj 50 34 r \$1-COMPUTE_FINISH;
#X obj 50 123 symbol \$1-TAB_MOTD;
#X msg 50 148 sendtable \$1;
#X obj 50 173 s mot_droite-ctl;
#X msg 191 149 sendtable \$1;
#X obj 191 124 symbol \$1-TAB_MOTG;
#X obj 191 174 s mot_gauche-ctl;
#X obj 50 95 bng 20 250 50 0 empty empty empty 0 -10 0 12 #fcfcfc #000000 #000000;
#X obj 17 92 bng 20 250 50 0 empty empty empty 0 -10 0 12 #fcfcfc #000000 #000000;
#X floatatom 1 242 5 0 0 0 - - - 0;
#X obj 49 218 r mot_droite-table_sent;
#X floatatom 281 251 5 0 0 0 - - - 0;
#X obj 227 216 r mot_gauche-table_sent;
#X obj 356 96 r \$1-TAB_LENGTH;
#X obj 356 121 * 4;
#X obj 49 243 sel -1;
#X floatatom 356 146 5 0 0 0 - - - 0;
#X msg 49 268 1;
#X obj 49 313 &&;
#X obj 79 313 t b f;
#X obj 227 240 sel -1;
#X msg 227 265 1;
#X obj 50 65 t b b, f 9;
#X obj 110 272 t f f;
#X msg 110 247 0;
#X obj 49 338 tgl 20 0 empty empty empty 0 -10 0 12 #fcfcfc #000000 #000000 0 1;
#X obj 25 38 bng 20 250 50 0 empty empty empty 0 -10 0 12 #fcfcfc #000000 #000000;
#X obj 49 363 outlet;
#X obj 221 32 inlet update;
#X connect 0 0 22 0;
#X connect 1 0 2 0;
#X connect 2 0 3 0;
#X connect 4 0 6 0;
#X connect 5 0 4 0;
#X connect 7 0 1 0;
#X connect 7 0 5 0;
#X connect 8 0 1 0;
#X connect 10 0 9 0;
#X connect 10 0 15 0;
#X connect 12 0 11 0;
#X connect 12 0 20 0;
#X connect 13 0 14 0;
#X connect 14 0 16 0;
#X connect 14 0 15 1;
#X connect 14 0 20 1;
#X connect 15 0 17 0;
#X connect 17 0 18 0;
#X connect 18 0 25 0;
#X connect 19 0 18 0;
#X connect 19 1 18 1;
#X connect 20 0 21 0;
#X connect 21 0 19 0;
#X connect 22 0 7 0;
#X connect 22 1 24 0;
#X connect 23 0 18 0;
#X connect 23 1 18 1;
#X connect 24 0 23 0;
#X connect 25 0 27 0;
#X connect 26 0 22 0;
#X connect 28 0 22 0;
#X restore 52 556 pd check-tables;
#X obj 52 582 tgl 20 0 empty empty empty 0 -10 0 12 #fcfcfc #000000 #000000 0 1;
#X obj 171 581 tgl 20 0 empty empty empty 0 -10 0 12 #fcfcfc #000000 #000000 0 1;
#N canvas 149 513 575 471 check_step 0;
#X obj 56 34 r mot_droite-step;
#X obj 56 59 list split 1;
#X obj 188 59 list split 1;
#X obj 188 34 r mot_gauche-step;
#X obj 56 84 -;
#X obj 188 83 -;
#X obj 360 115 *;
#X obj 360 36 r \$1-POSITION-snd;
#X obj 378 65 r \$1-TAB_LENGTH;
#X obj 378 90 - 1;
#X obj 217 83 t b f;
#X obj 86 85 t b f;
#X obj 56 109 abs;
#X obj 188 108 abs;
#X obj 56 159 tgl 20 0 empty empty empty 0 -10 0 12 #fcfcfc #000000 #000000 0 1;
#X obj 188 158 tgl 20 0 empty empty empty 0 -10 0 12 #fcfcfc #000000 #000000 0 1;
#X obj 56 184 &&;
#X obj 87 184 t b f;
#X obj 109 398 outlet;
#X floatatom 360 140 8 0 0 0 - - - 0;
#X obj 56 134 < 20;
#X obj 188 133 < 20;
#X obj 56 259 r mot_droite-step;
#X obj 56 284 list split 1;
#X floatatom 56 309 5 0 0 0 - - - 0;
#X obj 188 284 list split 1;
#X floatatom 188 309 5 0 0 0 - - - 0;
#X obj 188 259 r mot_gauche-step;
#X obj 109 321 -;
#X obj 141 320 t b f;
#X obj 56 209 tgl 20 0 empty empty empty 0 -10 0 12 #fcfcfc #000000 #000000 0 1;
#X obj 109 346 abs;
#X obj 109 371 < 10;
#X obj 275 178 loadbang;
#X obj 274 206 bng 20 250 50 0 empty empty empty 0 -10 0 12 #fcfcfc #000000 #000000;
#X connect 0 0 1 0;
#X connect 1 0 4 0;
#X connect 2 0 5 0;
#X connect 3 0 2 0;
#X connect 4 0 12 0;
#X connect 5 0 13 0;
#X connect 6 0 10 0;
#X connect 6 0 11 0;
#X connect 6 0 19 0;
#X connect 7 0 6 0;
#X connect 8 0 9 0;
#X connect 9 0 6 1;
#X connect 10 0 5 0;
#X connect 10 1 5 1;
#X connect 11 0 4 0;
#X connect 11 1 4 1;
#X connect 12 0 20 0;
#X connect 13 0 21 0;
#X connect 14 0 16 0;
#X connect 15 0 17 0;
#X connect 16 0 30 0;
#X connect 17 0 16 0;
#X connect 17 1 16 1;
#X connect 20 0 14 0;
#X connect 21 0 15 0;
#X connect 22 0 23 0;
#X connect 23 0 24 0;
#X connect 23 0 28 0;
#X connect 25 0 26 0;
#X connect 25 0 29 0;
#X connect 27 0 25 0;
#X connect 28 0 31 0;
#X connect 29 0 28 0;
#X connect 29 1 28 1;
#X connect 31 0 32 0;
#X connect 32 0 18 0;
#X restore 171 556 pd check_step;
#X obj 646 555 t b b, f 6;
#X obj 646 580 del 1000;
#X obj 646 526 bng 20 250 50 0 empty empty reinit 23 10 0 12 #ff8300 #000000 #000000;
#N canvas 419 426 575 279 check_state 0;
#X obj 56 159 tgl 20 0 empty empty empty 0 -10 0 12 #fcfcfc #000000 #000000 0 1;
#X obj 223 152 tgl 20 0 empty empty empty 0 -10 0 12 #fcfcfc #000000 #000000 0 1;
#X obj 56 184 &&;
#X obj 87 184 t b f;
#X obj 56 209 outlet;
#X obj 56 34 r mot_droite-state;
#X obj 223 33 r mot_gauche-state;
#X obj 56 59 sel tableramp;
#X msg 56 84 1;
#X msg 144 84 0;
#X obj 56 109 f;
#X obj 223 57 sel tableramp;
#X msg 223 82 1;
#X msg 311 82 0;
#X obj 223 107 f;
#X connect 0 0 2 0;
#X connect 1 0 3 0;
#X connect 2 0 4 0;
#X connect 3 0 2 0;
#X connect 3 1 2 1;
#X connect 5 0 7 0;
#X connect 6 0 11 0;
#X connect 7 0 8 0;
#X connect 7 1 9 0;
#X connect 8 0 10 0;
#X connect 9 0 10 0;
#X connect 10 0 0 0;
#X connect 11 0 12 0;
#X connect 11 1 13 0;
#X connect 12 0 14 0;
#X connect 13 0 14 0;
#X connect 14 0 1 0;
#X restore 276 554 pd check_state;
#X obj 276 579 tgl 20 0 empty empty empty 0 -10 0 12 #fcfcfc #000000 #000000 0 1;
#X obj 384 579 tgl 20 0 empty empty empty 0 -10 0 12 #fcfcfc #000000 #000000 0 1;
#N canvas 523 626 488 279 check_present 0;
#X obj 27 160 tgl 20 0 empty empty empty 0 -10 0 12 #fcfcfc #000000 #000000 0 1;
#X obj 246 149 tgl 20 0 empty empty empty 0 -10 0 12 #fcfcfc #000000 #000000 0 1;
#X obj 27 185 &&;
#X obj 58 185 t b f;
#X obj 27 210 outlet;
#X obj 27 59 route present;
#X obj 246 58 route present;
#X obj 246 34 fruit/receive mot_gauche;
#X obj 27 34 fruit/receive mot_droite;
#X obj 246 89 debounce 2500 1;
#X obj 27 100 debounce 2500 1;
#X connect 0 0 2 0;
#X connect 1 0 3 0;
#X connect 2 0 4 0;
#X connect 3 0 2 0;
#X connect 3 1 2 1;
#X connect 5 0 10 0;
#X connect 6 0 9 0;
#X connect 7 0 6 0;
#X connect 8 0 5 0;
#X connect 9 0 1 0;
#X connect 10 0 0 0;
#X restore 384 554 pd check_present;
#X obj 52 608 &&;
#X obj 81 608 t b f;
#X obj 200 608 t b f;
#X obj 276 606 &&;
#X obj 305 606 t b f;
#X obj 52 633 tgl 20 0 empty empty empty 0 -10 0 12 #fcfcfc #000000 #000000 0 1;
#X obj 560 785 s \$1-COMPUTE_FINISH;
#X obj 52 722 s \$1-MOTORS_READY;
#X obj 766 221 r \$1-MOTORS_READY;
#X msg 765 664 0;
#X msg 763 595 0;
#X obj 257 729 r \$1-MOTORS_READY;
#X obj 257 760 print MOTORS_READY;
#X obj 505 578 tgl 20 0 empty empty empty 0 -10 0 12 #fcfcfc #000000 #000000 0 1;
#N canvas 419 426 575 279 check_hash 0;
#X obj 56 73 tgl 20 0 empty empty empty 0 -10 0 12 #fcfcfc #000000 #000000 0 1;
#X obj 220 71 tgl 20 0 empty empty empty 0 -10 0 12 #fcfcfc #000000 #000000 0 1;
#X obj 56 98 &&;
#X obj 87 98 t b f;
#X obj 56 123 outlet;
#X obj 56 34 r mot_droite-hashOK;
#X obj 220 33 r mot_gauche-hashOK;
#X connect 0 0 2 0;
#X connect 1 0 3 0;
#X connect 2 0 4 0;
#X connect 3 0 2 0;
#X connect 3 1 2 1;
#X connect 5 0 0 0;
#X connect 6 0 1 0;
#X restore 505 553 pd check_hash;
#X obj 385 605 &&;
#X obj 414 605 t b f;
#X obj 765 688 s \$1-VITESSE-rcv;
#X obj 763 619 s \$1-POSITION-rcv;
#N canvas 743 346 289 129 \$0-CONFIRM_REINIT 0;
#X obj 2 1 cnv 20 280 120 empty empty empty 20 12 0 12 #e0e0e0 #404040 0;
#X obj 34 52 bng 50 250 50 0 \$0-reinit-ok-snd \$0-reinit-ok-rcv OK 17 25 0 16 #00ff04 #000000 #000000;
#X obj 210 52 bng 50 250 50 0 \$0-reinit-cancel-snd \$0-reinit-cancel-rcv CANCEL 5 25 0 12 #faff00 #000000 #000000;
#X text 20 11 Cliquer sur OK pour confirmer que le mobile est à sa place de départ:, f 35;
#X restore 719 464 pd \$0-CONFIRM_REINIT;
#N canvas 735 578 410 180 reinit-confirm-logic 0;
#X msg 17 84 vis 1;
#X obj 17 112 s pd-\$0-CONFIRM_REINIT;
#X obj 17 19 r \$1-reinit-show-snd;
#X msg 66 84 vis 0;
#X obj 235 109 outlet;
#X obj 198 21 r \$0-reinit-cancel-snd;
#X obj 235 50 r \$0-reinit-ok-snd;
#X connect 0 0 1 0;
#X connect 2 0 0 0;
#X connect 3 0 1 0;
#X connect 5 0 3 0;
#X connect 6 0 3 0;
#X connect 6 0 4 0;
#X restore 646 501 pd reinit-confirm-logic;
#N canvas 0 0 450 203 display_state_name 0;
#X obj 48 139 s \$1-state-name-canvas;
#X msg 48 99 label PRET \, color 16 22;
#X msg 223 100 label PAS\ PRET \, color 13 22;
#X obj 48 28 r \$1-MOTORS_READY;
#X obj 48 53 sel 1 0;
#X connect 1 0 0 0;
#X connect 2 0 0 0;
#X connect 3 0 4 0;
#X connect 4 0 1 0;
#X connect 4 1 2 0;
#X restore 256 680 pd display_state_name;
#X obj 173 662 loadbang;
#X msg 173 687 0;
#N canvas 477 326 450 300 send_real_pos 1;
#X obj 31 39 r mot_droite-step;
#X obj 31 64 list split 1;
#X obj 163 64 list split 1;
#X obj 163 39 r mot_gauche-step;
#X obj 164 175 s \$1-REAL_STEP-snd;
#X obj 337 39 r \$1-TAB_LENGTH;
#X obj 31 89 /;
#X obj 192 118 /;
#X floatatom 351 149 5 0 0 0 - - - 0;
#X obj 337 64 - 1;
#X floatatom 209 225 5 0 0 0 - - - 0;
#X obj 192 143 s \$1-real_pos-G-rcv;
#X obj 31 114 s \$1-real_pos-D-rcv;
#X floatatom 4 150 8 0 0 0 - - - 0;
#X floatatom 79 213 8 0 0 0 - - - 0;
#X connect 0 0 1 0;
#X connect 0 0 13 0;
#X connect 1 0 6 0;
#X connect 2 0 4 0;
#X connect 2 0 7 0;
#X connect 3 0 2 0;
#X connect 3 0 14 0;
#X connect 5 0 9 0;
#X connect 6 0 12 0;
#X connect 7 0 10 0;
#X connect 7 0 11 0;
#X connect 9 0 8 0;
#X connect 9 0 7 1;
#X connect 9 0 6 1;
#X restore 32 158 pd send_real_pos;
#X obj 547 756 bng 20 250 50 0 empty empty empty 0 -10 0 12 #fcfcfc #000000 #000000;
#X obj 171 608 &&;
#N canvas 727 337 832 586 play_in_n_seconds 0;
#X obj 79 431 bng 20 250 50 0 empty empty empty 0 -10 0 12 #fcfcfc #000000 #000000;
#X obj 191 527 s mot_droite-ctl;
#X obj 310 527 s mot_gauche-ctl;
#X obj 191 494 t a;
#X msg 291 380 stop;
#X msg 372 383 state 0;
#X msg 373 407 state 1;
#X msg 468 452 raw 1;
#X text 511 454 get pwm;
#X msg 602 456 raw 100 i 0;
#X text 685 457 clear pwm;
#X msg 373 432 state 2;
#X msg 372 454 state 3;
#X msg 136 74 120;
#X obj 90 107 /;
#X obj 90 132 * 1000;
#X msg 102 74 90;
#X obj 119 106 r \$1-TAB_LENGTH;
#X floatatom 25 168 5 0 0 0 - - - 0;
#X msg 79 459 start 2 10;
#X msg 90 241 start 2 \$1;
#X msg 55 74 60;
#X obj 90 159 spigot;
#X obj 239 107 r \$1-MOTORS_READY;
#X obj 90 42 r \$1-PLAY_IN_N_SECONDS;
#X obj 314 341 r \$1-STOP-snd;
#X obj 404 96 fruit/receive mot_droite;
#X obj 585 95 fruit/receive mot_gauche;
#X obj 404 121 route play;
#X obj 585 120 route play;
#X obj 90 215 t a b b, f 31;
#X obj 197 292 spigot;
#X obj 260 292 spigot;
#X msg 303 242 1;
#X msg 404 146 0;
#X msg 585 145 0;
#X msg 91 511 raw 1;
#X obj 197 243 del 700;
#X obj 507 324 t b b;
#X obj 236 150 r \$1-STOP-snd;
#X msg 236 175 stop;
#X obj 197 317 b;
#X obj 23 362 del 200;
#X obj 90 187 f;
#X msg 15 244 60000;
#X connect 0 0 19 0;
#X connect 3 0 1 0;
#X connect 3 0 2 0;
#X connect 4 0 3 0;
#X connect 5 0 3 0;
#X connect 6 0 3 0;
#X connect 7 0 3 0;
#X connect 9 0 3 0;
#X connect 11 0 3 0;
#X connect 12 0 3 0;
#X connect 13 0 14 0;
#X connect 14 0 15 0;
#X connect 15 0 18 0;
#X connect 15 0 22 0;
#X connect 16 0 14 0;
#X connect 17 0 14 1;
#X connect 19 0 3 0;
#X connect 20 0 3 0;
#X connect 21 0 14 0;
#X connect 22 0 43 0;
#X connect 23 0 22 1;
#X connect 24 0 14 0;
#X connect 25 0 4 0;
#X connect 26 0 28 0;
#X connect 27 0 29 0;
#X connect 28 0 34 0;
#X connect 29 0 35 0;
#X connect 30 0 20 0;
#X connect 30 1 37 0;
#X connect 30 2 33 0;
#X connect 30 2 38 0;
#X connect 31 0 41 0;
#X connect 32 0 41 0;
#X connect 33 0 32 1;
#X connect 33 0 31 1;
#X connect 34 0 31 1;
#X connect 35 0 32 1;
#X connect 36 0 3 0;
#X connect 37 0 31 0;
#X connect 37 0 32 0;
#X connect 38 0 9 0;
#X connect 38 1 5 0;
#X connect 39 0 40 0;
#X connect 40 0 37 0;
#X connect 40 0 42 0;
#X connect 41 0 4 0;
#X connect 41 0 42 0;
#X connect 42 0 43 0;
#X connect 43 0 30 0;
#X connect 44 0 43 0;
#X restore 32 185 pd play_in_n_seconds;
#X obj 646 721 s mot_droite-ctl;
#X obj 765 721 s mot_gauche-ctl;
#X obj 646 688 t a;
#X obj 640 370 s mot_droite-ctl;
#X obj 759 370 s mot_gauche-ctl;
#X obj 640 337 t a;
#X obj 245 170 r mot_droite-state;
#X obj 245 195 sel error;
#X obj 381 171 r mot_gauche-state;
#X obj 245 222 s \$1-STOP-rcv;
#X obj 801 653 s \$1-STOP-rcv;
#N canvas 408 563 568 395 return_home 0;
#X obj 132 44 tgl 20 0 empty empty empty 0 -10 0 12 #fcfcfc #000000 #000000 0 1;
#N canvas 50 489 575 471 check_step 0;
#X obj 56 34 r mot_droite-step;
#X obj 56 59 list split 1;
#X obj 188 59 list split 1;
#X obj 188 34 r mot_gauche-step;
#X obj 56 84 -;
#X obj 188 83 -;
#X obj 360 115 *;
#X obj 360 36 r \$1-POSITION-snd;
#X obj 378 65 r \$1-TAB_LENGTH;
#X obj 378 90 - 1;
#X obj 217 83 t b f;
#X obj 86 85 t b f;
#X obj 56 109 abs;
#X obj 188 108 abs;
#X obj 56 159 tgl 20 0 empty empty empty 0 -10 0 12 #fcfcfc #000000 #000000 0 1;
#X obj 188 158 tgl 20 0 empty empty empty 0 -10 0 12 #fcfcfc #000000 #000000 0 1;
#X obj 56 184 &&;
#X obj 87 184 t b f;
#X obj 109 398 outlet;
#X floatatom 360 140 8 0 0 0 - - - 0;
#X obj 56 134 < 20;
#X obj 188 133 < 20;
#X obj 56 259 r mot_droite-step;
#X obj 56 284 list split 1;
#X floatatom 56 309 5 0 0 0 - - - 0;
#X obj 188 284 list split 1;
#X floatatom 188 309 5 0 0 0 - - - 0;
#X obj 188 259 r mot_gauche-step;
#X obj 109 321 -;
#X obj 141 320 t b f;
#X obj 56 209 tgl 20 0 empty empty empty 0 -10 0 12 #fcfcfc #000000 #000000 0 1;
#X obj 109 346 abs;
#X obj 109 371 < 10;
#X obj 275 178 loadbang;
#X obj 274 206 bng 20 250 50 0 empty empty empty 0 -10 0 12 #fcfcfc #000000 #000000;
#X obj 299 411 outlet;
#X connect 0 0 1 0;
#X connect 1 0 4 0;
#X connect 2 0 5 0;
#X connect 3 0 2 0;
#X connect 4 0 12 0;
#X connect 5 0 13 0;
#X connect 6 0 10 0;
#X connect 6 0 11 0;
#X connect 6 0 19 0;
#X connect 7 0 6 0;
#X connect 8 0 9 0;
#X connect 9 0 6 1;
#X connect 10 0 5 0;
#X connect 10 1 5 1;
#X connect 11 0 4 0;
#X connect 11 1 4 1;
#X connect 12 0 20 0;
#X connect 13 0 21 0;
#X connect 14 0 16 0;
#X connect 15 0 17 0;
#X connect 16 0 30 0;
#X connect 17 0 16 0;
#X connect 17 1 16 1;
#X connect 20 0 14 0;
#X connect 21 0 15 0;
#X connect 22 0 23 0;
#X connect 23 0 24 0;
#X connect 23 0 28 0;
#X connect 25 0 26 0;
#X connect 25 0 29 0;
#X connect 25 0 35 0;
#X connect 27 0 25 0;
#X connect 28 0 31 0;
#X connect 29 0 28 0;
#X connect 29 1 28 1;
#X connect 31 0 32 0;
#X connect 32 0 18 0;
#X restore 132 19 pd check_step;
#N canvas 419 426 575 279 check_state 1;
#X obj 56 159 tgl 20 0 empty empty empty 0 -10 0 12 #fcfcfc #000000 #000000 0 1;
#X obj 223 152 tgl 20 0 empty empty empty 0 -10 0 12 #fcfcfc #000000 #000000 0 1;
#X obj 56 184 &&;
#X obj 87 184 t b f;
#X obj 56 209 outlet;
#X obj 56 34 r mot_droite-state;
#X obj 223 33 r mot_gauche-state;
#X msg 56 84 1;
#X msg 144 84 0;
#X obj 56 109 f;
#X msg 223 82 1;
#X msg 311 82 0;
#X obj 223 107 f;
#X obj 56 59 sel manual;
#X obj 223 57 sel manual;
#X connect 0 0 2 0;
#X connect 1 0 3 0;
#X connect 2 0 4 0;
#X connect 3 0 2 0;
#X connect 3 1 2 1;
#X connect 5 0 13 0;
#X connect 6 0 14 0;
#X connect 7 0 9 0;
#X connect 8 0 9 0;
#X connect 9 0 0 0;
#X connect 10 0 12 0;
#X connect 11 0 12 0;
#X connect 12 0 1 0;
#X connect 13 0 7 0;
#X connect 13 1 8 0;
#X connect 14 0 10 0;
#X connect 14 1 11 0;
#X restore 237 17 pd check_state;
#X obj 237 42 tgl 20 0 empty empty empty 0 -10 0 12 #fcfcfc #000000 #000000 0 1;
#X obj 345 42 tgl 20 0 empty empty empty 0 -10 0 12 #fcfcfc #000000 #000000 0 1;
#N canvas 419 426 488 279 check_present 0;
#X obj 27 160 tgl 20 0 empty empty empty 0 -10 0 12 #fcfcfc #000000 #000000 0 1;
#X obj 246 149 tgl 20 0 empty empty empty 0 -10 0 12 #fcfcfc #000000 #000000 0 1;
#X obj 27 185 &&;
#X obj 58 185 t b f;
#X obj 27 210 outlet;
#X obj 27 59 route present;
#X obj 246 58 route present;
#X obj 246 34 fruit/receive mot_gauche;
#X obj 27 34 fruit/receive mot_droite;
#X connect 0 0 2 0;
#X connect 1 0 3 0;
#X connect 2 0 4 0;
#X connect 3 0 2 0;
#X connect 3 1 2 1;
#X connect 5 0 0 0;
#X connect 6 0 1 0;
#X connect 7 0 6 0;
#X connect 8 0 5 0;
#X restore 345 17 pd check_present;
#X obj 161 71 t b f;
#X obj 237 69 &&;
#X obj 266 69 t b f;
#X obj 466 41 tgl 20 0 empty empty empty 0 -10 0 12 #fcfcfc #000000 #000000 0 1;
#N canvas 419 426 575 279 check_hash 0;
#X obj 56 73 tgl 20 0 empty empty empty 0 -10 0 12 #fcfcfc #000000 #000000 0 1;
#X obj 220 71 tgl 20 0 empty empty empty 0 -10 0 12 #fcfcfc #000000 #000000 0 1;
#X obj 56 98 &&;
#X obj 87 98 t b f;
#X obj 56 123 outlet;
#X obj 56 34 r mot_droite-hashOK;
#X obj 220 33 r mot_gauche-hashOK;
#X connect 0 0 2 0;
#X connect 1 0 3 0;
#X connect 2 0 4 0;
#X connect 3 0 2 0;
#X connect 3 1 2 1;
#X connect 5 0 0 0;
#X connect 6 0 1 0;
#X restore 466 16 pd check_hash;
#X obj 346 68 &&;
#X obj 375 68 t b f;
#X obj 132 71 &&;
#X obj 72 43 bng 20 250 50 0 empty empty empty 0 -10 0 12 #fcfcfc #000000 #000000;
#X obj 93 108 spigot;
#X obj 177 230 f;
#X floatatom 219 226 5 0 0 0 - - - 0;
#X floatatom 268 194 5 0 0 0 - - - 0;
#X obj 93 332 s mot_droite-ctl;
#X obj 212 332 s mot_gauche-ctl;
#X obj 93 299 t a;
#X msg 284 265 state 3;
#X obj 55 105 bng 20 250 50 0 empty empty empty 0 -10 0 12 #fcfcfc #000000 #000000;
#X obj 209 172 f;
#X obj 93 135 t b b b, f 17;
#X msg 313 114 8965;
#X obj 15 250 bng 20 250 50 0 empty empty empty 0 -10 0 12 #fcfcfc #000000 #000000;
#X msg 359 217 raw 41 l 0 \, raw 45 l \$1 \, raw 210 l \$1;
#X obj 30 18 r \$1-BACK-snd;
#X msg 93 265 raw 41 l 0;
#X obj 93 189 t b b, f 12;
#X obj 93 217 del 500;
#X obj 93 164 del 1500;
#X msg 177 266 raw 45 l \$1;
#X connect 0 0 13 0;
#X connect 1 0 0 0;
#X connect 1 1 18 0;
#X connect 1 1 24 1;
#X connect 2 0 3 0;
#X connect 3 0 7 0;
#X connect 4 0 11 0;
#X connect 5 0 4 0;
#X connect 6 0 13 0;
#X connect 6 1 13 1;
#X connect 7 0 6 0;
#X connect 8 0 7 0;
#X connect 8 1 7 1;
#X connect 9 0 12 0;
#X connect 10 0 9 0;
#X connect 11 0 8 0;
#X connect 12 0 11 0;
#X connect 12 1 11 1;
#X connect 13 0 15 1;
#X connect 14 0 15 0;
#X connect 15 0 25 0;
#X connect 16 0 17 0;
#X connect 16 0 34 0;
#X connect 21 0 19 0;
#X connect 21 0 20 0;
#X connect 22 0 21 0;
#X connect 23 0 25 0;
#X connect 24 0 16 1;
#X connect 25 0 33 0;
#X connect 25 1 22 0;
#X connect 25 2 24 0;
#X connect 26 0 24 0;
#X connect 29 0 15 0;
#X connect 30 0 21 0;
#X connect 31 0 32 0;
#X connect 31 1 16 0;
#X connect 32 0 30 0;
#X connect 33 0 31 0;
#X connect 34 0 21 0;
#X restore 32 211 pd return_home;
#X obj 535 229 r \$1-STOP-snd;
#X msg 535 254 stop;
#X obj 52 663 debounce 100 500;
#X obj 52 688 tgl 20 0 empty empty empty 0 -10 0 12 #fcfcfc #000000 #000000 0 1;
#X connect 4 0 9 0;
#X connect 5 0 6 0;
#X connect 6 0 7 0;
#X connect 6 0 8 0;
#X connect 6 0 11 0;
#X connect 7 0 6 1;
#X connect 9 0 5 0;
#X connect 10 0 6 1;
#X connect 12 0 6 1;
#X connect 13 0 15 0;
#X connect 14 0 13 0;
#X connect 15 0 16 0;
#X connect 16 0 26 0;
#X connect 17 0 30 0;
#X connect 18 0 20 0;
#X connect 19 0 18 1;
#X connect 20 0 21 0;
#X connect 20 0 37 0;
#X connect 21 0 101 0;
#X connect 22 0 15 1;
#X connect 23 0 17 1;
#X connect 25 0 18 0;
#X connect 26 0 17 0;
#X connect 27 0 28 0;
#X connect 28 0 29 0;
#X connect 30 0 24 0;
#X connect 30 0 40 0;
#X connect 32 0 26 1;
#X connect 32 0 31 0;
#X connect 33 0 39 0;
#X connect 35 0 34 0;
#X connect 38 0 28 0;
#X connect 39 0 20 1;
#X connect 41 0 14 0;
#X connect 42 0 98 0;
#X connect 43 0 42 0;
#X connect 44 0 42 0;
#X connect 45 0 29 0;
#X connect 46 0 45 0;
#X connect 47 0 48 0;
#X connect 48 0 29 0;
#X connect 49 0 50 0;
#X connect 50 0 29 0;
#X connect 51 0 52 0;
#X connect 52 0 29 0;
#X connect 53 0 56 0;
#X connect 54 0 55 0;
#X connect 56 0 54 0;
#X connect 57 0 58 0;
#X connect 58 0 68 0;
#X connect 59 0 94 0;
#X connect 60 0 59 0;
#X connect 61 0 62 0;
#X connect 61 1 43 0;
#X connect 61 1 77 0;
#X connect 61 1 78 0;
#X connect 61 1 106 0;
#X connect 62 0 44 0;
#X connect 62 0 57 0;
#X connect 63 0 61 0;
#X connect 64 0 65 0;
#X connect 65 0 71 0;
#X connect 66 0 83 0;
#X connect 67 0 66 0;
#X connect 68 0 73 0;
#X connect 69 0 68 0;
#X connect 69 1 68 1;
#X connect 70 0 94 0;
#X connect 70 1 94 1;
#X connect 71 0 70 0;
#X connect 72 0 71 0;
#X connect 72 1 71 1;
#X connect 73 0 110 0;
#X connect 76 0 19 0;
#X connect 77 0 85 0;
#X connect 78 0 86 0;
#X connect 79 0 80 0;
#X connect 81 0 84 0;
#X connect 82 0 81 0;
#X connect 83 0 72 0;
#X connect 84 0 83 0;
#X connect 84 1 83 1;
#X connect 88 0 63 0;
#X connect 90 0 91 0;
#X connect 91 0 75 0;
#X connect 93 0 74 0;
#X connect 94 0 69 0;
#X connect 98 0 96 0;
#X connect 98 0 97 0;
#X connect 101 0 99 0;
#X connect 101 0 100 0;
#X connect 102 0 103 0;
#X connect 103 0 105 0;
#X connect 104 0 103 0;
#X connect 108 0 109 0;
#X connect 109 0 101 0;
#X connect 110 0 111 0;
#X connect 111 0 75 0;
