#N canvas 156 365 872 474 12;
#X obj 32 83 motor_control mot_droite;
#X obj 32 14 wifruit mot_droite fAFB464EFAAB1C15F;
#X obj 353 14 wifruit mot_gauche f7187834E39D13680;
#X obj 353 83 motor_control mot_gauche;
#X obj 143 194 r mot_droite-step;
#X obj 143 219 list split 1;
#X floatatom 143 244 5 0 0 0 - - - 0;
#X obj 275 219 list split 1;
#X floatatom 275 244 5 0 0 0 - - - 0;
#X obj 275 194 r mot_gauche-step;
#X obj 193 293 -;
#X obj 224 292 t b f;
#X obj 193 318 t b f;
#X obj 193 368 f;
#X floatatom 193 393 5 0 0 0 - - - 0;
#X obj 193 343 del 2;
#X obj 513 162 bng 20 250 50 0 empty empty empty 0 -10 0 12 #fcfcfc #000000 #000000;
#X msg 513 190 start 2;
#X obj 446 309 s mot_droite-ctl;
#X obj 565 309 s mot_gauche-ctl;
#X obj 446 276 t a;
#X msg 577 188 stop;
#X obj 694 44 loadbang;
#X obj 694 97 metro 1000;
#X obj 694 122 i;
#X obj 725 122 + 1;
#X floatatom 755 122 5 0 0 0 - - - 0;
#X obj 694 71 tgl 20 0 empty empty empty 0 -10 0 12 #fcfcfc #000000 #000000 0 1;
#X msg 775 96 0;
#X obj 694 147 s TIME;
#X msg 809 94 10000;
#X msg 622 192 state 0;
#X msg 624 224 state 1;
#X msg 723 234 raw 1;
#X text 766 236 get pwm;
#X msg 622 275 raw 100 i 0;
#X text 705 276 clear pwm;
#X connect 4 0 5 0;
#X connect 5 0 6 0;
#X connect 5 0 10 0;
#X connect 7 0 8 0;
#X connect 7 0 11 0;
#X connect 9 0 7 0;
#X connect 10 0 12 0;
#X connect 11 0 10 0;
#X connect 11 1 10 1;
#X connect 12 0 15 0;
#X connect 12 1 13 1;
#X connect 13 0 14 0;
#X connect 15 0 13 0;
#X connect 16 0 17 0;
#X connect 17 0 20 0;
#X connect 20 0 18 0;
#X connect 20 0 19 0;
#X connect 21 0 20 0;
#X connect 22 0 27 0;
#X connect 23 0 24 0;
#X connect 24 0 25 0;
#X connect 24 0 26 0;
#X connect 24 0 29 0;
#X connect 25 0 24 1;
#X connect 27 0 23 0;
#X connect 28 0 24 1;
#X connect 30 0 24 1;
#X connect 31 0 20 0;
#X connect 32 0 20 0;
#X connect 33 0 20 0;
#X connect 35 0 20 0;
