#N canvas 69 314 1029 540 12;
#X obj 48 138 fruit/receive mot_droite;
#X obj 32 14 wifruit mot_droite 193.168.4.166;
#X obj 311 482 fruit/send mot_droite;
#X msg 361 24 1;
#X msg 369 53 2;
#X text 402 53 print current;
#X text 390 25 print pwm;
#X msg 376 82 3;
#X text 409 82 print encoder/speed;
#X msg 389 108 4;
#X text 420 107 print ramp pos;
#X msg 403 187 100 i \$1;
#X text 473 189 pwm;
#X obj 406 163 hsl 170 20 -32000 32000 0 0 empty empty empty -2 -10 0 12 #fcfcfc #000000 #000000 0 1;
#X msg 402 139 0;
#X obj 48 163 route l;
#X obj 94 189 print;
#X msg 408 251 220 \$1;
#X obj 408 225 tgl 20 0 empty empty empty 0 -10 0 12 #fcfcfc #000000 #000000 0 1;
#X msg 406 313 210 l \$1;
#X msg 406 288 0;
#X text 458 251 enable motor control;
#X text 472 313 set encoder;
#X msg 404 403 11 l \$1;
#X text 463 405 ramp goto;
#X obj 407 377 hsl 170 20 -32000 32000 0 0 empty empty empty -2 -10 0 12 #fcfcfc #000000 #000000 0 1;
#X msg 421 351 0;
#X msg 630 419 110 l \$1 \$2 \$3;
#X obj 630 316 pack f f f;
#X obj 630 341 unpack f f f, f 16;
#X obj 630 366 * 1000;
#X obj 630 391 pack f f f, f 16;
#X obj 684 366 * 1000;
#X obj 739 366 * 1000;
#X obj 666 280 t b f;
#X obj 713 280 t b f;
#X text 741 419 PID;
#X msg 504 283 210 l 0 \, 220 1;
#X floatatom 676 232 5 0 0 0 - - - 0;
#X floatatom 722 231 5 0 0 0 - - - 0;
#X floatatom 769 230 5 0 0 0 - - - 0;
#X msg 234 291 1 \, 3 \, 4;
#X msg 598 120 12 l \$1;
#X msg 667 191 90 100 1;
#X msg 598 64 5400;
#X floatatom 598 89 5 0 0 0 - - - 0;
#X msg 641 67 8000;
#X msg 783 64 5400;
#X floatatom 783 89 5 0 0 0 - - - 0;
#X msg 826 67 8000;
#X text 654 119 ramp max speed (step/s), f 15;
#X text 846 118 ramp accel (step/s/s), f 10;
#X msg 783 120 120 l \$1;
#X connect 0 0 15 0;
#X connect 3 0 2 0;
#X connect 4 0 2 0;
#X connect 7 0 2 0;
#X connect 9 0 2 0;
#X connect 11 0 2 0;
#X connect 13 0 11 0;
#X connect 14 0 13 0;
#X connect 15 1 16 0;
#X connect 17 0 2 0;
#X connect 18 0 17 0;
#X connect 19 0 2 0;
#X connect 20 0 19 0;
#X connect 23 0 2 0;
#X connect 25 0 23 0;
#X connect 26 0 25 0;
#X connect 27 0 2 0;
#X connect 28 0 29 0;
#X connect 29 0 30 0;
#X connect 29 1 32 0;
#X connect 29 2 33 0;
#X connect 30 0 31 0;
#X connect 31 0 27 0;
#X connect 32 0 31 1;
#X connect 33 0 31 2;
#X connect 34 0 28 0;
#X connect 34 1 28 1;
#X connect 35 0 28 0;
#X connect 35 1 28 2;
#X connect 37 0 2 0;
#X connect 38 0 28 0;
#X connect 39 0 34 0;
#X connect 40 0 35 0;
#X connect 41 0 2 0;
#X connect 42 0 2 0;
#X connect 43 0 28 0;
#X connect 44 0 45 0;
#X connect 45 0 42 0;
#X connect 46 0 45 0;
#X connect 47 0 48 0;
#X connect 48 0 52 0;
#X connect 49 0 48 0;
#X connect 52 0 2 0;
