#N canvas 1040 226 731 899 12;
#X obj 32 80 motor_control mot_droite;
#X obj 356 80 motor_control mot_gauche;
#X obj 545 163 loadbang;
#X obj 545 216 metro 1000;
#X obj 545 241 i;
#X obj 576 241 + 1;
#X floatatom 606 241 5 0 0 0 - - - 0;
#X obj 545 190 tgl 20 0 empty empty empty 0 -10 0 12 #fcfcfc #000000 #000000 0 1;
#X msg 626 215 0;
#X obj 545 266 s TIME;
#X msg 660 213 10000;
#N canvas 131 429 533 501 check-tables 0;
#X obj 50 24 r \$1-COMPUTE_FINISH;
#X obj 50 160 symbol \$1-TAB_MOTD;
#X msg 50 185 sendtable \$1;
#X obj 50 210 s mot_droite-ctl;
#X msg 191 186 sendtable \$1;
#X obj 191 161 symbol \$1-TAB_MOTG;
#X obj 191 211 s mot_gauche-ctl;
#X obj 50 80 bng 20 250 50 0 empty empty empty 0 -10 0 12 #fcfcfc #000000 #000000;
#X obj 17 129 bng 20 250 50 0 empty empty empty 0 -10 0 12 #fcfcfc #000000 #000000;
#X floatatom 3 346 5 0 0 0 - - - 0;
#X obj 51 322 r mot_droite-table_sent;
#X floatatom 283 355 5 0 0 0 - - - 0;
#X obj 229 320 r mot_gauche-table_sent;
#X obj 356 133 r \$1-TAB_LENGTH;
#X obj 356 158 * 4;
#X obj 51 347 sel -1;
#X floatatom 356 183 5 0 0 0 - - - 0;
#X msg 51 372 1;
#X obj 51 417 &&;
#X obj 81 417 t b f;
#X obj 229 344 sel -1;
#X msg 229 369 1;
#X obj 50 55 t b b, f 9;
#X obj 112 376 t f f;
#X msg 112 351 0;
#X obj 51 442 tgl 20 0 empty empty empty 0 -10 0 12 #fcfcfc #000000 #000000 0 1;
#X obj 25 28 bng 20 250 50 0 empty empty empty 0 -10 0 12 #fcfcfc #000000 #000000;
#X obj 51 467 outlet;
#X obj 211 24 inlet update;
#X obj 330 134 bng 20 250 50 0 empty empty empty 0 -10 0 12 #fcfcfc #000000 #000000;
#X msg 76 293 0;
#X msg 325 287 0;
#X obj 76 263 r mot_droite-sending;
#X obj 325 258 r mot_gauche-sending;
#X obj 89 107 route present;
#X obj 89 82 fruit/receive mot_droite;
#X obj 50 132 spigot;
#X obj 191 137 spigot;
#X obj 269 106 route present;
#X obj 269 82 fruit/receive mot_gauche;
#X connect 0 0 22 0;
#X connect 1 0 2 0;
#X connect 2 0 3 0;
#X connect 4 0 6 0;
#X connect 5 0 4 0;
#X connect 7 0 36 0;
#X connect 7 0 37 0;
#X connect 8 0 1 0;
#X connect 10 0 9 0;
#X connect 10 0 15 0;
#X connect 12 0 11 0;
#X connect 12 0 20 0;
#X connect 13 0 14 0;
#X connect 14 0 16 0;
#X connect 14 0 15 1;
#X connect 14 0 20 1;
#X connect 15 0 17 0;
#X connect 17 0 18 0;
#X connect 18 0 25 0;
#X connect 19 0 18 0;
#X connect 19 1 18 1;
#X connect 20 0 21 0;
#X connect 21 0 19 0;
#X connect 22 0 7 0;
#X connect 23 0 18 0;
#X connect 23 1 18 1;
#X connect 24 0 23 0;
#X connect 25 0 27 0;
#X connect 26 0 22 0;
#X connect 28 0 22 0;
#X connect 29 0 14 0;
#X connect 30 0 18 0;
#X connect 31 0 19 0;
#X connect 32 0 30 0;
#X connect 33 0 31 0;
#X connect 34 0 36 1;
#X connect 35 0 34 0;
#X connect 36 0 1 0;
#X connect 37 0 5 0;
#X connect 38 0 37 1;
#X connect 39 0 38 0;
#X restore 33 394 pd check-tables;
#X obj 33 420 tgl 20 0 empty empty empty 0 -10 0 12 #fcfcfc #000000 #000000 0 1;
#X obj 152 419 tgl 20 0 empty empty empty 0 -10 0 12 #fcfcfc #000000 #000000 0 1;
#N canvas 549 495 575 471 check_step 0;
#X obj 56 34 r mot_droite-step;
#X obj 56 59 list split 1;
#X obj 188 59 list split 1;
#X obj 188 34 r mot_gauche-step;
#X obj 56 84 -;
#X obj 188 83 -;
#X obj 360 115 *;
#X obj 360 36 r \$1-POSITION-snd;
#X obj 378 65 r \$1-TAB_LENGTH;
#X obj 378 90 - 1;
#X obj 217 83 t b f;
#X obj 86 85 t b f;
#X obj 56 109 abs;
#X obj 188 108 abs;
#X obj 56 159 tgl 20 0 empty empty empty 0 -10 0 12 #fcfcfc #000000 #000000 0 1;
#X obj 188 158 tgl 20 0 empty empty empty 0 -10 0 12 #fcfcfc #000000 #000000 0 1;
#X obj 56 184 &&;
#X obj 87 184 t b f;
#X obj 109 398 outlet;
#X floatatom 360 140 8 0 0 0 - - - 0;
#X obj 56 134 < 20;
#X obj 188 133 < 20;
#X obj 56 259 r mot_droite-step;
#X obj 56 284 list split 1;
#X floatatom 56 309 5 0 0 0 - - - 0;
#X obj 188 284 list split 1;
#X floatatom 188 309 5 0 0 0 - - - 0;
#X obj 188 259 r mot_gauche-step;
#X obj 109 321 -;
#X obj 141 320 t b f;
#X obj 56 209 tgl 20 0 empty empty empty 0 -10 0 12 #fcfcfc #000000 #000000 0 1;
#X obj 109 346 abs;
#X obj 109 371 < 10;
#X obj 275 178 loadbang;
#X obj 274 206 bng 20 250 50 0 empty empty empty 0 -10 0 12 #fcfcfc #000000 #000000;
#X floatatom 195 349 5 0 0 0 - - - 0;
#X floatatom 236 138 9 0 0 0 - - - 0;
#X listbox 350 258 20 0 0 0 - - - 0;
#X connect 0 0 1 0;
#X connect 1 0 4 0;
#X connect 2 0 5 0;
#X connect 3 0 2 0;
#X connect 3 0 37 0;
#X connect 4 0 12 0;
#X connect 5 0 13 0;
#X connect 5 0 36 0;
#X connect 6 0 10 0;
#X connect 6 0 11 0;
#X connect 6 0 19 0;
#X connect 7 0 6 0;
#X connect 8 0 9 0;
#X connect 9 0 6 1;
#X connect 10 0 5 0;
#X connect 10 1 5 1;
#X connect 11 0 4 0;
#X connect 11 1 4 1;
#X connect 12 0 20 0;
#X connect 13 0 21 0;
#X connect 14 0 16 0;
#X connect 15 0 17 0;
#X connect 16 0 30 0;
#X connect 17 0 16 0;
#X connect 17 1 16 1;
#X connect 20 0 14 0;
#X connect 21 0 15 0;
#X connect 22 0 23 0;
#X connect 23 0 24 0;
#X connect 23 0 28 0;
#X connect 25 0 26 0;
#X connect 25 0 29 0;
#X connect 27 0 25 0;
#X connect 28 0 31 0;
#X connect 29 0 28 0;
#X connect 29 1 28 1;
#X connect 31 0 32 0;
#X connect 31 0 35 0;
#X connect 32 0 18 0;
#X restore 152 392 pd check_step;
#N canvas 419 426 575 279 check_state 0;
#X obj 56 159 tgl 20 0 empty empty empty 0 -10 0 12 #fcfcfc #000000 #000000 0 1;
#X obj 223 152 tgl 20 0 empty empty empty 0 -10 0 12 #fcfcfc #000000 #000000 0 1;
#X obj 56 184 &&;
#X obj 87 184 t b f;
#X obj 56 209 outlet;
#X obj 56 34 r mot_droite-state;
#X obj 223 33 r mot_gauche-state;
#X obj 56 59 sel tableramp;
#X msg 56 84 1;
#X msg 144 84 0;
#X obj 56 109 f;
#X obj 223 57 sel tableramp;
#X msg 223 82 1;
#X msg 311 82 0;
#X obj 223 107 f;
#X connect 0 0 2 0;
#X connect 1 0 3 0;
#X connect 2 0 4 0;
#X connect 3 0 2 0;
#X connect 3 1 2 1;
#X connect 5 0 7 0;
#X connect 6 0 11 0;
#X connect 7 0 8 0;
#X connect 7 1 9 0;
#X connect 8 0 10 0;
#X connect 9 0 10 0;
#X connect 10 0 0 0;
#X connect 11 0 12 0;
#X connect 11 1 13 0;
#X connect 12 0 14 0;
#X connect 13 0 14 0;
#X connect 14 0 1 0;
#X restore 257 392 pd check_state;
#X obj 257 417 tgl 20 0 empty empty empty 0 -10 0 12 #fcfcfc #000000 #000000 0 1;
#X obj 365 417 tgl 20 0 empty empty empty 0 -10 0 12 #fcfcfc #000000 #000000 0 1;
#N canvas 523 626 488 279 check_present 0;
#X obj 27 160 tgl 20 0 empty empty empty 0 -10 0 12 #fcfcfc #000000 #000000 0 1;
#X obj 246 149 tgl 20 0 empty empty empty 0 -10 0 12 #fcfcfc #000000 #000000 0 1;
#X obj 27 185 &&;
#X obj 58 185 t b f;
#X obj 27 210 outlet;
#X obj 27 59 route present;
#X obj 246 58 route present;
#X obj 246 34 fruit/receive mot_gauche;
#X obj 27 34 fruit/receive mot_droite;
#X obj 246 89 debounce 2500 1;
#X obj 27 100 debounce 2500 1;
#X connect 0 0 2 0;
#X connect 1 0 3 0;
#X connect 2 0 4 0;
#X connect 3 0 2 0;
#X connect 3 1 2 1;
#X connect 5 0 10 0;
#X connect 6 0 9 0;
#X connect 7 0 6 0;
#X connect 8 0 5 0;
#X connect 9 0 1 0;
#X connect 10 0 0 0;
#X restore 365 392 pd check_present;
#X obj 33 446 &&;
#X obj 62 446 t b f;
#X obj 181 446 t b f;
#X obj 257 444 &&;
#X obj 286 444 t b f;
#X obj 33 482 tgl 20 0 empty empty empty 0 -10 0 12 #fcfcfc #000000 #000000 0 1;
#X obj 33 571 s \$1-MOTORS_READY;
#X obj 395 533 r \$1-MOTORS_READY;
#X obj 395 564 print MOTORS_READY;
#X obj 486 416 tgl 20 0 empty empty empty 0 -10 0 12 #fcfcfc #000000 #000000 0 1;
#N canvas 419 426 575 279 check_hash 0;
#X obj 56 73 tgl 20 0 empty empty empty 0 -10 0 12 #fcfcfc #000000 #000000 0 1;
#X obj 220 71 tgl 20 0 empty empty empty 0 -10 0 12 #fcfcfc #000000 #000000 0 1;
#X obj 56 98 &&;
#X obj 87 98 t b f;
#X obj 56 123 outlet;
#X obj 56 34 r mot_droite-hashOK;
#X obj 220 33 r mot_gauche-hashOK;
#X connect 0 0 2 0;
#X connect 1 0 3 0;
#X connect 2 0 4 0;
#X connect 3 0 2 0;
#X connect 3 1 2 1;
#X connect 5 0 0 0;
#X connect 6 0 1 0;
#X restore 486 391 pd check_hash;
#X obj 366 443 &&;
#X obj 395 443 t b f;
#N canvas 0 0 450 203 display_state_name 0;
#X obj 48 139 s \$1-state-name-canvas;
#X msg 48 99 label PRET \, color 16 22;
#X msg 223 100 label PAS\ PRET \, color 13 22;
#X obj 48 28 r \$1-MOTORS_READY;
#X obj 48 53 sel 1 0;
#X connect 1 0 0 0;
#X connect 2 0 0 0;
#X connect 3 0 4 0;
#X connect 4 0 1 0;
#X connect 4 1 2 0;
#X restore 33 267 pd display_state_name;
#X obj 154 511 loadbang;
#X msg 154 536 0;
#N canvas 901 73 450 300 send_real_pos 0;
#X obj 31 39 r mot_droite-step;
#X obj 31 64 list split 1;
#X obj 163 64 list split 1;
#X obj 163 39 r mot_gauche-step;
#X obj 164 175 s \$1-REAL_STEP-snd;
#X obj 337 39 r \$1-TAB_LENGTH;
#X floatatom 351 149 5 0 0 0 - - - 0;
#X obj 337 64 - 1;
#X obj 192 143 s \$1-real_pos-G-rcv;
#X obj 31 114 s \$1-real_pos-D-rcv;
#X floatatom 4 150 8 0 0 0 - - - 0;
#X floatatom 94 151 8 0 0 0 - - - 0;
#X obj 31 89 / 100;
#X obj 192 118 / 100;
#X connect 0 0 1 0;
#X connect 0 0 10 0;
#X connect 1 0 12 0;
#X connect 2 0 4 0;
#X connect 2 0 13 0;
#X connect 3 0 2 0;
#X connect 3 0 11 0;
#X connect 5 0 7 0;
#X connect 7 0 6 0;
#X connect 12 0 9 0;
#X connect 13 0 8 0;
#X restore 32 158 pd send_real_pos;
#X obj 152 446 &&;
#N canvas 701 334 832 586 play_in_n_seconds 0;
#X obj 79 431 bng 20 250 50 0 empty empty empty 0 -10 0 12 #fcfcfc #000000 #000000;
#X obj 191 527 s mot_droite-ctl;
#X obj 310 527 s mot_gauche-ctl;
#X obj 191 494 t a;
#X msg 291 380 stop;
#X msg 372 383 state 0;
#X msg 373 407 state 1;
#X msg 468 452 raw 1;
#X text 511 454 get pwm;
#X msg 602 456 raw 100 i 0;
#X text 685 457 clear pwm;
#X msg 373 432 state 2;
#X msg 372 454 state 3;
#X msg 136 45 120;
#X obj 90 78 /;
#X obj 90 103 * 1000;
#X msg 102 45 90;
#X obj 119 77 r \$1-TAB_LENGTH;
#X floatatom 25 139 5 0 0 0 - - - 0;
#X msg 79 459 start 2 10;
#X msg 90 241 start 2 \$1;
#X msg 55 45 60;
#X obj 90 161 spigot;
#X obj 287 8 r \$1-MOTORS_READY;
#X obj 90 13 r \$1-PLAY_IN_N_SECONDS;
#X obj 314 341 r \$1-STOP-snd;
#X obj 404 96 fruit/receive mot_droite;
#X obj 585 95 fruit/receive mot_gauche;
#X obj 404 121 route play;
#X obj 585 120 route play;
#X obj 90 215 t a b b, f 31;
#X obj 197 292 spigot;
#X obj 260 292 spigot;
#X msg 303 242 1;
#X msg 404 146 0;
#X msg 585 145 0;
#X msg 91 511 raw 1;
#X obj 197 243 del 700;
#X obj 507 324 t b b;
#X obj 236 150 r \$1-STOP-snd;
#X msg 236 175 stop;
#X obj 197 317 b;
#X obj 23 362 del 200;
#X obj 90 187 f;
#X msg 15 244 60000;
#X obj 361 59 tgl 20 0 empty empty empty 0 -10 0 12 #fcfcfc #000000 #000000 0 1;
#N canvas 330 658 391 230 check_step-zero 0;
#X obj 56 34 r mot_droite-step;
#X obj 188 34 r mot_gauche-step;
#X obj 56 95 tgl 20 0 empty empty empty 0 -10 0 12 #fcfcfc #000000 #000000 0 1;
#X obj 188 94 tgl 20 0 empty empty empty 0 -10 0 12 #fcfcfc #000000 #000000 0 1;
#X obj 56 124 &&;
#X obj 87 124 t b f;
#X obj 56 179 outlet;
#X obj 56 151 tgl 20 0 empty empty empty 0 -10 0 12 #fcfcfc #000000 #000000 0 1;
#X floatatom 252 88 5 0 0 0 - - - 0;
#X floatatom 112 78 5 0 0 0 - - - 0;
#X floatatom 12 29 5 0 0 0 - - - 0;
#X obj 56 70 < 2;
#X obj 188 69 < 2;
#X connect 0 0 9 0;
#X connect 0 0 11 0;
#X connect 1 0 8 0;
#X connect 1 0 12 0;
#X connect 2 0 4 0;
#X connect 3 0 5 0;
#X connect 4 0 7 0;
#X connect 5 0 4 0;
#X connect 5 1 4 1;
#X connect 7 0 6 0;
#X connect 10 0 11 0;
#X connect 11 0 2 0;
#X connect 12 0 3 0;
#X restore 361 34 pd check_step-zero;
#X msg 622 273 color 0 22 22;
#X obj 618 310 s \$1-PLAY_IN-rcv;
#X msg 580 247 color 10 10 10;
#X obj 287 85 &&;
#X obj 316 85 t b f;
#X obj 287 110 tgl 20 0 empty empty empty 0 -10 0 12 #fcfcfc #000000 #000000 0 1;
#X obj 580 219 sel 0 1;
#X obj 90 132 max 10;
#X floatatom 22 182 5 0 0 0 - - - 0;
#X connect 0 0 19 0;
#X connect 3 0 1 0;
#X connect 3 0 2 0;
#X connect 4 0 3 0;
#X connect 5 0 3 0;
#X connect 6 0 3 0;
#X connect 7 0 3 0;
#X connect 9 0 3 0;
#X connect 11 0 3 0;
#X connect 12 0 3 0;
#X connect 13 0 14 0;
#X connect 14 0 15 0;
#X connect 15 0 18 0;
#X connect 15 0 54 0;
#X connect 16 0 14 0;
#X connect 17 0 14 1;
#X connect 19 0 3 0;
#X connect 20 0 3 0;
#X connect 21 0 14 0;
#X connect 22 0 43 0;
#X connect 23 0 50 0;
#X connect 24 0 14 0;
#X connect 25 0 4 0;
#X connect 26 0 28 0;
#X connect 27 0 29 0;
#X connect 28 0 34 0;
#X connect 29 0 35 0;
#X connect 30 0 20 0;
#X connect 30 1 37 0;
#X connect 30 2 33 0;
#X connect 30 2 38 0;
#X connect 31 0 41 0;
#X connect 32 0 41 0;
#X connect 33 0 32 1;
#X connect 33 0 31 1;
#X connect 34 0 31 1;
#X connect 35 0 32 1;
#X connect 36 0 3 0;
#X connect 37 0 31 0;
#X connect 37 0 32 0;
#X connect 38 0 9 0;
#X connect 38 1 5 0;
#X connect 39 0 40 0;
#X connect 40 0 37 0;
#X connect 40 0 42 0;
#X connect 41 0 4 0;
#X connect 41 0 42 0;
#X connect 42 0 43 0;
#X connect 43 0 30 0;
#X connect 44 0 43 0;
#X connect 45 0 51 0;
#X connect 46 0 45 0;
#X connect 47 0 48 0;
#X connect 49 0 48 0;
#X connect 50 0 52 0;
#X connect 51 0 50 0;
#X connect 51 1 50 1;
#X connect 52 0 22 1;
#X connect 52 0 53 0;
#X connect 53 0 49 0;
#X connect 53 1 47 0;
#X connect 54 0 22 0;
#X connect 54 0 55 0;
#X restore 32 185 pd play_in_n_seconds;
#N canvas 408 563 568 395 return_home 0;
#X obj 132 44 tgl 20 0 empty empty empty 0 -10 0 12 #fcfcfc #000000 #000000 0 1;
#N canvas 50 489 575 471 check_step 0;
#X obj 56 34 r mot_droite-step;
#X obj 56 59 list split 1;
#X obj 188 59 list split 1;
#X obj 188 34 r mot_gauche-step;
#X obj 56 84 -;
#X obj 188 83 -;
#X obj 360 115 *;
#X obj 360 36 r \$1-POSITION-snd;
#X obj 378 65 r \$1-TAB_LENGTH;
#X obj 378 90 - 1;
#X obj 217 83 t b f;
#X obj 86 85 t b f;
#X obj 56 109 abs;
#X obj 188 108 abs;
#X obj 56 159 tgl 20 0 empty empty empty 0 -10 0 12 #fcfcfc #000000 #000000 0 1;
#X obj 188 158 tgl 20 0 empty empty empty 0 -10 0 12 #fcfcfc #000000 #000000 0 1;
#X obj 56 184 &&;
#X obj 87 184 t b f;
#X obj 109 398 outlet;
#X floatatom 360 140 8 0 0 0 - - - 0;
#X obj 56 134 < 20;
#X obj 188 133 < 20;
#X obj 56 259 r mot_droite-step;
#X obj 56 284 list split 1;
#X floatatom 56 309 5 0 0 0 - - - 0;
#X obj 188 284 list split 1;
#X floatatom 188 309 5 0 0 0 - - - 0;
#X obj 188 259 r mot_gauche-step;
#X obj 109 321 -;
#X obj 141 320 t b f;
#X obj 56 209 tgl 20 0 empty empty empty 0 -10 0 12 #fcfcfc #000000 #000000 0 1;
#X obj 109 346 abs;
#X obj 109 371 < 10;
#X obj 275 178 loadbang;
#X obj 274 206 bng 20 250 50 0 empty empty empty 0 -10 0 12 #fcfcfc #000000 #000000;
#X obj 299 411 outlet;
#X connect 0 0 1 0;
#X connect 1 0 4 0;
#X connect 2 0 5 0;
#X connect 3 0 2 0;
#X connect 4 0 12 0;
#X connect 5 0 13 0;
#X connect 6 0 10 0;
#X connect 6 0 11 0;
#X connect 6 0 19 0;
#X connect 7 0 6 0;
#X connect 8 0 9 0;
#X connect 9 0 6 1;
#X connect 10 0 5 0;
#X connect 10 1 5 1;
#X connect 11 0 4 0;
#X connect 11 1 4 1;
#X connect 12 0 20 0;
#X connect 13 0 21 0;
#X connect 14 0 16 0;
#X connect 15 0 17 0;
#X connect 16 0 30 0;
#X connect 17 0 16 0;
#X connect 17 1 16 1;
#X connect 20 0 14 0;
#X connect 21 0 15 0;
#X connect 22 0 23 0;
#X connect 23 0 24 0;
#X connect 23 0 28 0;
#X connect 25 0 26 0;
#X connect 25 0 29 0;
#X connect 25 0 35 0;
#X connect 27 0 25 0;
#X connect 28 0 31 0;
#X connect 29 0 28 0;
#X connect 29 1 28 1;
#X connect 31 0 32 0;
#X connect 32 0 18 0;
#X restore 132 19 pd check_step;
#N canvas 419 426 575 279 check_state 0;
#X obj 56 159 tgl 20 0 empty empty empty 0 -10 0 12 #fcfcfc #000000 #000000 0 1;
#X obj 223 152 tgl 20 0 empty empty empty 0 -10 0 12 #fcfcfc #000000 #000000 0 1;
#X obj 56 184 &&;
#X obj 87 184 t b f;
#X obj 56 209 outlet;
#X obj 56 34 r mot_droite-state;
#X obj 223 33 r mot_gauche-state;
#X msg 56 84 1;
#X msg 144 84 0;
#X obj 56 109 f;
#X msg 223 82 1;
#X msg 311 82 0;
#X obj 223 107 f;
#X obj 56 59 sel manual;
#X obj 223 57 sel manual;
#X connect 0 0 2 0;
#X connect 1 0 3 0;
#X connect 2 0 4 0;
#X connect 3 0 2 0;
#X connect 3 1 2 1;
#X connect 5 0 13 0;
#X connect 6 0 14 0;
#X connect 7 0 9 0;
#X connect 8 0 9 0;
#X connect 9 0 0 0;
#X connect 10 0 12 0;
#X connect 11 0 12 0;
#X connect 12 0 1 0;
#X connect 13 0 7 0;
#X connect 13 1 8 0;
#X connect 14 0 10 0;
#X connect 14 1 11 0;
#X restore 237 17 pd check_state;
#X obj 237 42 tgl 20 0 empty empty empty 0 -10 0 12 #fcfcfc #000000 #000000 0 1;
#X obj 345 42 tgl 20 0 empty empty empty 0 -10 0 12 #fcfcfc #000000 #000000 0 1;
#N canvas 419 426 488 279 check_present 0;
#X obj 27 160 tgl 20 0 empty empty empty 0 -10 0 12 #fcfcfc #000000 #000000 0 1;
#X obj 246 149 tgl 20 0 empty empty empty 0 -10 0 12 #fcfcfc #000000 #000000 0 1;
#X obj 27 185 &&;
#X obj 58 185 t b f;
#X obj 27 210 outlet;
#X obj 27 59 route present;
#X obj 246 58 route present;
#X obj 246 34 fruit/receive mot_gauche;
#X obj 27 34 fruit/receive mot_droite;
#X connect 0 0 2 0;
#X connect 1 0 3 0;
#X connect 2 0 4 0;
#X connect 3 0 2 0;
#X connect 3 1 2 1;
#X connect 5 0 0 0;
#X connect 6 0 1 0;
#X connect 7 0 6 0;
#X connect 8 0 5 0;
#X restore 345 17 pd check_present;
#X obj 161 71 t b f;
#X obj 237 69 &&;
#X obj 266 69 t b f;
#X obj 466 41 tgl 20 0 empty empty empty 0 -10 0 12 #fcfcfc #000000 #000000 0 1;
#N canvas 419 426 575 279 check_hash 0;
#X obj 56 73 tgl 20 0 empty empty empty 0 -10 0 12 #fcfcfc #000000 #000000 0 1;
#X obj 220 71 tgl 20 0 empty empty empty 0 -10 0 12 #fcfcfc #000000 #000000 0 1;
#X obj 56 98 &&;
#X obj 87 98 t b f;
#X obj 56 123 outlet;
#X obj 56 34 r mot_droite-hashOK;
#X obj 220 33 r mot_gauche-hashOK;
#X connect 0 0 2 0;
#X connect 1 0 3 0;
#X connect 2 0 4 0;
#X connect 3 0 2 0;
#X connect 3 1 2 1;
#X connect 5 0 0 0;
#X connect 6 0 1 0;
#X restore 466 16 pd check_hash;
#X obj 346 68 &&;
#X obj 375 68 t b f;
#X obj 132 71 &&;
#X obj 72 43 bng 20 250 50 0 empty empty empty 0 -10 0 12 #fcfcfc #000000 #000000;
#X obj 93 108 spigot;
#X obj 177 249 f;
#X floatatom 219 245 5 0 0 0 - - - 0;
#X floatatom 268 213 5 0 0 0 - - - 0;
#X obj 93 351 s mot_droite-ctl;
#X obj 212 351 s mot_gauche-ctl;
#X obj 93 318 t a;
#X msg 284 284 state 3;
#X obj 55 105 bng 20 250 50 0 empty empty empty 0 -10 0 12 #fcfcfc #000000 #000000;
#X obj 209 191 f;
#X obj 93 154 t b b b, f 17;
#X msg 313 114 8965;
#X obj 15 250 bng 20 250 50 0 empty empty empty 0 -10 0 12 #fcfcfc #000000 #000000;
#X msg 359 236 raw 41 l 0 \, raw 45 l \$1 \, raw 210 l \$1;
#X obj 30 18 r \$1-BACK-snd;
#X msg 93 284 raw 41 l 0;
#X obj 93 208 t b b, f 12;
#X obj 93 236 del 500;
#X obj 93 183 del 1500;
#X msg 177 285 raw 45 l \$1;
#X msg 383 299 1 \, 0;
#X obj 383 346 s \$1-POSITION-rcv;
#X connect 0 0 13 0;
#X connect 1 0 0 0;
#X connect 1 1 18 0;
#X connect 1 1 24 1;
#X connect 2 0 3 0;
#X connect 3 0 7 0;
#X connect 4 0 11 0;
#X connect 5 0 4 0;
#X connect 6 0 13 0;
#X connect 6 1 13 1;
#X connect 7 0 6 0;
#X connect 8 0 7 0;
#X connect 8 1 7 1;
#X connect 9 0 12 0;
#X connect 10 0 9 0;
#X connect 11 0 8 0;
#X connect 12 0 11 0;
#X connect 12 1 11 1;
#X connect 13 0 15 1;
#X connect 14 0 15 0;
#X connect 16 0 17 0;
#X connect 16 0 34 0;
#X connect 21 0 19 0;
#X connect 21 0 20 0;
#X connect 22 0 21 0;
#X connect 23 0 25 0;
#X connect 24 0 16 1;
#X connect 25 0 33 0;
#X connect 25 1 22 0;
#X connect 25 2 24 0;
#X connect 26 0 24 0;
#X connect 29 0 15 0;
#X connect 29 0 35 0;
#X connect 30 0 21 0;
#X connect 31 0 32 0;
#X connect 31 1 16 0;
#X connect 32 0 30 0;
#X connect 33 0 31 0;
#X connect 34 0 21 0;
#X connect 35 0 36 0;
#X restore 32 211 pd return_home;
#X obj 33 512 debounce 100 500;
#X obj 33 537 tgl 20 0 empty empty empty 0 -10 0 12 #fcfcfc #000000 #000000 0 1;
#N canvas 614 301 1124 580 ModeManuel 0;
#X obj 367 75 metro 10;
#X obj 367 46 tgl 20 0 empty empty empty 0 -10 0 12 #fcfcfc #000000 #000000 0 1;
#X obj 367 100 f;
#X obj 367 154 / 100;
#X obj 367 209 +;
#X obj 666 82 spigot;
#X obj 721 83 tgl 20 0 empty empty empty 0 -10 0 12 #fcfcfc #000000 #000000 0 1;
#X msg 666 134 raw 41 l \$1;
#X obj 397 100 r \$1-VITESSE-snd;
#X obj 400 208 r \$1-POSITION-snd;
#X obj 366 516 s \$1-POSITION-rcv;
#X obj 666 -17 r \$1-POSITION-snd;
#X obj 17 24 r \$1-STOP-snd;
#X msg 17 49 0;
#X obj 103 235 s \$1-VITESSE-rcv;
#X floatatom 930 168 5 0 0 0 - - - 0;
#X obj 930 143 r \$1-TOTAL_TIME;
#X obj 39 278 r \$1-COMPUTE_FINISH;
#X obj 15 2 loadbang;
#X obj 367 0 loadbang;
#X msg 84 107 50;
#X obj 84 79 r \$1-VITESSE50-snd;
#X obj 155 134 r \$1-VITESSE100-snd;
#X msg 155 159 100;
#X obj 53 50 r \$1-VITESSE25-snd;
#X msg 53 78 25;
#X obj 121 106 r \$1-VITESSE75-snd;
#X msg 121 131 75;
#X obj 230 207 r \$1-VITESSE-snd;
#X msg 230 260 set \$1;
#X obj 230 288 s \$1-VITESSEd-rcv;
#X obj 230 234 i;
#X obj 721 52 r \$1-MOTORS_READY;
#X obj 666 193 s mot_droite-ctl;
#X obj 785 193 s mot_gauche-ctl;
#X obj 666 160 t a;
#X obj 557 8 r \$1-STOP-snd;
#X msg 557 33 stop;
#X obj 666 49 change;
#X obj 525 135 r \$1-TAB_LENGTH;
#X obj 525 160 - 1;
#X obj 525 185 / 100;
#X msg 525 210 range 0 \$1;
#X obj 525 235 s \$1-POSITION-rcv;
#X obj 666 108 * 100;
#X obj 367 182 / 100;
#X obj 366 489 change;
#X obj 366 323 t f f;
#X obj 398 347 - -1;
#X obj 398 372 abs;
#X obj 555 350 r \$1-VITESSE-snd;
#X obj 555 397 / 100;
#X obj 555 422 / 100;
#X obj 555 447 * 2;
#X msg 809 320 30;
#X msg 810 349 -1;
#X msg 808 296 10;
#X obj 398 397 >;
#X obj 366 424 spigot;
#X obj 495 325 r \$1-MANUAL_STOP_AT;
#X obj 501 519 s \$1-MANUAL_STOPPED;
#X obj 501 468 == 0;
#X obj 422 423 sel 0;
#X obj 422 448 f;
#X obj 733 437 s \$1-MANUAL_STOP_AT;
#X msg 844 324 20;
#X obj 48 451 s \$1-MANUAL_STOP_AT-can;
#X msg 23 381 color 0 22 \, label STOP\ AT\ (not\ stopped);
#X msg 48 414 color 13 22 \, label STOP\ AT\ (STOPPED!);
#X obj 23 328 r \$1-MANUAL_STOPPED;
#X obj 23 353 sel 0 1;
#X obj 555 374 abs;
#X obj 367 234 moses 0;
#X obj 433 234 moses 100;
#X msg 493 262 0;
#X obj 505 294 s \$1-VITESSE-rcv;
#X floatatom 333 265 5 0 0 0 - - - 0;
#X obj 177 503 r \$1-POSITION-snd;
#X msg 177 528 set \$1;
#X obj 433 313 t b b f;
#X obj 366 374 f;
#X obj 501 493 change -1;
#X msg 799 158 maxspeed \$1;
#X obj 799 82 r \$1-VITESSE-snd;
#X obj 799 108 abs;
#X obj 757 261 s \$1-real_pos-G-rcv;
#X obj 615 262 s \$1-real_pos-D-rcv;
#X obj 230 344 s \$1-VITESSE-rcv;
#X obj 230 317 r \$1-VITESSEd-snd;
#X obj 974 25 tgl 20 0 empty empty empty 0 -10 0 12 #fcfcfc #000000 #000000 0 1;
#X obj 974 54 metro 200;
#X obj 1006 267 loadbang;
#X obj 799 133 f;
#X obj 1004 -2 r \$1-STOP-snd;
#X msg 1004 23 0;
#X msg 932 4 1;
#X obj 666 16 clip 0 1;
#X floatatom 582 185 5 0 0 0 - - - 0;
#X connect 0 0 2 0;
#X connect 1 0 0 0;
#X connect 2 0 3 0;
#X connect 3 0 45 0;
#X connect 4 0 72 0;
#X connect 4 0 76 0;
#X connect 5 0 44 0;
#X connect 6 0 5 1;
#X connect 7 0 35 0;
#X connect 8 0 2 1;
#X connect 9 0 4 1;
#X connect 11 0 95 0;
#X connect 11 0 96 0;
#X connect 12 0 13 0;
#X connect 16 0 15 0;
#X connect 18 0 13 0;
#X connect 20 0 14 0;
#X connect 21 0 20 0;
#X connect 22 0 23 0;
#X connect 23 0 14 0;
#X connect 24 0 25 0;
#X connect 25 0 14 0;
#X connect 26 0 27 0;
#X connect 27 0 14 0;
#X connect 28 0 31 0;
#X connect 29 0 30 0;
#X connect 31 0 29 0;
#X connect 32 0 6 0;
#X connect 35 0 33 0;
#X connect 35 0 34 0;
#X connect 36 0 37 0;
#X connect 37 0 35 0;
#X connect 38 0 5 0;
#X connect 39 0 40 0;
#X connect 40 0 41 0;
#X connect 41 0 42 0;
#X connect 41 0 73 1;
#X connect 41 0 96 2;
#X connect 41 0 97 0;
#X connect 42 0 43 0;
#X connect 42 0 86 0;
#X connect 42 0 85 0;
#X connect 44 0 7 0;
#X connect 45 0 4 0;
#X connect 46 0 10 0;
#X connect 47 0 80 0;
#X connect 47 1 48 0;
#X connect 48 0 49 0;
#X connect 49 0 57 0;
#X connect 50 0 71 0;
#X connect 51 0 52 0;
#X connect 52 0 53 0;
#X connect 53 0 57 1;
#X connect 54 0 64 0;
#X connect 55 0 64 0;
#X connect 56 0 64 0;
#X connect 57 0 58 1;
#X connect 57 0 61 0;
#X connect 57 0 62 0;
#X connect 58 0 46 0;
#X connect 59 0 79 0;
#X connect 61 0 81 0;
#X connect 62 0 63 0;
#X connect 63 0 46 0;
#X connect 65 0 64 0;
#X connect 67 0 66 0;
#X connect 68 0 66 0;
#X connect 69 0 70 0;
#X connect 70 0 67 0;
#X connect 70 1 68 0;
#X connect 71 0 51 0;
#X connect 72 0 74 0;
#X connect 72 1 73 0;
#X connect 73 0 47 0;
#X connect 73 1 74 0;
#X connect 77 0 78 0;
#X connect 78 0 10 0;
#X connect 79 0 80 0;
#X connect 79 1 48 0;
#X connect 79 2 48 1;
#X connect 79 2 63 1;
#X connect 80 0 58 0;
#X connect 81 0 60 0;
#X connect 82 0 35 0;
#X connect 83 0 84 0;
#X connect 84 0 92 0;
#X connect 88 0 87 0;
#X connect 89 0 90 0;
#X connect 90 0 92 0;
#X connect 90 0 38 0;
#X connect 92 0 82 0;
#X connect 93 0 94 0;
#X connect 94 0 89 0;
#X connect 95 0 89 0;
#X connect 96 0 38 0;
#X restore 32 237 pd ModeManuel;
#N canvas 1338 342 504 406 reinit-logic 0;
#X msg 17 84 vis 1;
#X obj 17 112 s pd-\$0-CONFIRM_REINIT;
#X obj 17 19 r \$1-reinit-show-snd;
#X msg 66 84 vis 0;
#X obj 103 339 outlet;
#X obj 198 21 r \$0-reinit-cancel-snd;
#X obj 235 50 r \$0-reinit-ok-snd;
#X msg 267 232 0;
#X msg 235 231 3;
#X obj 235 180 t b b, f 6;
#X obj 235 205 del 1000;
#X obj 235 151 bng 20 250 50 0 empty empty reinit 23 10 0 12 #ff8300 #000000 #000000;
#X msg 354 289 0;
#X msg 352 220 0;
#X obj 354 313 s \$1-VITESSE-rcv;
#X obj 352 244 s \$1-POSITION-rcv;
#X obj 235 346 s mot_droite-ctl;
#X obj 354 346 s mot_gauche-ctl;
#X obj 235 313 t a;
#X obj 390 278 s \$1-STOP-rcv;
#N canvas 647 276 289 129 \$0-CONFIRM_REINIT 0;
#X obj 2 1 cnv 20 280 120 empty empty empty 20 12 0 12 #e0e0e0 #404040 0;
#X obj 34 52 bng 50 250 50 0 \$0-reinit-ok-snd \$0-reinit-ok-rcv OK 17 25 0 16 #00ff04 #000000 #000000;
#X obj 210 52 bng 50 250 50 0 \$0-reinit-cancel-snd \$0-reinit-cancel-rcv CANCEL 5 25 0 12 #faff00 #000000 #000000;
#X text 20 11 Cliquer sur OK pour confirmer que le mobile est à sa place de départ:, f 35;
#X restore 18 176 pd \$0-CONFIRM_REINIT;
#X msg 235 275 state \$1;
#X connect 0 0 1 0;
#X connect 2 0 0 0;
#X connect 3 0 1 0;
#X connect 5 0 3 0;
#X connect 6 0 3 0;
#X connect 6 0 11 0;
#X connect 7 0 21 0;
#X connect 8 0 21 0;
#X connect 9 0 10 0;
#X connect 9 1 7 0;
#X connect 9 1 13 0;
#X connect 9 1 19 0;
#X connect 10 0 8 0;
#X connect 10 0 4 0;
#X connect 11 0 9 0;
#X connect 12 0 14 0;
#X connect 13 0 15 0;
#X connect 18 0 16 0;
#X connect 18 0 17 0;
#X connect 21 0 18 0;
#X restore 33 361 pd reinit-logic;
#N canvas 0 0 450 201 vbatt-adj 0;
#X obj 34 15 loadbang;
#X obj 34 74 s mot_droite-vbatt-adj;
#X obj 208 74 s mot_gauche-vbatt-adj;
#X obj 34 113 v mot_droite-vbatt-adj;
#X obj 208 113 v mot_gauche-vbatt-adj;
#X floatatom 82 44 5 0 0 0 - - - 0;
#X msg 34 47 0.988;
#X msg 208 48 1;
#X connect 0 0 7 0;
#X connect 0 0 6 0;
#X connect 5 0 1 0;
#X connect 6 0 1 0;
#X connect 7 0 2 0;
#X restore 33 298 pd vbatt-adj;
#N canvas 89 736 450 201 gains 0;
#X obj 34 15 loadbang;
#X floatatom 82 44 5 0 0 0 - - - 0;
#X obj 34 74 s mot_droite-gain;
#X obj 34 113 v mot_droite-gain;
#X obj 208 113 v mot_gauche-gain;
#X obj 208 74 s mot_gauche-gain;
#X msg 259 43 1;
#X msg 34 47 -1;
#X msg 208 48 1;
#X connect 0 0 8 0;
#X connect 0 0 7 0;
#X connect 1 0 2 0;
#X connect 6 0 5 0;
#X connect 7 0 2 0;
#X connect 8 0 5 0;
#X restore 32 326 pd gains;
#N canvas 389 534 503 420 tests_ramp 0;
#X obj 87 227 s mot_droite-ctl;
#X obj 206 227 s mot_gauche-ctl;
#X msg 92 163 raw 11 l \$1;
#X msg 201 168 raw 11 l \$1;
#X obj 145 90 f;
#X obj 148 41 hsl 170 20 -32000 32000 0 0 empty empty empty -2 -10 0 12 #fcfcfc #000000 #000000 0 1;
#X msg 320 156 state 1;
#X msg 94 40 0;
#X obj 145 66 * 2;
#X msg 250 116 raw 3;
#X floatatom 177 112 5 0 0 0 - - - 0;
#X msg 359 51 8384;
#X msg 379 110 -8384;
#X floatatom 28 49 5 0 0 0 - - - 0;
#X msg 43 83 0;
#X obj 92 138 * 1;
#X msg 33 122 7750;
#X msg 37 194 -1000;
#X msg 82 79 -7750;
#X msg 30 148 7600;
#X msg 30 274 7600;
#X msg 75 274 7850;
#X obj 30 299 * 8;
#X connect 2 0 0 0;
#X connect 3 0 1 0;
#X connect 4 0 3 0;
#X connect 4 0 10 0;
#X connect 4 0 15 0;
#X connect 5 0 8 0;
#X connect 6 0 1 0;
#X connect 6 0 0 0;
#X connect 7 0 5 0;
#X connect 8 0 4 0;
#X connect 9 0 1 0;
#X connect 9 0 0 0;
#X connect 11 0 4 0;
#X connect 12 0 4 0;
#X connect 13 0 15 0;
#X connect 14 0 15 0;
#X connect 15 0 2 0;
#X connect 16 0 15 0;
#X connect 17 0 15 0;
#X connect 18 0 15 0;
#X connect 19 0 15 0;
#X connect 20 0 22 0;
#X connect 21 0 22 0;
#X connect 22 0 15 0;
#X restore 549 301 pd tests_ramp;
#N canvas 997 334 702 320 debug_trajtables 0;
#X floatatom 68 77 5 0 0 0 - - - 0;
#X listbox 68 166 20 0 0 0 - - - 0;
#X obj 68 109 * 4;
#X obj 68 141 array get mot_droite-trajtable 0 4;
#X listbox 326 165 20 0 0 0 - - - 0;
#X obj 326 140 array get mot_gauche-trajtable 0 4;
#X floatatom 84 246 17 0 0 0 - - - 0;
#X obj 84 221 fruit/decode lint32;
#X floatatom 301 246 17 0 0 0 - - - 0;
#X obj 301 221 fruit/decode lint32;
#X connect 0 0 2 0;
#X connect 2 0 3 0;
#X connect 2 0 5 0;
#X connect 3 0 1 0;
#X connect 3 0 7 0;
#X connect 5 0 4 0;
#X connect 5 0 9 0;
#X connect 7 0 6 0;
#X connect 9 0 8 0;
#X restore 549 330 pd debug_trajtables;
#X msg 207 90 ID fECEE9A4EA482D88E;
#X msg 542 92 ID f2AAEA9C9FB1F634C;
#X obj 229 684 s \$1-droite-resend-rcv;
#X obj 34 601 r \$1-droite-resend-snd;
#X msg 343 656 color 0 22 0;
#X msg 229 653 color 13 22 13;
#X obj 228 603 r mot_droite-hashOK;
#X obj 228 627 sel 0 1;
#X obj 34 630 symbol \$1-TAB_MOTD;
#X msg 34 655 sendtable \$1;
#X obj 34 680 s mot_droite-ctl;
#X msg 347 791 color 0 22 0;
#X msg 233 788 color 13 22 13;
#X obj 232 762 sel 0 1;
#X msg 38 790 sendtable \$1;
#X obj 38 736 r \$1-gauche-resend-snd;
#X obj 232 738 r mot_gauche-hashOK;
#X obj 38 765 symbol \$1-TAB_MOTG;
#X obj 38 815 s mot_gauche-ctl;
#X obj 233 819 s \$1-gauche-resend-rcv;
#N canvas 903 229 908 728 error/reprise 0;
#X obj 61 20 r mot_droite-state;
#X obj 197 21 r mot_gauche-state;
#X obj 61 129 s \$1-STOP-rcv;
#X obj 103 526 s \$1-VITESSE-rcv;
#X obj 377 122 f;
#X obj 395 96 r \$1-VITESSE-snd;
#X obj 64 403 v \$1-previous-VITESSE;
#X obj 370 384 r \$1-REPRISE-snd;
#X obj 64 348 t b b, f 23;
#X obj 377 23 r mot_droite-state;
#X obj 544 22 r mot_gauche-state;
#X obj 377 48 sel tableramp error;
#X obj 544 46 sel tableramp error;
#X obj 61 99 t b b b, f 32;
#X obj 264 575 s mot_droite-ctl;
#X obj 383 575 s mot_gauche-ctl;
#X obj 264 542 t a;
#X text 334 504 switch to state 3=tableramp;
#X obj 195 48 bng 20 250 50 0 empty empty empty 0 -10 0 12 #fcfcfc #000000 #000000;
#X floatatom 32 494 5 0 0 0 - - - 0;
#X obj 586 300 tgl 20 0 empty empty empty 0 -10 0 12 #fcfcfc #000000 #000000 0 1;
#X obj 753 293 tgl 20 0 empty empty empty 0 -10 0 12 #fcfcfc #000000 #000000 0 1;
#X obj 586 325 &&;
#X obj 617 325 t b f;
#X obj 586 196 r mot_droite-state;
#X obj 753 195 r mot_gauche-state;
#X msg 586 246 1;
#X msg 676 244 0;
#X obj 586 271 f;
#X msg 753 244 1;
#X msg 841 245 0;
#X obj 753 269 f;
#X obj 586 350 tgl 20 0 empty empty empty 0 -10 0 12 #fcfcfc #000000 #000000 0 1;
#X obj 586 221 sel tableramp;
#X obj 753 219 sel tableramp;
#X obj 377 194 v \$1-previous-VITESSE;
#X obj 377 160 f;
#X floatatom 415 156 5 0 0 0 - - - 0;
#X msg 535 92 -1;
#X obj 64 432 sel -1;
#X msg 160 468 state 3;
#X msg 324 539 state 4;
#X obj 791 584 bng 50 250 50 0 \$0-REPRISE-snd \$0-REPRISE-rcv REPRISE -5 -10 0 16 #ff8300 #000000 #000000;
#X text 752 636 en cas d'erreur;
#X obj 346 348 r \$0-REPRISE-snd;
#X obj 182 136 bng 20 250 50 0 empty empty empty 0 -10 0 12 #fcfcfc #000000 #000000;
#X msg 346 460 state 5;
#X text 409 462 recover;
#X text 383 538 set error;
#X obj 545 540 r mot_droite-step;
#X obj 677 540 r mot_gauche-step;
#X obj 545 565 +;
#X obj 575 565 t b f;
#X obj 527 615 f;
#X obj 527 673 s \$1-POSITION-rcv;
#X msg 666 102 raw 41 l \$1;
#X obj 666 161 s mot_droite-ctl;
#X obj 785 161 s mot_gauche-ctl;
#X obj 666 128 t a;
#X floatatom 666 668 5 0 0 0 - - - 0;
#X obj 545 590 / 2;
#X obj 527 645 / 100;
#X floatatom 449 675 5 0 0 0 - - - 0;
#X floatatom 452 646 5 0 0 0 - - - 0;
#X obj 361 621 b;
#X obj 61 48 sel error manual;
#X obj 361 667 del 1500;
#X obj 241 237 r mot_droite-state;
#X obj 241 265 sel error;
#X msg 241 290 1;
#X msg 301 289 0;
#X obj 241 315 f;
#X obj 390 257 sel error;
#X msg 390 282 1;
#X msg 450 281 0;
#X obj 390 307 f;
#X obj 390 229 r mot_droite-gauche;
#X msg 464 537 state 4;
#X connect 0 0 65 0;
#X connect 1 0 65 0;
#X connect 4 0 36 0;
#X connect 5 0 4 1;
#X connect 6 0 39 0;
#X connect 6 0 19 0;
#X connect 7 0 46 0;
#X connect 8 0 6 0;
#X connect 9 0 11 0;
#X connect 10 0 12 0;
#X connect 11 0 4 0;
#X connect 11 2 38 0;
#X connect 12 0 4 0;
#X connect 12 2 38 0;
#X connect 13 0 2 0;
#X connect 13 1 45 0;
#X connect 16 0 14 0;
#X connect 16 0 15 0;
#X connect 18 0 13 0;
#X connect 20 0 22 0;
#X connect 21 0 23 0;
#X connect 22 0 32 0;
#X connect 23 0 22 0;
#X connect 23 1 22 1;
#X connect 24 0 33 0;
#X connect 25 0 34 0;
#X connect 26 0 28 0;
#X connect 27 0 28 0;
#X connect 28 0 20 0;
#X connect 29 0 31 0;
#X connect 30 0 31 0;
#X connect 31 0 21 0;
#X connect 33 0 26 0;
#X connect 33 1 27 0;
#X connect 34 0 29 0;
#X connect 34 1 30 0;
#X connect 36 0 35 0;
#X connect 36 0 37 0;
#X connect 38 0 36 0;
#X connect 39 1 3 0;
#X connect 39 1 40 0;
#X connect 41 0 14 0;
#X connect 44 0 46 0;
#X connect 46 0 16 0;
#X connect 46 0 64 0;
#X connect 49 0 51 0;
#X connect 50 0 52 0;
#X connect 51 0 60 0;
#X connect 52 0 51 0;
#X connect 52 1 51 1;
#X connect 53 0 55 0;
#X connect 53 0 61 0;
#X connect 53 0 63 0;
#X connect 55 0 58 0;
#X connect 58 0 56 0;
#X connect 58 0 57 0;
#X connect 60 0 53 1;
#X connect 60 0 59 0;
#X connect 61 0 54 0;
#X connect 61 0 62 0;
#X connect 64 0 66 0;
#X connect 65 0 13 0;
#X connect 65 1 13 0;
#X connect 66 0 53 0;
#X connect 67 0 68 0;
#X connect 68 0 69 0;
#X connect 68 1 70 0;
#X connect 69 0 71 0;
#X connect 70 0 71 0;
#X connect 72 0 73 0;
#X connect 72 1 74 0;
#X connect 73 0 75 0;
#X connect 74 0 75 0;
#X connect 76 0 72 0;
#X connect 77 0 15 0;
#X restore 221 160 pd error/reprise;
#X obj 32 14 wifruit mot_droite f7187834E39D13680;
#X obj 356 14 wifruit mot_gauche fAFB464EFAAB1C15F;
#X connect 2 0 7 0;
#X connect 3 0 4 0;
#X connect 4 0 5 0;
#X connect 4 0 6 0;
#X connect 4 0 9 0;
#X connect 5 0 4 1;
#X connect 7 0 3 0;
#X connect 8 0 4 1;
#X connect 10 0 4 1;
#X connect 11 0 12 0;
#X connect 12 0 19 0;
#X connect 13 0 36 0;
#X connect 14 0 13 0;
#X connect 15 0 16 0;
#X connect 16 0 22 0;
#X connect 17 0 30 0;
#X connect 18 0 17 0;
#X connect 20 0 19 0;
#X connect 20 1 19 1;
#X connect 21 0 36 0;
#X connect 21 1 36 1;
#X connect 22 0 21 0;
#X connect 23 0 22 0;
#X connect 23 1 22 1;
#X connect 24 0 39 0;
#X connect 26 0 27 0;
#X connect 28 0 31 0;
#X connect 29 0 28 0;
#X connect 30 0 23 0;
#X connect 31 0 30 0;
#X connect 31 1 30 1;
#X connect 33 0 34 0;
#X connect 34 0 25 0;
#X connect 36 0 20 0;
#X connect 36 0 24 0;
#X connect 39 0 40 0;
#X connect 40 0 25 0;
#X connect 42 0 11 0;
#X connect 47 0 68 0;
#X connect 48 0 69 0;
#X connect 50 0 55 0;
#X connect 51 0 49 0;
#X connect 52 0 49 0;
#X connect 53 0 54 0;
#X connect 54 0 52 0;
#X connect 54 1 51 0;
#X connect 55 0 56 0;
#X connect 56 0 57 0;
#X connect 58 0 66 0;
#X connect 59 0 66 0;
#X connect 60 0 59 0;
#X connect 60 1 58 0;
#X connect 61 0 65 0;
#X connect 62 0 64 0;
#X connect 63 0 60 0;
#X connect 64 0 61 0;
