#N canvas 591 299 645 594 12;
#X obj 153 101 cnv 20 55 20 empty \$0-connected-can connecté 2 12 0 10 #14e814 #000000 0;
#X obj 57 371 s \$0-connected-can;
#X obj 57 214 fruit/receive mot_\$1;
#X obj 57 239 route present;
#X obj 57 264 sel 0 1;
#X msg 57 325 color \$1 \$2 \$2;
#X msg 57 289 10 1;
#X msg 97 289 16 22;
#X obj 101 101 cnv 20 50 20 empty empty \$1: 2 12 0 10 #000000 #ffffff 0;
#X obj 335 101 cnv 20 55 20 empty empty courant: 2 12 0 10 #000000 #ffffff 0;
#X obj 390 101 cnv 20 32 20 empty \$0-current-can \ \ 8mA 2 12 0 10 #dfdfdf #000000 0;
#X obj 424 101 cnv 20 55 20 empty empty batterie: 2 12 0 10 #000000 #ffffff 0;
#X obj 312 371 s \$0-current-can;
#X floatatom 364 228 5 0 0 0 - - - 0;
#X obj 312 320 makefilename %3dmA;
#X msg 312 346 label \$1;
#X obj 481 101 cnv 20 32 20 empty \$0-volt-can 13.0V 2 12 0 10 #dfdfdf #000000 0;
#X msg 451 346 label \$1;
#X obj 451 371 s \$0-volt-can;
#X floatatom 461 267 5 0 0 0 - - - 0;
#X obj 451 320 makefilename %4.1fV;
#X obj 312 263 r mot_\$1-sense;
#X obj 312 288 unpack f f;
#X obj 207 172 loadbang;
#X msg 207 197 0;
#X obj 209 101 cnv 20 55 20 empty empty état: 2 12 0 10 #000000 #ffffff 0;
#X obj 264 101 cnv 20 70 20 empty \$0-statename-can tableramp 2 12 0 10 #e0e0e0 #000000 0;
#X obj 204 417 route state;
#X obj 204 442 symbol;
#X listbox 457 529 20 0 0 0 - - - 0;
#X msg 204 467 label \$1;
#X obj 204 492 s \$0-statename-can;
#X obj 354 423 sel error;
#X msg 354 484 color \$1 \$2 \$2;
#X msg 414 448 10 22;
#X msg 354 448 13 22;
#X obj 433 423 loadbang;
#X obj 493 188 loadbang;
#X msg 493 213 0 0;
#X obj 145 543 print \$1 current (mA);
#X obj 78 516 moses 1500;
#X connect 2 0 3 0;
#X connect 3 0 4 0;
#X connect 3 1 27 0;
#X connect 4 0 6 0;
#X connect 4 1 7 0;
#X connect 5 0 1 0;
#X connect 6 0 5 0;
#X connect 7 0 5 0;
#X connect 13 0 14 0;
#X connect 14 0 15 0;
#X connect 15 0 12 0;
#X connect 17 0 18 0;
#X connect 19 0 20 0;
#X connect 20 0 17 0;
#X connect 21 0 22 0;
#X connect 22 0 14 0;
#X connect 22 0 40 0;
#X connect 22 1 20 0;
#X connect 23 0 24 0;
#X connect 24 0 4 0;
#X connect 27 0 28 0;
#X connect 28 0 30 0;
#X connect 28 0 32 0;
#X connect 30 0 31 0;
#X connect 32 0 35 0;
#X connect 32 1 34 0;
#X connect 33 0 31 0;
#X connect 34 0 33 0;
#X connect 35 0 33 0;
#X connect 36 0 34 0;
#X connect 37 0 38 0;
#X connect 37 0 28 0;
#X connect 38 0 22 0;
#X connect 40 1 39 0;
#X coords 0 -1 1 1 415 22 2 100 100;
