#N canvas 718 277 507 539 12;
#X obj 153 101 cnv 20 55 20 empty \$0-connected-can connecté 2 12 0 10 #14e814 #000000 0;
#X obj 54 372 s \$0-connected-can;
#X obj 57 214 fruit/receive mot_\$1;
#X obj 57 239 route present;
#X obj 57 264 sel 0 1;
#X msg 57 325 color \$1 \$2 \$2;
#X msg 57 289 10 1;
#X msg 97 289 16 22;
#X obj 101 101 cnv 20 50 20 empty empty \$1: 2 12 0 10 #000000 #ffffff 0;
#X obj 210 101 cnv 20 55 20 empty empty courant: 2 12 0 10 #000000 #ffffff 0;
#X obj 265 101 cnv 20 32 20 empty \$0-current-can 134mA 2 12 0 10 #dfdfdf #000000 0;
#X obj 299 101 cnv 20 55 20 empty empty batterie: 2 12 0 10 #000000 #ffffff 0;
#X obj 332 185 cnv 20 20 20 empty empty mA 2 12 0 10 #dfdfdf #000000 0;
#X obj 193 271 route l;
#X obj 193 296 route current;
#X obj 193 372 s \$0-current-can;
#X floatatom 245 229 5 0 0 0 - - - 0;
#X obj 193 321 makefilename %3dmA;
#X msg 193 347 label \$1;
#X obj 356 101 cnv 20 32 20 empty \$0-volt-can 12.7V 2 12 0 10 #dfdfdf #000000 0;
#X msg 332 347 label \$1;
#X obj 332 372 s \$0-volt-can;
#X floatatom 342 268 5 0 0 0 - - - 0;
#X obj 332 321 makefilename %4.1fV;
#X connect 2 0 3 0;
#X connect 3 0 4 0;
#X connect 3 1 13 0;
#X connect 4 0 6 0;
#X connect 4 1 7 0;
#X connect 5 0 1 0;
#X connect 6 0 5 0;
#X connect 7 0 5 0;
#X connect 13 0 14 0;
#X connect 14 0 17 0;
#X connect 16 0 17 0;
#X connect 17 0 18 0;
#X connect 18 0 15 0;
#X connect 20 0 21 0;
#X connect 22 0 23 0;
#X connect 23 0 20 0;
#X coords 0 -1 1 1 300 22 2 100 100;
