#N canvas 513 109 1264 971 12;
#X msg 361 24 1;
#X msg 369 53 2;
#X text 402 53 print current;
#X text 390 25 print pwm;
#X msg 376 82 3;
#X text 409 82 print encoder/speed;
#X msg 389 108 4;
#X text 420 107 print ramp pos;
#X msg 403 187 100 i \$1;
#X text 473 189 pwm;
#X obj 406 163 hsl 170 20 -32000 32000 0 0 empty empty empty -2 -10 0 12 #fcfcfc #000000 #000000 0 1;
#X msg 402 139 0;
#X msg 408 251 220 \$1;
#X obj 408 225 tgl 20 0 empty empty empty 0 -10 0 12 #fcfcfc #000000 #000000 0 1;
#X msg 406 313 210 l \$1;
#X msg 406 288 0;
#X text 458 251 enable motor control;
#X text 472 313 set encoder;
#X msg 404 403 11 l \$1;
#X text 463 405 ramp goto;
#X obj 407 377 hsl 170 20 -32000 32000 0 0 empty empty empty -2 -10 0 12 #fcfcfc #000000 #000000 0 1;
#X msg 421 351 0;
#X msg 630 419 110 l \$1 \$2 \$3;
#X obj 630 316 pack f f f;
#X obj 630 341 unpack f f f, f 16;
#X obj 630 366 * 1000;
#X obj 630 391 pack f f f, f 16;
#X obj 684 366 * 1000;
#X obj 739 366 * 1000;
#X obj 666 280 t b f;
#X obj 713 280 t b f;
#X text 741 419 PID;
#X msg 504 283 210 l 0 \, 220 1;
#X floatatom 676 232 5 0 0 0 - - - 0;
#X floatatom 722 231 5 0 0 0 - - - 0;
#X floatatom 769 230 5 0 0 0 - - - 0;
#X msg 234 291 1 \, 3 \, 4;
#X msg 598 120 12 l \$1;
#X msg 667 191 90 100 1;
#X msg 598 64 5400;
#X floatatom 598 89 5 0 0 0 - - - 0;
#X msg 641 67 8000;
#X msg 783 64 5400;
#X floatatom 783 89 5 0 0 0 - - - 0;
#X msg 826 67 8000;
#X text 654 119 ramp max speed (step/s), f 15;
#X text 846 118 ramp accel (step/s/s), f 10;
#X obj 29 149 route current;
#X floatatom 29 174 5 0 0 0 - - - 0;
#X obj 535 32 metro 200;
#X obj 557 0 tgl 20 0 empty empty empty 0 -10 0 12 #fcfcfc #000000 #000000 0 1;
#X msg 630 462 240;
#X text 659 460 print free ram;
#X msg 630 486 241;
#X text 659 484 print wifi_status and IP;
#X text 710 623 set time;
#X listbox 18 257 20 0 0 0 - - - 0;
#X obj 208 458 metro 100;
#X obj 208 431 tgl 20 0 empty empty empty 0 -10 0 12 #fcfcfc #000000 #000000 0 1;
#X msg 208 483 0;
#X msg 430 448 13;
#X text 459 447 ramp stop;
#X obj 290 251 route ramp;
#X msg 290 276 set \$1;
#X listbox 6 43 10 0 0 0 - - - 24;
#X obj 968 55 vradio 20 1 0 5 empty empty STATE 0 -10 0 12 #fcfcfc #000000 #000000 0;
#X text 990 53 manual;
#X text 991 74 ramp;
#X text 991 94 table;
#X text 992 136 error;
#X msg 968 160 20 \$1;
#X msg 967 210 30;
#X text 998 210 clear error;
#X floatatom 536 423 10 0 0 0 - - - 0;
#X obj 29 99 fruit/receive \$1;
#X obj 306 533 fruit/send \$1;
#X obj 208 378 fruit/receive \$1;
#X obj 208 403 route present;
#X obj 633 721 list prepend 10;
#X msg 663 625 0 l \$1;
#X text 743 720 trajectory table;
#X msg 707 683 1 l \$1;
#X text 759 683 read;
#X floatatom 707 657 5 0 0 0 - - - 0;
#X msg 879 727 2 l \$1 i \$2 l \$3;
#X msg 883 757 3;
#X text 912 754 stop;
#X obj 879 679 + 2;
#X obj 879 652 f;
#X obj 879 622 bng 20 250 50 0 empty empty empty 0 -10 0 12 #fcfcfc #000000 #000000;
#X text 1001 724 play: sec ms us/step;
#X msg 879 704 \$1 0 5000;
#X obj 359 686 + 2;
#X obj 359 659 f;
#X obj 359 629 bng 20 250 50 0 empty empty empty 0 -10 0 12 #fcfcfc #000000 #000000;
#X text 491 761 play: sec ms us/step;
#X msg 359 762 25 l \$1 i \$2 l \$3;
#X msg 84 692 242;
#X text 117 693 print partitions info;
#X msg 84 723 243;
#X text 117 724 find 'Tables' partition;
#X msg 85 751 244;
#X text 114 751 print wifi config;
#X obj 270 214 s \$1-step;
#X obj 957 267 r \$1-ctl;
#X obj 663 599 r TIME;
#X obj 390 660 r TIME;
#X obj 304 149 print from-\$1;
#X floatatom 1026 346 5 0 0 0 - - - 0;
#X obj 537 888 line;
#X msg 537 863 \$1 10000;
#X obj 537 833 tgl 20 0 empty empty empty 0 -10 0 12 #fcfcfc #000000 #000000 0 1;
#X obj 537 913 * 30000;
#X msg 783 120 14 l \$1;
#X text 991 115 tableramp;
#X obj 754 829 hsl 170 20 0 3000 0 0 empty empty empty -2 -10 0 12 #fcfcfc #000000 #000000 0 1;
#X msg 751 855 41 l \$1;
#X text 808 853 tableramp goto;
#X obj 957 292 route start stop state raw sendtable;
#N canvas 84 356 894 628 send_table 1;
#X obj 35 10 inlet;
#X obj 227 129 array size;
#X obj 227 103 t b s, f 10;
#X obj 35 36 symbol;
#X obj 227 154 * 4;
#X msg 227 179 resize \$1;
#X obj 195 32 table \$0-trajtable 12000;
#X obj 227 204 s \$0-trajtable;
#X msg 34 506 sendudp \$1;
#X obj 34 455 bng 20 250 50 0 empty empty empty 0 -10 0 12 #fcfcfc #000000 #000000;
#X listbox 34 599 7 0 0 1 kB/s - - 0;
#X floatatom 178 600 9 0 0 0 - - - 0;
#X obj 178 624 bng 20 250 50 0 empty empty empty 0 -10 0 12 #fcfcfc #000000 #000000;
#X obj 34 534 send_frame_wifruit \$1;
#X obj 58 94 f;
#X obj 58 144 until;
#X obj 58 119 t f b, f 7;
#X obj 58 169 i;
#X obj 96 171 + 1;
#X msg 104 146 0;
#X obj 58 199 t f f, f 10;
#X obj 58 230 tabread;
#X msg 161 164 set \$1;
#X obj 35 62 t b b s;
#X obj 58 422 array set \$0-trajtable;
#X obj 125 230 * 4;
#X obj 58 365 fruit/send \$0-traj-format;
#X obj 58 285 * 3, f 55;
#X floatatom 5 155 5 0 0 0 - - - 0;
#X obj 34 480 symbol \$0-trajtable;
#X obj 442 471 array size \$0-trajtable;
#X floatatom 442 496 7 0 0 0 - - - 0;
#X obj 442 442 bng 20 250 50 0 empty empty empty 0 -10 0 12 #fcfcfc #000000 #000000;
#X obj 217 457 bng 20 250 50 0 empty empty empty 0 -10 0 12 #fcfcfc #000000 #000000;
#X obj 217 482 symbol \$0-test;
#X obj 360 104 loadbang;
#X msg 360 129 5;
#X obj 360 157 v \$0-trajtable-ID;
#X obj 259 601 s \$1-table_sent;
#X obj 84 7 bng 20 250 50 0 empty empty empty 0 -10 0 12 #fcfcfc #000000 #000000;
#X obj 58 397 r Fraise-\$0-traj-format-rcv;
#X msg 58 334 ll \$1;
#X obj 440 261 v MOTORS_INC_BY_MM;
#X obj 440 238 b;
#X floatatom 462 287 5 0 0 0 - - - 0;
#X obj 690 506 v \$0-test-ID;
#X obj 690 453 loadbang;
#X msg 690 478 5;
#X obj 695 190 until;
#X obj 695 215 i;
#X obj 729 216 + 1;
#X obj 695 127 array size \$0-test;
#X obj 695 101 t b b;
#X msg 746 190 0;
#X obj 695 240 t f f;
#X obj 695 75 bng 20 250 50 0 empty empty empty 0 -10 0 12 #fcfcfc #000000 #000000;
#X obj 695 159 / 4;
#X obj 690 39 table \$0-test 12000;
#X obj 695 377 array set \$0-test;
#X obj 740 265 * 4;
#X obj 695 318 fruit/send \$0-format;
#X obj 695 351 r Fraise-\$0-format-rcv;
#X floatatom 764 235 5 0 0 0 - - - 0;
#X msg 695 290 ll \$1;
#X obj 695 265 * 30;
#X obj 58 310 i;
#X obj 199 323 +;
#X msg 203 226 0;
#X obj 231 323 mod 65536;
#X obj 121 322 mod 65536;
#X obj 277 370 f;
#X obj 277 395 ==;
#X obj 309 395 t b f;
#X obj 277 420 s \$1-hashOK;
#X obj 368 420 tgl 20 0 empty empty empty 0 -10 0 12 #fcfcfc #000000 #000000 0 1;
#X obj 309 369 r \$1-tablehash;
#X floatatom 424 370 5 0 0 0 - - - 0;
#X obj 58 258 * 1;
#X obj 172 255 v \$1-gain;
#X obj 172 229 b;
#X connect 0 0 3 0;
#X connect 1 0 4 0;
#X connect 1 0 14 1;
#X connect 2 0 1 0;
#X connect 2 1 1 1;
#X connect 3 0 23 0;
#X connect 4 0 5 0;
#X connect 5 0 7 0;
#X connect 8 0 13 0;
#X connect 9 0 29 0;
#X connect 11 0 12 0;
#X connect 13 0 10 0;
#X connect 13 1 11 0;
#X connect 13 1 38 0;
#X connect 14 0 16 0;
#X connect 15 0 17 0;
#X connect 16 0 15 0;
#X connect 16 0 28 0;
#X connect 16 1 19 0;
#X connect 17 0 18 0;
#X connect 17 0 20 0;
#X connect 18 0 17 1;
#X connect 19 0 17 1;
#X connect 20 0 21 0;
#X connect 20 1 25 0;
#X connect 21 0 77 0;
#X connect 22 0 21 0;
#X connect 23 0 9 0;
#X connect 23 0 70 0;
#X connect 23 1 14 0;
#X connect 23 2 2 0;
#X connect 23 2 22 0;
#X connect 23 2 43 0;
#X connect 23 2 67 0;
#X connect 23 2 79 0;
#X connect 25 0 24 1;
#X connect 27 0 65 0;
#X connect 29 0 8 0;
#X connect 30 0 31 0;
#X connect 32 0 30 0;
#X connect 33 0 34 0;
#X connect 34 0 8 0;
#X connect 35 0 36 0;
#X connect 36 0 37 0;
#X connect 39 0 3 0;
#X connect 40 0 24 0;
#X connect 41 0 26 0;
#X connect 42 0 27 1;
#X connect 42 0 44 0;
#X connect 43 0 42 0;
#X connect 46 0 47 0;
#X connect 47 0 45 0;
#X connect 48 0 49 0;
#X connect 49 0 50 0;
#X connect 49 0 54 0;
#X connect 50 0 49 1;
#X connect 51 0 56 0;
#X connect 52 0 51 0;
#X connect 52 1 53 0;
#X connect 53 0 49 1;
#X connect 54 0 64 0;
#X connect 54 1 59 0;
#X connect 55 0 52 0;
#X connect 56 0 48 0;
#X connect 59 0 58 1;
#X connect 61 0 58 0;
#X connect 62 0 64 0;
#X connect 63 0 60 0;
#X connect 64 0 63 0;
#X connect 65 0 41 0;
#X connect 65 0 69 0;
#X connect 66 0 68 0;
#X connect 67 0 66 1;
#X connect 68 0 66 1;
#X connect 68 0 70 1;
#X connect 69 0 66 0;
#X connect 70 0 71 0;
#X connect 71 0 73 0;
#X connect 71 0 74 0;
#X connect 72 0 71 0;
#X connect 72 1 71 1;
#X connect 75 0 72 0;
#X connect 75 0 76 0;
#X connect 77 0 27 0;
#X connect 78 0 77 1;
#X connect 79 0 78 0;
#X restore 1138 325 pd send_table;
#X msg 85 783 WIFI_CONFIG Domozic bidouchette;
#X obj 112 189 s \$1-state;
#X msg 701 768 10;
#X text 727 768 get hash;
#X listbox 214 54 20 0 0 0 - - - 0;
#X obj 131 148 unpack s f;
#X floatatom 202 95 8 0 0 0 - - - 0;
#X obj 193 191 s \$1-tablehash;
#X obj 29 124 route l time state step rstep sense, f 43;
#X obj 38 399 s \$1-sense;
#X obj 38 349 unpack f f;
#X obj 105 372 * 0.988;
#X obj 38 374 pack f f;
#X obj 396 629 t b a, f 8;
#X obj 449 658 unpack f f;
#X obj 516 685 * 1000;
#X obj 359 713 pack f f, f 23;
#X msg 359 739 \$1 0 \$2;
#X msg 781 802 100;
#X msg 745 799 0;
#X obj 153 295 r \$1-step;
#X floatatom 153 320 5 0 0 0 - - - 0;
#X msg 512 579 2 5;
#X msg 947 855 43;
#X text 978 858 tableramp stop;
#X obj 216 162 list split 1;
#X obj 151 345 r \$1-vbatt-adj;
#X obj 77 439 loadbang;
#X obj 77 464 v \$1-vbatt-adj;
#X obj 77 489 s \$1-vbatt-adj;
#X connect 0 0 75 0;
#X connect 1 0 75 0;
#X connect 4 0 75 0;
#X connect 6 0 75 0;
#X connect 8 0 75 0;
#X connect 10 0 8 0;
#X connect 11 0 10 0;
#X connect 12 0 75 0;
#X connect 13 0 12 0;
#X connect 14 0 75 0;
#X connect 15 0 14 0;
#X connect 18 0 75 0;
#X connect 20 0 18 0;
#X connect 20 0 73 0;
#X connect 21 0 20 0;
#X connect 22 0 75 0;
#X connect 23 0 24 0;
#X connect 24 0 25 0;
#X connect 24 1 27 0;
#X connect 24 2 28 0;
#X connect 25 0 26 0;
#X connect 26 0 22 0;
#X connect 27 0 26 1;
#X connect 28 0 26 2;
#X connect 29 0 23 0;
#X connect 29 1 23 1;
#X connect 30 0 23 0;
#X connect 30 1 23 2;
#X connect 32 0 75 0;
#X connect 33 0 23 0;
#X connect 34 0 29 0;
#X connect 35 0 30 0;
#X connect 36 0 75 0;
#X connect 37 0 75 0;
#X connect 38 0 23 0;
#X connect 39 0 40 0;
#X connect 40 0 37 0;
#X connect 41 0 40 0;
#X connect 42 0 43 0;
#X connect 43 0 113 0;
#X connect 44 0 43 0;
#X connect 47 0 48 0;
#X connect 47 1 62 0;
#X connect 49 0 1 0;
#X connect 50 0 49 0;
#X connect 51 0 75 0;
#X connect 53 0 75 0;
#X connect 57 0 59 0;
#X connect 58 0 57 0;
#X connect 59 0 75 0;
#X connect 60 0 75 0;
#X connect 62 0 63 0;
#X connect 63 0 20 0;
#X connect 65 0 70 0;
#X connect 70 0 75 0;
#X connect 71 0 75 0;
#X connect 74 0 128 0;
#X connect 76 0 77 0;
#X connect 77 0 58 0;
#X connect 78 0 75 0;
#X connect 79 0 78 0;
#X connect 81 0 78 0;
#X connect 83 0 81 0;
#X connect 84 0 78 0;
#X connect 85 0 78 0;
#X connect 87 0 91 0;
#X connect 88 0 87 0;
#X connect 89 0 88 0;
#X connect 91 0 84 0;
#X connect 92 0 136 0;
#X connect 93 0 92 0;
#X connect 94 0 93 0;
#X connect 96 0 75 0;
#X connect 97 0 75 0;
#X connect 99 0 75 0;
#X connect 101 0 75 0;
#X connect 104 0 118 0;
#X connect 105 0 79 0;
#X connect 106 0 93 1;
#X connect 109 0 112 0;
#X connect 110 0 109 0;
#X connect 111 0 110 0;
#X connect 112 0 20 0;
#X connect 113 0 75 0;
#X connect 115 0 116 0;
#X connect 116 0 75 0;
#X connect 118 0 133 0;
#X connect 118 1 85 0;
#X connect 118 1 60 0;
#X connect 118 1 143 0;
#X connect 118 2 65 0;
#X connect 118 2 108 0;
#X connect 118 3 75 0;
#X connect 118 4 119 0;
#X connect 120 0 75 1;
#X connect 122 0 78 0;
#X connect 125 0 64 0;
#X connect 125 0 121 0;
#X connect 125 0 124 0;
#X connect 125 1 126 0;
#X connect 125 1 127 0;
#X connect 128 0 47 0;
#X connect 128 1 56 0;
#X connect 128 2 125 0;
#X connect 128 3 145 0;
#X connect 128 4 145 0;
#X connect 128 5 130 0;
#X connect 128 6 107 0;
#X connect 130 0 132 0;
#X connect 130 1 131 0;
#X connect 131 0 132 1;
#X connect 132 0 129 0;
#X connect 133 0 93 0;
#X connect 133 1 134 0;
#X connect 134 0 92 1;
#X connect 134 1 135 0;
#X connect 135 0 136 1;
#X connect 136 0 137 0;
#X connect 137 0 96 0;
#X connect 138 0 115 0;
#X connect 139 0 115 0;
#X connect 140 0 141 0;
#X connect 142 0 133 0;
#X connect 143 0 75 0;
#X connect 145 0 103 0;
#X connect 146 0 131 1;
#X connect 147 0 148 0;
#X connect 148 0 149 0;
#X coords 0 -1 1 1 150 60 1 2 20;
