#N canvas 42 7 315 470 12;
#X obj 31 94 inlet;
#X obj 89 224 symbol;
#N canvas 1002 44 893 950 UDP 1;
#X obj 92 31 inlet;
#X obj 92 495 * 3;
#X obj 92 201 t b f;
#X floatatom 310 172 5 0 0 0 - - - 0;
#X msg 273 136 1024;
#X msg 313 134 2048;
#X msg 357 133 4096;
#X obj 310 196 div 3;
#X obj 310 221 * 3;
#X floatatom 310 246 5 0 0 0 - - - 0;
#X floatatom 348 221 5 0 0 0 - - - 0;
#X obj 92 147 div 1365;
#X obj 313 105 loadbang;
#X obj 92 65 t b s, f 20;
#X obj 92 90 array size, f 14;
#X obj 92 119 div 3;
#X floatatom 144 120 5 0 0 0 - - - 0;
#X floatatom 208 95 8 0 0 0 - - - 0;
#X floatatom 136 174 5 0 0 0 - - - 0;
#X obj 92 547 array get _ 0 4095, f 47;
#X obj 92 468 * 1365;
#X obj 135 825 s Fraise-\$1-RAW-rcv;
#X obj 191 634 >> 8;
#X obj 235 634 & 255;
#X obj 92 520 t f f, f 6;
#X obj 92 441 t f f, f 11;
#X obj 166 464 sel 0;
#X obj 198 489 sel 7;
#X msg 166 489 3;
#X msg 198 514 5;
#X msg 230 514 4;
#X obj 166 514 f;
#X obj 96 776 list prepend 3;
#X obj 96 725 list prepend 0;
#X text 196 722 num_table;
#X text 368 507 3=start/4=cont/5=end;
#X obj 385 388 v;
#X obj 385 335 t b s;
#X floatatom 385 413 5 0 0 0 - - - 0;
#X msg 417 360 symbol \$1-ID;
#X obj 667 323 f;
#X msg 667 297 0;
#X obj 649 351 f;
#X obj 649 375 t f b, f 12;
#X obj 698 405 timer;
#X obj 649 458 /;
#X obj 667 220 tgl 20 0 empty empty empty 0 -10 0 12 #fcfcfc #000000 #000000 0 1;
#X obj 667 196 loadbang;
#X obj 631 322 +;
#X floatatom 663 525 10 0 0 1 kB/s - - 0;
#X obj 667 269 t b b b;
#X obj 474 643 print rcv;
#X obj 349 773 print snd;
#X obj 794 123 f;
#X msg 794 97 0;
#X obj 783 155 f;
#X obj 758 122 +;
#X obj 734 39 route 3 4 5;
#X obj 783 66 t b a;
#X obj 734 69 t a b;
#X floatatom 783 180 14 0 0 0 - - - 0;
#X obj 783 210 bng 20 250 50 0 empty empty empty 0 -10 0 12 #fcfcfc #000000 #000000;
#X obj 349 749 spigot;
#X obj 489 600 spigot;
#X obj 539 545 tgl 20 0 empty empty empty 0 -10 0 12 #fcfcfc #000000 #000000 0 1;
#X obj 147 608 t f f f, f 13;
#X obj 147 659 pack f f f, f 13;
#X obj 147 634 >> 16;
#X obj 783 618 outlet total;
#X obj 667 244 metro 200;
#X obj 649 573 * 5;
#X obj 649 598 outlet kB/;
#X obj 92 283 i;
#X obj 127 283 + 1;
#X msg 110 258 0;
#X obj 92 311 moses, f 10;
#X obj 57 255 b;
#X obj 92 367 i;
#X obj 29 360 b;
#X text 412 260 next;
#X obj 92 400 t f b;
#X obj 92 338 t f b;
#X obj 179 310 bng 20 250 50 0 empty empty empty 0 -10 0 12 #fcfcfc #000000 #000000;
#X obj 92 577 t a a, f 37;
#X obj 348 603 list length;
#X floatatom 425 585 5 0 0 0 - - - 0;
#X msg 155 343 finished;
#X obj 144 407 i;
#X obj 177 407 + 1;
#X msg 207 380 0;
#X msg 239 340 stop;
#X obj 296 471 print \$1-UDP;
#X msg 296 435 error;
#X floatatom 165 218 5 0 0 0 - - - 0;
#X msg 12 439 retry...;
#X obj 212 406 moses 20;
#X obj 92 172 + 1;
#X obj 230 462 - 1;
#X obj 349 724 list append 0;
#X obj 31 387 t b b;
#X obj 16 837 line~;
#X obj 16 862 *~;
#X obj 6 906 dac~;
#X obj 58 862 osc~ 1000;
#X msg 16 812 0.02 \, 0 250;
#X obj 144 381 del 100;
#X obj 16 787 spigot;
#X obj 48 759 tgl 20 0 empty empty empty 0 -10 0 12 #fcfcfc #000000 #000000 0 1;
#X msg 248 376 40;
#X msg 286 374 100;
#X obj 265 9 b;
#X obj 265 34 i;
#X obj 298 33 + 1;
#X obj 329 33 mod 256;
#X floatatom 298 57 5 0 0 0 - - - 0;
#X obj 298 81 s \$0-session;
#X obj 348 629 s \$0-sent_length;
#X obj 449 724 r \$0-sent_length;
#N canvas 428 349 573 554 check_message_received 1;
#X obj 40 50 r Fraise-\$1-RAW-snd;
#X obj 342 191 unpack f f;
#X obj 342 216 * 256;
#X obj 342 241 +, f 10;
#X obj 40 78 t a a, f 17;
#X obj 156 106 list split 1;
#X obj 107 443 list prepend;
#X floatatom 402 305 7 0 0 0 - - - 0;
#X obj 107 415 f;
#X obj 423 243 r \$0-sent_length;
#X obj 107 468 outlet;
#X text 104 489 command length;
#X obj 40 464 outlet;
#X obj 40 380 t b b, f 10;
#X obj 40 201 list split 1;
#X obj 170 163 list split 3;
#X obj 342 160 list split 2;
#X obj 200 271 r \$0-sent_offset;
#X obj 58 234 r \$0-session;
#X obj 342 269 ==, f 12;
#X obj 125 391 r \$0-sent_length;
#X obj 170 194 unpack f f f;
#X obj 170 220 << 16;
#X obj 170 245 +;
#X obj 213 221 << 8;
#X obj 213 246 +;
#X obj 170 270 ==;
#X obj 40 261 ==;
#X obj 40 319 &&, f 19;
#X obj 170 295 &&, f 25;
#X obj 40 344 sel 1;
#X text 40 486 ok;
#X listbox 310 92 20 0 0 0 - - - 0;
#X obj 368 472 outlet;
#X text 371 494 raw;
#X obj 40 138 t a a;
#X obj 369 303 tgl 20 0 empty empty empty 0 -10 0 12 #fcfcfc #000000 #000000 0 1;
#X obj 40 106 route 3;
#X obj 219 47 r \$0-command;
#X connect 0 0 4 0;
#X connect 1 0 2 0;
#X connect 1 1 3 1;
#X connect 2 0 3 0;
#X connect 3 0 7 0;
#X connect 3 0 19 0;
#X connect 4 0 37 0;
#X connect 4 1 5 0;
#X connect 5 0 6 1;
#X connect 6 0 10 0;
#X connect 8 0 6 0;
#X connect 9 0 19 1;
#X connect 13 0 12 0;
#X connect 13 1 8 0;
#X connect 14 0 27 0;
#X connect 14 1 15 0;
#X connect 15 0 21 0;
#X connect 15 1 16 0;
#X connect 16 0 1 0;
#X connect 17 0 26 1;
#X connect 18 0 27 1;
#X connect 19 0 29 1;
#X connect 19 0 36 0;
#X connect 20 0 8 1;
#X connect 21 0 22 0;
#X connect 21 1 24 0;
#X connect 21 2 25 1;
#X connect 22 0 23 0;
#X connect 23 0 26 0;
#X connect 24 0 25 0;
#X connect 25 0 23 1;
#X connect 26 0 29 0;
#X connect 27 0 28 0;
#X connect 28 0 30 0;
#X connect 29 0 28 1;
#X connect 30 0 13 0;
#X connect 35 0 14 0;
#X connect 35 0 32 0;
#X connect 35 1 33 0;
#X connect 37 0 35 0;
#X connect 38 0 37 1;
#X restore 456 64 pd check_message_received;
#X obj 370 262 t b b;
#X obj 250 663 s \$0-sent_offset;
#X obj 564 295 unpack f f;
#X obj 96 752 list prepend 0;
#X obj 203 751 r \$0-session;
#X obj 96 698 list prepend 0 0 0;
#X obj 349 698 list split 6;
#X obj 484 814 b;
#X obj 484 839 i;
#X obj 517 838 + 1;
#X obj 548 838 mod 256;
#X obj 489 787 bng 20 250 50 0 empty empty empty 0 -10 0 12 #fcfcfc #000000 #000000;
#X floatatom 539 866 5 0 0 0 - - - 0;
#X obj 471 885 f;
#X msg 471 910 \$1;
#X obj 277 509 s \$0-command;
#X obj 204 776 r \$0-command;
#X connect 0 0 13 0;
#X connect 1 0 24 0;
#X connect 2 0 72 0;
#X connect 2 1 74 0;
#X connect 2 1 75 1;
#X connect 2 1 93 0;
#X connect 2 1 97 0;
#X connect 3 0 7 0;
#X connect 4 0 3 0;
#X connect 5 0 3 0;
#X connect 6 0 3 0;
#X connect 7 0 8 0;
#X connect 7 0 10 0;
#X connect 7 0 11 1;
#X connect 7 0 20 1;
#X connect 8 0 9 0;
#X connect 8 0 19 1;
#X connect 11 0 18 0;
#X connect 11 0 96 0;
#X connect 12 0 5 0;
#X connect 13 0 14 0;
#X connect 13 1 14 1;
#X connect 13 1 19 2;
#X connect 13 1 37 0;
#X connect 13 1 90 0;
#X connect 13 1 110 0;
#X connect 14 0 15 0;
#X connect 14 0 17 0;
#X connect 15 0 11 0;
#X connect 15 0 16 0;
#X connect 19 0 83 0;
#X connect 20 0 1 0;
#X connect 22 0 66 1;
#X connect 23 0 66 2;
#X connect 24 0 19 0;
#X connect 24 1 65 0;
#X connect 24 1 120 0;
#X connect 25 0 20 0;
#X connect 25 1 26 0;
#X connect 26 0 28 0;
#X connect 26 1 27 0;
#X connect 27 0 29 0;
#X connect 27 1 30 0;
#X connect 28 0 31 0;
#X connect 29 0 31 0;
#X connect 30 0 31 0;
#X connect 31 0 134 0;
#X connect 32 0 21 0;
#X connect 33 0 122 0;
#X connect 36 0 38 0;
#X connect 36 0 33 1;
#X connect 37 0 36 0;
#X connect 37 1 39 0;
#X connect 39 0 36 1;
#X connect 40 0 42 1;
#X connect 40 0 48 1;
#X connect 41 0 40 0;
#X connect 42 0 43 0;
#X connect 43 0 45 0;
#X connect 43 1 44 1;
#X connect 44 0 45 1;
#X connect 45 0 49 0;
#X connect 45 0 70 0;
#X connect 46 0 69 0;
#X connect 47 0 46 0;
#X connect 48 0 40 0;
#X connect 50 0 44 0;
#X connect 50 0 41 0;
#X connect 50 1 42 0;
#X connect 53 0 55 1;
#X connect 53 0 56 1;
#X connect 54 0 53 0;
#X connect 55 0 60 0;
#X connect 56 0 53 0;
#X connect 57 0 59 0;
#X connect 57 1 56 0;
#X connect 57 2 58 0;
#X connect 58 0 55 0;
#X connect 58 1 56 0;
#X connect 59 0 56 0;
#X connect 59 1 54 0;
#X connect 60 0 61 0;
#X connect 60 0 68 0;
#X connect 62 0 52 0;
#X connect 63 0 51 0;
#X connect 64 0 63 1;
#X connect 64 0 62 1;
#X connect 65 0 67 0;
#X connect 65 1 22 0;
#X connect 65 2 23 0;
#X connect 66 0 124 1;
#X connect 67 0 66 0;
#X connect 69 0 50 0;
#X connect 70 0 71 0;
#X connect 72 0 73 0;
#X connect 72 0 75 0;
#X connect 73 0 72 1;
#X connect 74 0 72 1;
#X connect 75 0 81 0;
#X connect 75 1 82 0;
#X connect 75 1 86 0;
#X connect 75 1 90 0;
#X connect 76 0 72 0;
#X connect 77 0 80 0;
#X connect 78 0 99 0;
#X connect 80 0 25 0;
#X connect 80 1 105 0;
#X connect 81 0 77 0;
#X connect 81 1 89 0;
#X connect 83 0 124 0;
#X connect 83 1 84 0;
#X connect 84 0 85 0;
#X connect 84 0 116 0;
#X connect 86 0 62 0;
#X connect 86 0 91 0;
#X connect 87 0 88 0;
#X connect 88 0 87 1;
#X connect 88 0 95 0;
#X connect 89 0 87 1;
#X connect 90 0 105 0;
#X connect 92 0 91 0;
#X connect 94 0 91 0;
#X connect 94 0 106 0;
#X connect 95 0 78 0;
#X connect 95 1 92 0;
#X connect 96 0 2 0;
#X connect 97 0 27 1;
#X connect 98 0 62 0;
#X connect 99 0 77 0;
#X connect 99 1 94 0;
#X connect 100 0 101 0;
#X connect 101 0 102 0;
#X connect 101 0 102 1;
#X connect 103 0 101 1;
#X connect 104 0 100 0;
#X connect 105 0 87 0;
#X connect 106 0 104 0;
#X connect 107 0 106 1;
#X connect 108 0 105 1;
#X connect 109 0 105 1;
#X connect 110 0 111 0;
#X connect 111 0 112 0;
#X connect 112 0 113 0;
#X connect 112 0 114 0;
#X connect 113 0 111 1;
#X connect 114 0 115 0;
#X connect 117 0 98 1;
#X connect 118 0 119 0;
#X connect 118 1 57 0;
#X connect 118 1 121 0;
#X connect 118 2 63 0;
#X connect 119 0 76 0;
#X connect 119 1 90 0;
#X connect 121 1 48 0;
#X connect 122 0 125 0;
#X connect 122 0 32 0;
#X connect 123 0 122 1;
#X connect 124 0 33 0;
#X connect 125 0 98 0;
#X connect 126 0 127 0;
#X connect 127 0 128 0;
#X connect 128 0 129 0;
#X connect 128 0 131 0;
#X connect 128 0 132 1;
#X connect 129 0 127 1;
#X connect 130 0 126 0;
#X connect 132 0 133 0;
#X connect 135 0 32 1;
#X restore 31 283 pd UDP;
#N canvas 746 318 671 577 TCP 0;
#X obj 44 86 array get \$0-test;
#X obj 44 229 fruit/send \$0-tcpinterp;
#X obj 43 270 r Fraise-\$0-tcpinterp-rcv;
#X obj 44 114 t a a;
#X obj 44 138 list length;
#X obj 43 342 list append;
#X msg 91 115 1 2 3 4 5 6 7 8 9;
#X obj 43 306 list prepend;
#X msg 171 331 symbol MESSAGE_START;
#X obj 171 356 list fromsymbol;
#X obj 171 303 loadbang;
#X obj 171 381 list append 0;
#X obj 44 61 t b s, f 17;
#X obj 44 7 inlet;
#X obj 43 373 s \$1-to_tcp;
#X obj 45 438 fruit/receive \$1;
#X obj 45 464 route tcpt;
#X obj 242 121 v;
#X obj 242 68 t b s;
#X msg 274 93 symbol \$1-ID;
#X obj 44 170 list append 0;
#X msg 44 201 c 3 c \$2 i 0 lint32 \$1;
#X obj 18 63 bng 20 250 50 0 empty empty empty 0 -10 0 12 #fcfcfc #000000 #000000;
#X obj 45 491 route 0 1;
#X obj 44 34 spigot 1;
#X obj 154 10 b;
#X msg 154 35 1;
#X msg 97 12 0;
#X obj 198 8 b;
#X obj 198 33 del 1000;
#X obj 326 49 print \$1;
#X msg 326 19 tcp timeout!;
#X msg 232 8 stop;
#X obj 437 12 inlet;
#X obj 388 268 f;
#X msg 388 242 0;
#X obj 370 296 f;
#X obj 370 320 t f b;
#X obj 432 364 timer;
#X obj 370 403 /;
#X obj 388 189 metro 1000;
#X obj 388 165 tgl 20 0 empty empty empty 0 -10 0 12 #fcfcfc #000000 #000000 0 1;
#X obj 388 141 loadbang;
#X obj 352 267 +;
#X floatatom 359 470 10 0 0 1 kB/s - - 0;
#X obj 544 284 f;
#X msg 544 258 0;
#X obj 526 312 f;
#X obj 526 336 t f b;
#X obj 526 399 /;
#X obj 508 283 +;
#X msg 508 259 1;
#X floatatom 526 467 9 0 0 1 fps - - 0;
#X floatatom 565 378 5 0 0 0 - - - 0;
#X obj 526 433 * 1000;
#X obj 388 214 t b b b;
#X obj 406 505 pack f f;
#X obj 324 215 t a;
#X obj 406 531 outlet kB/s-fps;
#X obj 19 523 s \$1-from_tcpt;
#X connect 0 0 3 0;
#X connect 2 0 7 0;
#X connect 3 0 4 0;
#X connect 3 1 5 1;
#X connect 4 0 20 0;
#X connect 5 0 14 0;
#X connect 6 0 3 0;
#X connect 7 0 5 0;
#X connect 8 0 9 0;
#X connect 9 0 11 0;
#X connect 10 0 8 0;
#X connect 11 0 7 1;
#X connect 12 0 0 0;
#X connect 12 1 0 2;
#X connect 12 1 18 0;
#X connect 12 1 28 0;
#X connect 13 0 24 0;
#X connect 15 0 16 0;
#X connect 16 0 23 0;
#X connect 16 0 25 0;
#X connect 16 0 59 0;
#X connect 17 0 20 1;
#X connect 18 0 17 0;
#X connect 18 1 19 0;
#X connect 19 0 17 1;
#X connect 20 0 21 0;
#X connect 21 0 1 0;
#X connect 22 0 0 0;
#X connect 23 0 57 0;
#X connect 23 1 57 0;
#X connect 24 0 12 0;
#X connect 25 0 26 0;
#X connect 25 0 32 0;
#X connect 26 0 24 1;
#X connect 27 0 24 1;
#X connect 28 0 27 0;
#X connect 28 0 29 0;
#X connect 29 0 26 0;
#X connect 29 0 31 0;
#X connect 31 0 30 0;
#X connect 32 0 29 0;
#X connect 33 0 25 0;
#X connect 34 0 36 1;
#X connect 34 0 43 1;
#X connect 35 0 34 0;
#X connect 36 0 37 0;
#X connect 37 0 39 0;
#X connect 37 1 38 1;
#X connect 38 0 39 1;
#X connect 38 0 49 1;
#X connect 39 0 44 0;
#X connect 39 0 56 0;
#X connect 40 0 55 0;
#X connect 41 0 40 0;
#X connect 42 0 41 0;
#X connect 43 0 34 0;
#X connect 45 0 47 1;
#X connect 45 0 50 1;
#X connect 46 0 45 0;
#X connect 47 0 48 0;
#X connect 48 0 49 0;
#X connect 48 0 53 0;
#X connect 49 0 54 0;
#X connect 50 0 45 0;
#X connect 51 0 50 0;
#X connect 54 0 52 0;
#X connect 54 0 56 1;
#X connect 55 0 38 0;
#X connect 55 0 35 0;
#X connect 55 0 46 0;
#X connect 55 1 36 0;
#X connect 55 2 47 0;
#X connect 56 0 58 0;
#X connect 57 0 43 0;
#X connect 57 0 51 0;
#X restore 89 284 pd TCP;
#X obj 31 173 list prepend 0, f 19;
#X obj 174 172 r \$0-mode;
#X obj 31 198 route 0 1, f 17;
#X obj 31 223 symbol;
#X obj 11 29 hradio 40 1 0 2 \$0-mode \$0-mode UDP\ TCP 5 20 0 16 #fcfcfc #00ff04 #000000 0;
#X obj 146 20 r \$1-tcp_connected;
#X obj 146 45 s \$0-mode;
#X obj 89 255 spigot, f 14;
#X obj 195 197 fruit/receive \$1;
#X obj 195 222 route present;
#X obj 206 251 tgl 20 0 empty empty empty 0 -10 0 12 #fcfcfc #000000 #000000 0 1;
#X obj 31 141 route send sendudp;
#X obj 150 284 sel 0;
#X listbox 37 376 20 0 0 0 - - - 0;
#X obj 131 328 outlet total;
#X obj 31 330 outlet kB/s;
#X obj 171 224 tgl 20 0 empty empty empty 0 -10 0 12 #fcfcfc #000000 #000000 0 1;
#X connect 0 0 15 0;
#X connect 1 0 11 0;
#X connect 2 0 19 0;
#X connect 2 1 18 0;
#X connect 4 0 6 0;
#X connect 5 0 4 1;
#X connect 6 0 7 0;
#X connect 6 1 1 0;
#X connect 7 0 2 0;
#X connect 9 0 10 0;
#X connect 11 0 3 0;
#X connect 12 0 13 0;
#X connect 13 0 11 1;
#X connect 13 0 14 0;
#X connect 13 0 16 0;
#X connect 15 0 4 0;
#X connect 15 1 7 0;
#X connect 16 0 3 1;
#X connect 20 0 11 1;
#X coords 0 -1 1 1 100 60 1 10 10;
