#N canvas 764 232 1031 658 12;
#X obj 172 393 tgl 20 0 empty empty empty 0 -10 0 12 #fcfcfc #000000 #000000 0 1;
#X msg 243 296 disconnect;
#X obj 172 368 netsend -u -b;
#X obj 93 173 list prepend 1;
#X obj 93 148 fudiformat -u;
#X obj 290 429 fudiparse;
#X obj 63 228 list prepend 0;
#X obj 93 124 r Fraise-\$1-C-rcv;
#X obj 63 201 r Fraise-\$1-rcv;
#X obj 260 457 s Fraise-\$1-snd;
#X obj 29 454 loadbang;
#X obj 293 181 bng 20 250 50 0 empty empty empty 0 -10 0 12 #fcfcfc #000000 #000000;
#X obj 27 266 r Fraise-\$1-RAW-rcv;
#X obj 540 383 s Fraise-\$1-RAW-rcv;
#X msg 540 352 2 1;
#X text 566 346 ping;
#X obj 11 29 tgl 20 0 \$0-on-snd \$0-on-rcv empty 0 -10 0 12 #fcfcfc #000000 #000000 0 1;
#X msg 456 457 0;
#X msg 400 457 1;
#X obj 554 505 sel 0 1;
#X obj 32 29 cnv 20 260 20 empty \$0-can ip:::ffff:193.168.4.213 10 12 0 12 #e8e828 #000000 0;
#X obj 554 581 s \$0-can;
#X msg 577 530 color 15 22 22;
#X obj 260 400 route 0 1 2 3, f 18;
#X obj 338 495 unpack f f;
#X obj 338 520 * 256;
#X obj 338 545 +;
#X floatatom 338 570 5 0 0 3 retport - - 0;
#X obj 362 431 route 0 1;
#X msg 168 454 present \$1;
#X obj 180 494 s Fraise-\$1-RAW-snd;
#X msg 29 483 1;
#X obj 29 510 s \$0-on-rcv;
#X obj 268 76 r \$0-on-snd;
#X obj 220 169 sel 1 0;
#X obj 384 -3 inlet;
#X obj 384 47 s \$0-on-rcv;
#X obj 415 72 route bang;
#X obj 415 97 symbol \$2;
#X obj 415 122 t a;
#X msg 554 556 color 10 22 11;
#X obj 342 325 s \$0-can;
#X msg 342 300 label ip:\$1;
#X obj 172 338 spigot;
#X obj 268 102 t f f f;
#X obj 31 581 outlet;
#X obj 272 581 bng 20 250 50 0 empty empty empty 0 -10 0 12 #fcfcfc #000000 #000000;
#X msg 57 125 V;
#X obj 430 486 change -1;
#X msg 220 269 disconnect \, connect \$1 4343;
#X obj 333 358 s \$1-ip;
#X msg 642 114 V;
#X obj 723 116 list;
#X obj 562 65 route l present V, f 35;
#X listbox 11 51 45 0 0 0 - \$0-version _\$0-version-null 0;
#X obj 562 37 fruit/receive \$1;
#X obj 613 148 fruit/send2 \$1, f 11;
#X obj 723 143 s \$0-version;
#X obj 642 91 sel 1 0;
#X msg 674 114 list _;
#X obj 562 92 print \$1-log, f 6;
#X obj 456 355 b;
#X obj 456 321 sel 1 0;
#X msg 484 355 stop;
#X obj 695 209 netreceive -u -b -f 61616;
#X obj 695 236 list tosymbol;
#X obj 695 261 pack s s, f 25;
#X obj 867 235 unpack s;
#X obj 220 143 f;
#X obj 225 101 bng 20 250 50 0 empty empty empty 0 -10 0 12 #fcfcfc #000000 #000000;
#X obj 220 215 symbol -;
#X obj 220 242 spigot, f 8;
#X obj 295 212 t b b s;
#X msg 318 237 1;
#X obj 695 290 list trim;
#X obj 695 349 symbol;
#X obj 758 373 == 0;
#X obj 695 374 spigot 1;
#X obj 430 511 s \$0-present;
#X obj 554 480 r \$0-present;
#X obj 168 427 r \$0-present;
#X obj 31 556 r \$0-present;
#X obj 758 349 r \$0-present;
#X obj 695 319 route \$2;
#X obj 341 126 sel 0;
#X msg 341 151 0;
#X obj 852 324 spigot;
#X obj 277 29 tgl 20 0 \$0-scan-snd \$0-scan-rcv scan 23 10 0 12 #00ff04 #000000 #000000 0 1;
#X obj 852 375 print visible_fruits;
#X msg 852 349 ID= \$1 IP= \$2;
#X obj 891 297 r \$0-scan-snd;
#X obj 540 323 metro 500;
#X obj 384 22 route on ip ID;
#X obj 497 73 symbol;
#X obj 456 384 del 2500;
#X connect 1 0 2 0;
#X connect 2 0 0 0;
#X connect 2 1 23 0;
#X connect 2 1 30 0;
#X connect 3 0 43 0;
#X connect 4 0 3 0;
#X connect 5 0 9 0;
#X connect 6 0 43 0;
#X connect 7 0 4 0;
#X connect 8 0 6 0;
#X connect 10 0 31 0;
#X connect 11 0 70 0;
#X connect 12 0 43 0;
#X connect 14 0 13 0;
#X connect 17 0 48 0;
#X connect 18 0 48 0;
#X connect 18 0 61 0;
#X connect 19 0 40 0;
#X connect 19 1 22 0;
#X connect 22 0 21 0;
#X connect 23 0 9 0;
#X connect 23 1 5 0;
#X connect 23 2 28 0;
#X connect 24 0 25 0;
#X connect 24 1 26 1;
#X connect 25 0 26 0;
#X connect 26 0 27 0;
#X connect 28 0 24 0;
#X connect 28 1 18 0;
#X connect 28 1 46 0;
#X connect 29 0 9 0;
#X connect 31 0 32 0;
#X connect 33 0 44 0;
#X connect 34 0 70 0;
#X connect 34 1 1 0;
#X connect 35 0 92 0;
#X connect 37 0 38 0;
#X connect 37 1 39 0;
#X connect 38 0 39 0;
#X connect 39 0 70 0;
#X connect 40 0 21 0;
#X connect 42 0 41 0;
#X connect 43 0 2 0;
#X connect 44 0 62 0;
#X connect 44 0 91 0;
#X connect 44 1 17 0;
#X connect 44 1 68 0;
#X connect 44 2 43 1;
#X connect 44 2 84 0;
#X connect 47 0 4 0;
#X connect 48 0 78 0;
#X connect 49 0 2 0;
#X connect 51 0 56 1;
#X connect 52 0 57 0;
#X connect 53 0 60 0;
#X connect 53 1 58 0;
#X connect 53 2 52 0;
#X connect 55 0 53 0;
#X connect 58 0 51 0;
#X connect 58 1 59 0;
#X connect 59 0 57 0;
#X connect 61 0 94 0;
#X connect 62 0 61 0;
#X connect 62 1 63 0;
#X connect 63 0 94 0;
#X connect 64 0 65 0;
#X connect 64 1 67 0;
#X connect 65 0 66 0;
#X connect 66 0 74 0;
#X connect 66 0 86 0;
#X connect 67 0 66 1;
#X connect 68 0 34 0;
#X connect 69 0 68 0;
#X connect 70 0 42 0;
#X connect 70 0 50 0;
#X connect 70 0 71 0;
#X connect 71 0 49 0;
#X connect 72 0 68 0;
#X connect 72 1 73 0;
#X connect 72 2 70 1;
#X connect 73 0 71 1;
#X connect 74 0 83 0;
#X connect 75 0 77 0;
#X connect 76 0 77 1;
#X connect 77 0 72 0;
#X connect 79 0 19 0;
#X connect 80 0 29 0;
#X connect 81 0 45 0;
#X connect 82 0 76 0;
#X connect 83 0 75 0;
#X connect 84 0 85 0;
#X connect 85 0 71 1;
#X connect 86 0 89 0;
#X connect 89 0 88 0;
#X connect 90 0 86 1;
#X connect 91 0 14 0;
#X connect 92 0 36 0;
#X connect 92 1 37 0;
#X connect 92 2 93 0;
#X connect 93 0 83 1;
#X connect 94 0 17 0;
#X connect 94 0 70 0;
#X coords 0 -1 1 1 320 62 1 10 10;
